<?xml version="1.0" encoding="utf-8" standalone="no"?>
<!DOCTYPE svg PUBLIC "-//W3C//DTD SVG 1.1//EN"
  "http://www.w3.org/Graphics/SVG/1.1/DTD/svg11.dtd">
<svg xmlns:xlink="http://www.w3.org/1999/xlink" width="576pt" height="288pt" viewBox="0 0 576 288" xmlns="http://www.w3.org/2000/svg" version="1.1">
 <metadata>
  <rdf:RDF xmlns:dc="http://purl.org/dc/elements/1.1/" xmlns:cc="http://creativecommons.org/ns#" xmlns:rdf="http://www.w3.org/1999/02/22-rdf-syntax-ns#">
   <cc:Work>
    <dc:type rdf:resource="http://purl.org/dc/dcmitype/StillImage"/>
    <dc:date>2025-10-02T19:52:13.554803</dc:date>
    <dc:format>image/svg+xml</dc:format>
    <dc:creator>
     <cc:Agent>
      <dc:title>Matplotlib v3.9.2, https://matplotlib.org/</dc:title>
     </cc:Agent>
    </dc:creator>
   </cc:Work>
  </rdf:RDF>
 </metadata>
 <defs>
  <style type="text/css">*{stroke-linejoin: round; stroke-linecap: butt}</style>
 </defs>
 <g id="figure_1">
  <g id="patch_1">
   <path d="M 0 288 
L 576 288 
L 576 0 
L 0 0 
z
" style="fill: #ffffff"/>
  </g>
  <g id="axes_1">
   <g id="patch_2">
    <path d="M 51.77 245.32 
L 519.1 245.32 
L 519.1 27.6 
L 51.77 27.6 
z
" style="fill: #ffffff"/>
   </g>
   <g id="matplotlib.axis_1">
    <g id="xtick_1">
     <g id="line2d_1">
      <path d="M 73.012273 245.32 
L 73.012273 27.6 
" clip-path="url(#pdd6dc41ed2)" style="fill: none; stroke-dasharray: 0.8,1.32; stroke-dashoffset: 0; stroke: #b0b0b0; stroke-opacity: 0.7; stroke-width: 0.8"/>
     </g>
     <g id="line2d_2">
      <defs>
       <path id="mf23e051253" d="M 0 0 
L 0 3.5 
" style="stroke: #000000; stroke-width: 0.8"/>
      </defs>
      <g>
       <use xlink:href="#mf23e051253" x="73.012273" y="245.32" style="stroke: #000000; stroke-width: 0.8"/>
      </g>
     </g>
     <g id="text_1">
      <!-- 0 -->
      <g transform="translate(69.831023 259.918437) scale(0.1 -0.1)">
       <defs>
        <path id="DejaVuSans-30" d="M 2034 4250 
Q 1547 4250 1301 3770 
Q 1056 3291 1056 2328 
Q 1056 1369 1301 889 
Q 1547 409 2034 409 
Q 2525 409 2770 889 
Q 3016 1369 3016 2328 
Q 3016 3291 2770 3770 
Q 2525 4250 2034 4250 
z
M 2034 4750 
Q 2819 4750 3233 4129 
Q 3647 3509 3647 2328 
Q 3647 1150 3233 529 
Q 2819 -91 2034 -91 
Q 1250 -91 836 529 
Q 422 1150 422 2328 
Q 422 3509 836 4129 
Q 1250 4750 2034 4750 
z
" transform="scale(0.015625)"/>
       </defs>
       <use xlink:href="#DejaVuSans-30"/>
      </g>
     </g>
    </g>
    <g id="xtick_2">
     <g id="line2d_3">
      <path d="M 157.981364 245.32 
L 157.981364 27.6 
" clip-path="url(#pdd6dc41ed2)" style="fill: none; stroke-dasharray: 0.8,1.32; stroke-dashoffset: 0; stroke: #b0b0b0; stroke-opacity: 0.7; stroke-width: 0.8"/>
     </g>
     <g id="line2d_4">
      <g>
       <use xlink:href="#mf23e051253" x="157.981364" y="245.32" style="stroke: #000000; stroke-width: 0.8"/>
      </g>
     </g>
     <g id="text_2">
      <!-- 10 -->
      <g transform="translate(151.618864 259.918437) scale(0.1 -0.1)">
       <defs>
        <path id="DejaVuSans-31" d="M 794 531 
L 1825 531 
L 1825 4091 
L 703 3866 
L 703 4441 
L 1819 4666 
L 2450 4666 
L 2450 531 
L 3481 531 
L 3481 0 
L 794 0 
L 794 531 
z
" transform="scale(0.015625)"/>
       </defs>
       <use xlink:href="#DejaVuSans-31"/>
       <use xlink:href="#DejaVuSans-30" x="63.623047"/>
      </g>
     </g>
    </g>
    <g id="xtick_3">
     <g id="line2d_5">
      <path d="M 242.950455 245.32 
L 242.950455 27.6 
" clip-path="url(#pdd6dc41ed2)" style="fill: none; stroke-dasharray: 0.8,1.32; stroke-dashoffset: 0; stroke: #b0b0b0; stroke-opacity: 0.7; stroke-width: 0.8"/>
     </g>
     <g id="line2d_6">
      <g>
       <use xlink:href="#mf23e051253" x="242.950455" y="245.32" style="stroke: #000000; stroke-width: 0.8"/>
      </g>
     </g>
     <g id="text_3">
      <!-- 20 -->
      <g transform="translate(236.587955 259.918437) scale(0.1 -0.1)">
       <defs>
        <path id="DejaVuSans-32" d="M 1228 531 
L 3431 531 
L 3431 0 
L 469 0 
L 469 531 
Q 828 903 1448 1529 
Q 2069 2156 2228 2338 
Q 2531 2678 2651 2914 
Q 2772 3150 2772 3378 
Q 2772 3750 2511 3984 
Q 2250 4219 1831 4219 
Q 1534 4219 1204 4116 
Q 875 4013 500 3803 
L 500 4441 
Q 881 4594 1212 4672 
Q 1544 4750 1819 4750 
Q 2544 4750 2975 4387 
Q 3406 4025 3406 3419 
Q 3406 3131 3298 2873 
Q 3191 2616 2906 2266 
Q 2828 2175 2409 1742 
Q 1991 1309 1228 531 
z
" transform="scale(0.015625)"/>
       </defs>
       <use xlink:href="#DejaVuSans-32"/>
       <use xlink:href="#DejaVuSans-30" x="63.623047"/>
      </g>
     </g>
    </g>
    <g id="xtick_4">
     <g id="line2d_7">
      <path d="M 327.919545 245.32 
L 327.919545 27.6 
" clip-path="url(#pdd6dc41ed2)" style="fill: none; stroke-dasharray: 0.8,1.32; stroke-dashoffset: 0; stroke: #b0b0b0; stroke-opacity: 0.7; stroke-width: 0.8"/>
     </g>
     <g id="line2d_8">
      <g>
       <use xlink:href="#mf23e051253" x="327.919545" y="245.32" style="stroke: #000000; stroke-width: 0.8"/>
      </g>
     </g>
     <g id="text_4">
      <!-- 30 -->
      <g transform="translate(321.557045 259.918437) scale(0.1 -0.1)">
       <defs>
        <path id="DejaVuSans-33" d="M 2597 2516 
Q 3050 2419 3304 2112 
Q 3559 1806 3559 1356 
Q 3559 666 3084 287 
Q 2609 -91 1734 -91 
Q 1441 -91 1130 -33 
Q 819 25 488 141 
L 488 750 
Q 750 597 1062 519 
Q 1375 441 1716 441 
Q 2309 441 2620 675 
Q 2931 909 2931 1356 
Q 2931 1769 2642 2001 
Q 2353 2234 1838 2234 
L 1294 2234 
L 1294 2753 
L 1863 2753 
Q 2328 2753 2575 2939 
Q 2822 3125 2822 3475 
Q 2822 3834 2567 4026 
Q 2313 4219 1838 4219 
Q 1578 4219 1281 4162 
Q 984 4106 628 3988 
L 628 4550 
Q 988 4650 1302 4700 
Q 1616 4750 1894 4750 
Q 2613 4750 3031 4423 
Q 3450 4097 3450 3541 
Q 3450 3153 3228 2886 
Q 3006 2619 2597 2516 
z
" transform="scale(0.015625)"/>
       </defs>
       <use xlink:href="#DejaVuSans-33"/>
       <use xlink:href="#DejaVuSans-30" x="63.623047"/>
      </g>
     </g>
    </g>
    <g id="xtick_5">
     <g id="line2d_9">
      <path d="M 412.888636 245.32 
L 412.888636 27.6 
" clip-path="url(#pdd6dc41ed2)" style="fill: none; stroke-dasharray: 0.8,1.32; stroke-dashoffset: 0; stroke: #b0b0b0; stroke-opacity: 0.7; stroke-width: 0.8"/>
     </g>
     <g id="line2d_10">
      <g>
       <use xlink:href="#mf23e051253" x="412.888636" y="245.32" style="stroke: #000000; stroke-width: 0.8"/>
      </g>
     </g>
     <g id="text_5">
      <!-- 40 -->
      <g transform="translate(406.526136 259.918437) scale(0.1 -0.1)">
       <defs>
        <path id="DejaVuSans-34" d="M 2419 4116 
L 825 1625 
L 2419 1625 
L 2419 4116 
z
M 2253 4666 
L 3047 4666 
L 3047 1625 
L 3713 1625 
L 3713 1100 
L 3047 1100 
L 3047 0 
L 2419 0 
L 2419 1100 
L 313 1100 
L 313 1709 
L 2253 4666 
z
" transform="scale(0.015625)"/>
       </defs>
       <use xlink:href="#DejaVuSans-34"/>
       <use xlink:href="#DejaVuSans-30" x="63.623047"/>
      </g>
     </g>
    </g>
    <g id="xtick_6">
     <g id="line2d_11">
      <path d="M 497.857727 245.32 
L 497.857727 27.6 
" clip-path="url(#pdd6dc41ed2)" style="fill: none; stroke-dasharray: 0.8,1.32; stroke-dashoffset: 0; stroke: #b0b0b0; stroke-opacity: 0.7; stroke-width: 0.8"/>
     </g>
     <g id="line2d_12">
      <g>
       <use xlink:href="#mf23e051253" x="497.857727" y="245.32" style="stroke: #000000; stroke-width: 0.8"/>
      </g>
     </g>
     <g id="text_6">
      <!-- 50 -->
      <g transform="translate(491.495227 259.918437) scale(0.1 -0.1)">
       <defs>
        <path id="DejaVuSans-35" d="M 691 4666 
L 3169 4666 
L 3169 4134 
L 1269 4134 
L 1269 2991 
Q 1406 3038 1543 3061 
Q 1681 3084 1819 3084 
Q 2600 3084 3056 2656 
Q 3513 2228 3513 1497 
Q 3513 744 3044 326 
Q 2575 -91 1722 -91 
Q 1428 -91 1123 -41 
Q 819 9 494 109 
L 494 744 
Q 775 591 1075 516 
Q 1375 441 1709 441 
Q 2250 441 2565 725 
Q 2881 1009 2881 1497 
Q 2881 1984 2565 2268 
Q 2250 2553 1709 2553 
Q 1456 2553 1204 2497 
Q 953 2441 691 2322 
L 691 4666 
z
" transform="scale(0.015625)"/>
       </defs>
       <use xlink:href="#DejaVuSans-35"/>
       <use xlink:href="#DejaVuSans-30" x="63.623047"/>
      </g>
     </g>
    </g>
    <g id="text_7">
     <!-- Time (s) -->
     <g transform="translate(261.040313 275.11625) scale(0.12 -0.12)">
      <defs>
       <path id="DejaVuSans-54" d="M -19 4666 
L 3928 4666 
L 3928 4134 
L 2272 4134 
L 2272 0 
L 1638 0 
L 1638 4134 
L -19 4134 
L -19 4666 
z
" transform="scale(0.015625)"/>
       <path id="DejaVuSans-69" d="M 603 3500 
L 1178 3500 
L 1178 0 
L 603 0 
L 603 3500 
z
M 603 4863 
L 1178 4863 
L 1178 4134 
L 603 4134 
L 603 4863 
z
" transform="scale(0.015625)"/>
       <path id="DejaVuSans-6d" d="M 3328 2828 
Q 3544 3216 3844 3400 
Q 4144 3584 4550 3584 
Q 5097 3584 5394 3201 
Q 5691 2819 5691 2113 
L 5691 0 
L 5113 0 
L 5113 2094 
Q 5113 2597 4934 2840 
Q 4756 3084 4391 3084 
Q 3944 3084 3684 2787 
Q 3425 2491 3425 1978 
L 3425 0 
L 2847 0 
L 2847 2094 
Q 2847 2600 2669 2842 
Q 2491 3084 2119 3084 
Q 1678 3084 1418 2786 
Q 1159 2488 1159 1978 
L 1159 0 
L 581 0 
L 581 3500 
L 1159 3500 
L 1159 2956 
Q 1356 3278 1631 3431 
Q 1906 3584 2284 3584 
Q 2666 3584 2933 3390 
Q 3200 3197 3328 2828 
z
" transform="scale(0.015625)"/>
       <path id="DejaVuSans-65" d="M 3597 1894 
L 3597 1613 
L 953 1613 
Q 991 1019 1311 708 
Q 1631 397 2203 397 
Q 2534 397 2845 478 
Q 3156 559 3463 722 
L 3463 178 
Q 3153 47 2828 -22 
Q 2503 -91 2169 -91 
Q 1331 -91 842 396 
Q 353 884 353 1716 
Q 353 2575 817 3079 
Q 1281 3584 2069 3584 
Q 2775 3584 3186 3129 
Q 3597 2675 3597 1894 
z
M 3022 2063 
Q 3016 2534 2758 2815 
Q 2500 3097 2075 3097 
Q 1594 3097 1305 2825 
Q 1016 2553 972 2059 
L 3022 2063 
z
" transform="scale(0.015625)"/>
       <path id="DejaVuSans-20" transform="scale(0.015625)"/>
       <path id="DejaVuSans-28" d="M 1984 4856 
Q 1566 4138 1362 3434 
Q 1159 2731 1159 2009 
Q 1159 1288 1364 580 
Q 1569 -128 1984 -844 
L 1484 -844 
Q 1016 -109 783 600 
Q 550 1309 550 2009 
Q 550 2706 781 3412 
Q 1013 4119 1484 4856 
L 1984 4856 
z
" transform="scale(0.015625)"/>
       <path id="DejaVuSans-73" d="M 2834 3397 
L 2834 2853 
Q 2591 2978 2328 3040 
Q 2066 3103 1784 3103 
Q 1356 3103 1142 2972 
Q 928 2841 928 2578 
Q 928 2378 1081 2264 
Q 1234 2150 1697 2047 
L 1894 2003 
Q 2506 1872 2764 1633 
Q 3022 1394 3022 966 
Q 3022 478 2636 193 
Q 2250 -91 1575 -91 
Q 1294 -91 989 -36 
Q 684 19 347 128 
L 347 722 
Q 666 556 975 473 
Q 1284 391 1588 391 
Q 1994 391 2212 530 
Q 2431 669 2431 922 
Q 2431 1156 2273 1281 
Q 2116 1406 1581 1522 
L 1381 1569 
Q 847 1681 609 1914 
Q 372 2147 372 2553 
Q 372 3047 722 3315 
Q 1072 3584 1716 3584 
Q 2034 3584 2315 3537 
Q 2597 3491 2834 3397 
z
" transform="scale(0.015625)"/>
       <path id="DejaVuSans-29" d="M 513 4856 
L 1013 4856 
Q 1481 4119 1714 3412 
Q 1947 2706 1947 2009 
Q 1947 1309 1714 600 
Q 1481 -109 1013 -844 
L 513 -844 
Q 928 -128 1133 580 
Q 1338 1288 1338 2009 
Q 1338 2731 1133 3434 
Q 928 4138 513 4856 
z
" transform="scale(0.015625)"/>
      </defs>
      <use xlink:href="#DejaVuSans-54"/>
      <use xlink:href="#DejaVuSans-69" x="57.958984"/>
      <use xlink:href="#DejaVuSans-6d" x="85.742188"/>
      <use xlink:href="#DejaVuSans-65" x="183.154297"/>
      <use xlink:href="#DejaVuSans-20" x="244.677734"/>
      <use xlink:href="#DejaVuSans-28" x="276.464844"/>
      <use xlink:href="#DejaVuSans-73" x="315.478516"/>
      <use xlink:href="#DejaVuSans-29" x="367.578125"/>
     </g>
    </g>
   </g>
   <g id="matplotlib.axis_2">
    <g id="ytick_1">
     <g id="line2d_13">
      <path d="M 51.77 240.382513 
L 519.1 240.382513 
" clip-path="url(#pdd6dc41ed2)" style="fill: none; stroke-dasharray: 0.8,1.32; stroke-dashoffset: 0; stroke: #b0b0b0; stroke-opacity: 0.7; stroke-width: 0.8"/>
     </g>
     <g id="line2d_14">
      <defs>
       <path id="m209d81689c" d="M 0 0 
L -3.5 0 
" style="stroke: #000000; stroke-width: 0.8"/>
      </defs>
      <g>
       <use xlink:href="#m209d81689c" x="51.77" y="240.382513" style="stroke: #000000; stroke-width: 0.8"/>
      </g>
     </g>
     <g id="text_8">
      <!-- 288 -->
      <g transform="translate(25.6825 244.181732) scale(0.1 -0.1)">
       <defs>
        <path id="DejaVuSans-38" d="M 2034 2216 
Q 1584 2216 1326 1975 
Q 1069 1734 1069 1313 
Q 1069 891 1326 650 
Q 1584 409 2034 409 
Q 2484 409 2743 651 
Q 3003 894 3003 1313 
Q 3003 1734 2745 1975 
Q 2488 2216 2034 2216 
z
M 1403 2484 
Q 997 2584 770 2862 
Q 544 3141 544 3541 
Q 544 4100 942 4425 
Q 1341 4750 2034 4750 
Q 2731 4750 3128 4425 
Q 3525 4100 3525 3541 
Q 3525 3141 3298 2862 
Q 3072 2584 2669 2484 
Q 3125 2378 3379 2068 
Q 3634 1759 3634 1313 
Q 3634 634 3220 271 
Q 2806 -91 2034 -91 
Q 1263 -91 848 271 
Q 434 634 434 1313 
Q 434 1759 690 2068 
Q 947 2378 1403 2484 
z
M 1172 3481 
Q 1172 3119 1398 2916 
Q 1625 2713 2034 2713 
Q 2441 2713 2670 2916 
Q 2900 3119 2900 3481 
Q 2900 3844 2670 4047 
Q 2441 4250 2034 4250 
Q 1625 4250 1398 4047 
Q 1172 3844 1172 3481 
z
" transform="scale(0.015625)"/>
       </defs>
       <use xlink:href="#DejaVuSans-32"/>
       <use xlink:href="#DejaVuSans-38" x="63.623047"/>
       <use xlink:href="#DejaVuSans-38" x="127.246094"/>
      </g>
     </g>
    </g>
    <g id="ytick_2">
     <g id="line2d_15">
      <path d="M 51.77 199.805283 
L 519.1 199.805283 
" clip-path="url(#pdd6dc41ed2)" style="fill: none; stroke-dasharray: 0.8,1.32; stroke-dashoffset: 0; stroke: #b0b0b0; stroke-opacity: 0.7; stroke-width: 0.8"/>
     </g>
     <g id="line2d_16">
      <g>
       <use xlink:href="#m209d81689c" x="51.77" y="199.805283" style="stroke: #000000; stroke-width: 0.8"/>
      </g>
     </g>
     <g id="text_9">
      <!-- 289 -->
      <g transform="translate(25.6825 203.604502) scale(0.1 -0.1)">
       <defs>
        <path id="DejaVuSans-39" d="M 703 97 
L 703 672 
Q 941 559 1184 500 
Q 1428 441 1663 441 
Q 2288 441 2617 861 
Q 2947 1281 2994 2138 
Q 2813 1869 2534 1725 
Q 2256 1581 1919 1581 
Q 1219 1581 811 2004 
Q 403 2428 403 3163 
Q 403 3881 828 4315 
Q 1253 4750 1959 4750 
Q 2769 4750 3195 4129 
Q 3622 3509 3622 2328 
Q 3622 1225 3098 567 
Q 2575 -91 1691 -91 
Q 1453 -91 1209 -44 
Q 966 3 703 97 
z
M 1959 2075 
Q 2384 2075 2632 2365 
Q 2881 2656 2881 3163 
Q 2881 3666 2632 3958 
Q 2384 4250 1959 4250 
Q 1534 4250 1286 3958 
Q 1038 3666 1038 3163 
Q 1038 2656 1286 2365 
Q 1534 2075 1959 2075 
z
" transform="scale(0.015625)"/>
       </defs>
       <use xlink:href="#DejaVuSans-32"/>
       <use xlink:href="#DejaVuSans-38" x="63.623047"/>
       <use xlink:href="#DejaVuSans-39" x="127.246094"/>
      </g>
     </g>
    </g>
    <g id="ytick_3">
     <g id="line2d_17">
      <path d="M 51.77 159.228053 
L 519.1 159.228053 
" clip-path="url(#pdd6dc41ed2)" style="fill: none; stroke-dasharray: 0.8,1.32; stroke-dashoffset: 0; stroke: #b0b0b0; stroke-opacity: 0.7; stroke-width: 0.8"/>
     </g>
     <g id="line2d_18">
      <g>
       <use xlink:href="#m209d81689c" x="51.77" y="159.228053" style="stroke: #000000; stroke-width: 0.8"/>
      </g>
     </g>
     <g id="text_10">
      <!-- 290 -->
      <g transform="translate(25.6825 163.027272) scale(0.1 -0.1)">
       <use xlink:href="#DejaVuSans-32"/>
       <use xlink:href="#DejaVuSans-39" x="63.623047"/>
       <use xlink:href="#DejaVuSans-30" x="127.246094"/>
      </g>
     </g>
    </g>
    <g id="ytick_4">
     <g id="line2d_19">
      <path d="M 51.77 118.650824 
L 519.1 118.650824 
" clip-path="url(#pdd6dc41ed2)" style="fill: none; stroke-dasharray: 0.8,1.32; stroke-dashoffset: 0; stroke: #b0b0b0; stroke-opacity: 0.7; stroke-width: 0.8"/>
     </g>
     <g id="line2d_20">
      <g>
       <use xlink:href="#m209d81689c" x="51.77" y="118.650824" style="stroke: #000000; stroke-width: 0.8"/>
      </g>
     </g>
     <g id="text_11">
      <!-- 291 -->
      <g transform="translate(25.6825 122.450042) scale(0.1 -0.1)">
       <use xlink:href="#DejaVuSans-32"/>
       <use xlink:href="#DejaVuSans-39" x="63.623047"/>
       <use xlink:href="#DejaVuSans-31" x="127.246094"/>
      </g>
     </g>
    </g>
    <g id="ytick_5">
     <g id="line2d_21">
      <path d="M 51.77 78.073594 
L 519.1 78.073594 
" clip-path="url(#pdd6dc41ed2)" style="fill: none; stroke-dasharray: 0.8,1.32; stroke-dashoffset: 0; stroke: #b0b0b0; stroke-opacity: 0.7; stroke-width: 0.8"/>
     </g>
     <g id="line2d_22">
      <g>
       <use xlink:href="#m209d81689c" x="51.77" y="78.073594" style="stroke: #000000; stroke-width: 0.8"/>
      </g>
     </g>
     <g id="text_12">
      <!-- 292 -->
      <g transform="translate(25.6825 81.872812) scale(0.1 -0.1)">
       <use xlink:href="#DejaVuSans-32"/>
       <use xlink:href="#DejaVuSans-39" x="63.623047"/>
       <use xlink:href="#DejaVuSans-32" x="127.246094"/>
      </g>
     </g>
    </g>
    <g id="ytick_6">
     <g id="line2d_23">
      <path d="M 51.77 37.496364 
L 519.1 37.496364 
" clip-path="url(#pdd6dc41ed2)" style="fill: none; stroke-dasharray: 0.8,1.32; stroke-dashoffset: 0; stroke: #b0b0b0; stroke-opacity: 0.7; stroke-width: 0.8"/>
     </g>
     <g id="line2d_24">
      <g>
       <use xlink:href="#m209d81689c" x="51.77" y="37.496364" style="stroke: #000000; stroke-width: 0.8"/>
      </g>
     </g>
     <g id="text_13">
      <!-- 293 -->
      <g transform="translate(25.6825 41.295582) scale(0.1 -0.1)">
       <use xlink:href="#DejaVuSans-32"/>
       <use xlink:href="#DejaVuSans-39" x="63.623047"/>
       <use xlink:href="#DejaVuSans-33" x="127.246094"/>
      </g>
     </g>
    </g>
    <g id="text_14">
     <!-- Temperature (K) -->
     <g transform="translate(19.186875 184.986875) rotate(-90) scale(0.12 -0.12)">
      <defs>
       <path id="DejaVuSans-70" d="M 1159 525 
L 1159 -1331 
L 581 -1331 
L 581 3500 
L 1159 3500 
L 1159 2969 
Q 1341 3281 1617 3432 
Q 1894 3584 2278 3584 
Q 2916 3584 3314 3078 
Q 3713 2572 3713 1747 
Q 3713 922 3314 415 
Q 2916 -91 2278 -91 
Q 1894 -91 1617 61 
Q 1341 213 1159 525 
z
M 3116 1747 
Q 3116 2381 2855 2742 
Q 2594 3103 2138 3103 
Q 1681 3103 1420 2742 
Q 1159 2381 1159 1747 
Q 1159 1113 1420 752 
Q 1681 391 2138 391 
Q 2594 391 2855 752 
Q 3116 1113 3116 1747 
z
" transform="scale(0.015625)"/>
       <path id="DejaVuSans-72" d="M 2631 2963 
Q 2534 3019 2420 3045 
Q 2306 3072 2169 3072 
Q 1681 3072 1420 2755 
Q 1159 2438 1159 1844 
L 1159 0 
L 581 0 
L 581 3500 
L 1159 3500 
L 1159 2956 
Q 1341 3275 1631 3429 
Q 1922 3584 2338 3584 
Q 2397 3584 2469 3576 
Q 2541 3569 2628 3553 
L 2631 2963 
z
" transform="scale(0.015625)"/>
       <path id="DejaVuSans-61" d="M 2194 1759 
Q 1497 1759 1228 1600 
Q 959 1441 959 1056 
Q 959 750 1161 570 
Q 1363 391 1709 391 
Q 2188 391 2477 730 
Q 2766 1069 2766 1631 
L 2766 1759 
L 2194 1759 
z
M 3341 1997 
L 3341 0 
L 2766 0 
L 2766 531 
Q 2569 213 2275 61 
Q 1981 -91 1556 -91 
Q 1019 -91 701 211 
Q 384 513 384 1019 
Q 384 1609 779 1909 
Q 1175 2209 1959 2209 
L 2766 2209 
L 2766 2266 
Q 2766 2663 2505 2880 
Q 2244 3097 1772 3097 
Q 1472 3097 1187 3025 
Q 903 2953 641 2809 
L 641 3341 
Q 956 3463 1253 3523 
Q 1550 3584 1831 3584 
Q 2591 3584 2966 3190 
Q 3341 2797 3341 1997 
z
" transform="scale(0.015625)"/>
       <path id="DejaVuSans-74" d="M 1172 4494 
L 1172 3500 
L 2356 3500 
L 2356 3053 
L 1172 3053 
L 1172 1153 
Q 1172 725 1289 603 
Q 1406 481 1766 481 
L 2356 481 
L 2356 0 
L 1766 0 
Q 1100 0 847 248 
Q 594 497 594 1153 
L 594 3053 
L 172 3053 
L 172 3500 
L 594 3500 
L 594 4494 
L 1172 4494 
z
" transform="scale(0.015625)"/>
       <path id="DejaVuSans-75" d="M 544 1381 
L 544 3500 
L 1119 3500 
L 1119 1403 
Q 1119 906 1312 657 
Q 1506 409 1894 409 
Q 2359 409 2629 706 
Q 2900 1003 2900 1516 
L 2900 3500 
L 3475 3500 
L 3475 0 
L 2900 0 
L 2900 538 
Q 2691 219 2414 64 
Q 2138 -91 1772 -91 
Q 1169 -91 856 284 
Q 544 659 544 1381 
z
M 1991 3584 
L 1991 3584 
z
" transform="scale(0.015625)"/>
       <path id="DejaVuSans-4b" d="M 628 4666 
L 1259 4666 
L 1259 2694 
L 3353 4666 
L 4166 4666 
L 1850 2491 
L 4331 0 
L 3500 0 
L 1259 2247 
L 1259 0 
L 628 0 
L 628 4666 
z
" transform="scale(0.015625)"/>
      </defs>
      <use xlink:href="#DejaVuSans-54"/>
      <use xlink:href="#DejaVuSans-65" x="44.083984"/>
      <use xlink:href="#DejaVuSans-6d" x="105.607422"/>
      <use xlink:href="#DejaVuSans-70" x="203.019531"/>
      <use xlink:href="#DejaVuSans-65" x="266.496094"/>
      <use xlink:href="#DejaVuSans-72" x="328.019531"/>
      <use xlink:href="#DejaVuSans-61" x="369.132812"/>
      <use xlink:href="#DejaVuSans-74" x="430.412109"/>
      <use xlink:href="#DejaVuSans-75" x="469.621094"/>
      <use xlink:href="#DejaVuSans-72" x="533"/>
      <use xlink:href="#DejaVuSans-65" x="571.863281"/>
      <use xlink:href="#DejaVuSans-20" x="633.386719"/>
      <use xlink:href="#DejaVuSans-28" x="665.173828"/>
      <use xlink:href="#DejaVuSans-4b" x="704.1875"/>
      <use xlink:href="#DejaVuSans-29" x="769.763672"/>
     </g>
    </g>
   </g>
   <g id="line2d_25">
    <path d="M 73.012273 37.496364 
L 81.682588 78.073594 
L 90.352904 116.621962 
L 99.023219 153.242912 
L 107.693534 188.032815 
L 116.36385 221.083222 
L 125.034165 211.903879 
L 133.704481 203.183503 
L 142.374796 194.899146 
L 151.045111 187.029007 
L 159.715427 179.552375 
L 168.385742 172.449574 
L 177.056058 165.701914 
L 185.726373 159.291636 
L 194.396688 153.201873 
L 203.067004 147.416597 
L 211.737319 141.920586 
L 220.407635 136.699374 
L 229.07795 131.739224 
L 237.748265 167.604311 
L 246.418581 201.676143 
L 255.088896 234.044384 
L 263.759212 224.216983 
L 272.429527 214.880952 
L 281.099842 206.011723 
L 289.770158 197.585955 
L 298.440473 189.581475 
L 307.110788 181.97722 
L 315.781104 174.753177 
L 324.451419 167.890336 
L 333.121735 161.370638 
L 341.79205 155.176924 
L 350.462365 149.292896 
L 359.132681 143.703069 
L 367.802996 138.392734 
L 376.473312 133.347916 
L 385.143627 169.132568 
L 393.813942 203.127988 
L 402.484258 235.423636 
L 411.154573 225.527273 
L 419.824889 216.125727 
L 428.495204 207.194259 
L 437.165519 198.709364 
L 445.835835 190.648714 
L 454.50615 182.991097 
L 463.176466 175.71636 
L 471.846781 168.80536 
L 480.517096 162.23991 
L 489.187412 156.002733 
L 497.857727 150.077415 
" clip-path="url(#pdd6dc41ed2)" style="fill: none; stroke: #1f77b4; stroke-width: 2; stroke-linecap: square"/>
    <defs>
     <path id="m7b46f238d3" d="M 0 1.5 
C 0.397805 1.5 0.77937 1.341951 1.06066 1.06066 
C 1.341951 0.77937 1.5 0.397805 1.5 0 
C 1.5 -0.397805 1.341951 -0.77937 1.06066 -1.06066 
C 0.77937 -1.341951 0.397805 -1.5 0 -1.5 
C -0.397805 -1.5 -0.77937 -1.341951 -1.06066 -1.06066 
C -1.341951 -0.77937 -1.5 -0.397805 -1.5 0 
C -1.5 0.397805 -1.341951 0.77937 -1.06066 1.06066 
C -0.77937 1.341951 -0.397805 1.5 0 1.5 
z
" style="stroke: #1f77b4"/>
    </defs>
    <g clip-path="url(#pdd6dc41ed2)">
     <use xlink:href="#m7b46f238d3" x="73.012273" y="37.496364" style="fill: #1f77b4; stroke: #1f77b4"/>
     <use xlink:href="#m7b46f238d3" x="81.682588" y="78.073594" style="fill: #1f77b4; stroke: #1f77b4"/>
     <use xlink:href="#m7b46f238d3" x="90.352904" y="116.621962" style="fill: #1f77b4; stroke: #1f77b4"/>
     <use xlink:href="#m7b46f238d3" x="99.023219" y="153.242912" style="fill: #1f77b4; stroke: #1f77b4"/>
     <use xlink:href="#m7b46f238d3" x="107.693534" y="188.032815" style="fill: #1f77b4; stroke: #1f77b4"/>
     <use xlink:href="#m7b46f238d3" x="116.36385" y="221.083222" style="fill: #1f77b4; stroke: #1f77b4"/>
     <use xlink:href="#m7b46f238d3" x="125.034165" y="211.903879" style="fill: #1f77b4; stroke: #1f77b4"/>
     <use xlink:href="#m7b46f238d3" x="133.704481" y="203.183503" style="fill: #1f77b4; stroke: #1f77b4"/>
     <use xlink:href="#m7b46f238d3" x="142.374796" y="194.899146" style="fill: #1f77b4; stroke: #1f77b4"/>
     <use xlink:href="#m7b46f238d3" x="151.045111" y="187.029007" style="fill: #1f77b4; stroke: #1f77b4"/>
     <use xlink:href="#m7b46f238d3" x="159.715427" y="179.552375" style="fill: #1f77b4; stroke: #1f77b4"/>
     <use xlink:href="#m7b46f238d3" x="168.385742" y="172.449574" style="fill: #1f77b4; stroke: #1f77b4"/>
     <use xlink:href="#m7b46f238d3" x="177.056058" y="165.701914" style="fill: #1f77b4; stroke: #1f77b4"/>
     <use xlink:href="#m7b46f238d3" x="185.726373" y="159.291636" style="fill: #1f77b4; stroke: #1f77b4"/>
     <use xlink:href="#m7b46f238d3" x="194.396688" y="153.201873" style="fill: #1f77b4; stroke: #1f77b4"/>
     <use xlink:href="#m7b46f238d3" x="203.067004" y="147.416597" style="fill: #1f77b4; stroke: #1f77b4"/>
     <use xlink:href="#m7b46f238d3" x="211.737319" y="141.920586" style="fill: #1f77b4; stroke: #1f77b4"/>
     <use xlink:href="#m7b46f238d3" x="220.407635" y="136.699374" style="fill: #1f77b4; stroke: #1f77b4"/>
     <use xlink:href="#m7b46f238d3" x="229.07795" y="131.739224" style="fill: #1f77b4; stroke: #1f77b4"/>
     <use xlink:href="#m7b46f238d3" x="237.748265" y="167.604311" style="fill: #1f77b4; stroke: #1f77b4"/>
     <use xlink:href="#m7b46f238d3" x="246.418581" y="201.676143" style="fill: #1f77b4; stroke: #1f77b4"/>
     <use xlink:href="#m7b46f238d3" x="255.088896" y="234.044384" style="fill: #1f77b4; stroke: #1f77b4"/>
     <use xlink:href="#m7b46f238d3" x="263.759212" y="224.216983" style="fill: #1f77b4; stroke: #1f77b4"/>
     <use xlink:href="#m7b46f238d3" x="272.429527" y="214.880952" style="fill: #1f77b4; stroke: #1f77b4"/>
     <use xlink:href="#m7b46f238d3" x="281.099842" y="206.011723" style="fill: #1f77b4; stroke: #1f77b4"/>
     <use xlink:href="#m7b46f238d3" x="289.770158" y="197.585955" style="fill: #1f77b4; stroke: #1f77b4"/>
     <use xlink:href="#m7b46f238d3" x="298.440473" y="189.581475" style="fill: #1f77b4; stroke: #1f77b4"/>
     <use xlink:href="#m7b46f238d3" x="307.110788" y="181.97722" style="fill: #1f77b4; stroke: #1f77b4"/>
     <use xlink:href="#m7b46f238d3" x="315.781104" y="174.753177" style="fill: #1f77b4; stroke: #1f77b4"/>
     <use xlink:href="#m7b46f238d3" x="324.451419" y="167.890336" style="fill: #1f77b4; stroke: #1f77b4"/>
     <use xlink:href="#m7b46f238d3" x="333.121735" y="161.370638" style="fill: #1f77b4; stroke: #1f77b4"/>
     <use xlink:href="#m7b46f238d3" x="341.79205" y="155.176924" style="fill: #1f77b4; stroke: #1f77b4"/>
     <use xlink:href="#m7b46f238d3" x="350.462365" y="149.292896" style="fill: #1f77b4; stroke: #1f77b4"/>
     <use xlink:href="#m7b46f238d3" x="359.132681" y="143.703069" style="fill: #1f77b4; stroke: #1f77b4"/>
     <use xlink:href="#m7b46f238d3" x="367.802996" y="138.392734" style="fill: #1f77b4; stroke: #1f77b4"/>
     <use xlink:href="#m7b46f238d3" x="376.473312" y="133.347916" style="fill: #1f77b4; stroke: #1f77b4"/>
     <use xlink:href="#m7b46f238d3" x="385.143627" y="169.132568" style="fill: #1f77b4; stroke: #1f77b4"/>
     <use xlink:href="#m7b46f238d3" x="393.813942" y="203.127988" style="fill: #1f77b4; stroke: #1f77b4"/>
     <use xlink:href="#m7b46f238d3" x="402.484258" y="235.423636" style="fill: #1f77b4; stroke: #1f77b4"/>
     <use xlink:href="#m7b46f238d3" x="411.154573" y="225.527273" style="fill: #1f77b4; stroke: #1f77b4"/>
     <use xlink:href="#m7b46f238d3" x="419.824889" y="216.125727" style="fill: #1f77b4; stroke: #1f77b4"/>
     <use xlink:href="#m7b46f238d3" x="428.495204" y="207.194259" style="fill: #1f77b4; stroke: #1f77b4"/>
     <use xlink:href="#m7b46f238d3" x="437.165519" y="198.709364" style="fill: #1f77b4; stroke: #1f77b4"/>
     <use xlink:href="#m7b46f238d3" x="445.835835" y="190.648714" style="fill: #1f77b4; stroke: #1f77b4"/>
     <use xlink:href="#m7b46f238d3" x="454.50615" y="182.991097" style="fill: #1f77b4; stroke: #1f77b4"/>
     <use xlink:href="#m7b46f238d3" x="463.176466" y="175.71636" style="fill: #1f77b4; stroke: #1f77b4"/>
     <use xlink:href="#m7b46f238d3" x="471.846781" y="168.80536" style="fill: #1f77b4; stroke: #1f77b4"/>
     <use xlink:href="#m7b46f238d3" x="480.517096" y="162.23991" style="fill: #1f77b4; stroke: #1f77b4"/>
     <use xlink:href="#m7b46f238d3" x="489.187412" y="156.002733" style="fill: #1f77b4; stroke: #1f77b4"/>
     <use xlink:href="#m7b46f238d3" x="497.857727" y="150.077415" style="fill: #1f77b4; stroke: #1f77b4"/>
    </g>
   </g>
   <g id="patch_3">
    <path d="M 51.77 245.32 
L 51.77 27.6 
" style="fill: none; stroke: #000000; stroke-width: 0.8; stroke-linejoin: miter; stroke-linecap: square"/>
   </g>
   <g id="patch_4">
    <path d="M 519.1 245.32 
L 519.1 27.6 
" style="fill: none; stroke: #000000; stroke-width: 0.8; stroke-linejoin: miter; stroke-linecap: square"/>
   </g>
   <g id="patch_5">
    <path d="M 51.77 245.32 
L 519.1 245.32 
" style="fill: none; stroke: #000000; stroke-width: 0.8; stroke-linejoin: miter; stroke-linecap: square"/>
   </g>
   <g id="patch_6">
    <path d="M 51.77 27.6 
L 519.1 27.6 
" style="fill: none; stroke: #000000; stroke-width: 0.8; stroke-linejoin: miter; stroke-linecap: square"/>
   </g>
   <g id="text_15">
    <!-- Bang-Bang Controller w/ External Cooling -->
    <g transform="translate(140.540469 21.6) scale(0.14 -0.14)">
     <defs>
      <path id="DejaVuSans-42" d="M 1259 2228 
L 1259 519 
L 2272 519 
Q 2781 519 3026 730 
Q 3272 941 3272 1375 
Q 3272 1813 3026 2020 
Q 2781 2228 2272 2228 
L 1259 2228 
z
M 1259 4147 
L 1259 2741 
L 2194 2741 
Q 2656 2741 2882 2914 
Q 3109 3088 3109 3444 
Q 3109 3797 2882 3972 
Q 2656 4147 2194 4147 
L 1259 4147 
z
M 628 4666 
L 2241 4666 
Q 2963 4666 3353 4366 
Q 3744 4066 3744 3513 
Q 3744 3084 3544 2831 
Q 3344 2578 2956 2516 
Q 3422 2416 3680 2098 
Q 3938 1781 3938 1306 
Q 3938 681 3513 340 
Q 3088 0 2303 0 
L 628 0 
L 628 4666 
z
" transform="scale(0.015625)"/>
      <path id="DejaVuSans-6e" d="M 3513 2113 
L 3513 0 
L 2938 0 
L 2938 2094 
Q 2938 2591 2744 2837 
Q 2550 3084 2163 3084 
Q 1697 3084 1428 2787 
Q 1159 2491 1159 1978 
L 1159 0 
L 581 0 
L 581 3500 
L 1159 3500 
L 1159 2956 
Q 1366 3272 1645 3428 
Q 1925 3584 2291 3584 
Q 2894 3584 3203 3211 
Q 3513 2838 3513 2113 
z
" transform="scale(0.015625)"/>
      <path id="DejaVuSans-67" d="M 2906 1791 
Q 2906 2416 2648 2759 
Q 2391 3103 1925 3103 
Q 1463 3103 1205 2759 
Q 947 2416 947 1791 
Q 947 1169 1205 825 
Q 1463 481 1925 481 
Q 2391 481 2648 825 
Q 2906 1169 2906 1791 
z
M 3481 434 
Q 3481 -459 3084 -895 
Q 2688 -1331 1869 -1331 
Q 1566 -1331 1297 -1286 
Q 1028 -1241 775 -1147 
L 775 -588 
Q 1028 -725 1275 -790 
Q 1522 -856 1778 -856 
Q 2344 -856 2625 -561 
Q 2906 -266 2906 331 
L 2906 616 
Q 2728 306 2450 153 
Q 2172 0 1784 0 
Q 1141 0 747 490 
Q 353 981 353 1791 
Q 353 2603 747 3093 
Q 1141 3584 1784 3584 
Q 2172 3584 2450 3431 
Q 2728 3278 2906 2969 
L 2906 3500 
L 3481 3500 
L 3481 434 
z
" transform="scale(0.015625)"/>
      <path id="DejaVuSans-2d" d="M 313 2009 
L 1997 2009 
L 1997 1497 
L 313 1497 
L 313 2009 
z
" transform="scale(0.015625)"/>
      <path id="DejaVuSans-43" d="M 4122 4306 
L 4122 3641 
Q 3803 3938 3442 4084 
Q 3081 4231 2675 4231 
Q 1875 4231 1450 3742 
Q 1025 3253 1025 2328 
Q 1025 1406 1450 917 
Q 1875 428 2675 428 
Q 3081 428 3442 575 
Q 3803 722 4122 1019 
L 4122 359 
Q 3791 134 3420 21 
Q 3050 -91 2638 -91 
Q 1578 -91 968 557 
Q 359 1206 359 2328 
Q 359 3453 968 4101 
Q 1578 4750 2638 4750 
Q 3056 4750 3426 4639 
Q 3797 4528 4122 4306 
z
" transform="scale(0.015625)"/>
      <path id="DejaVuSans-6f" d="M 1959 3097 
Q 1497 3097 1228 2736 
Q 959 2375 959 1747 
Q 959 1119 1226 758 
Q 1494 397 1959 397 
Q 2419 397 2687 759 
Q 2956 1122 2956 1747 
Q 2956 2369 2687 2733 
Q 2419 3097 1959 3097 
z
M 1959 3584 
Q 2709 3584 3137 3096 
Q 3566 2609 3566 1747 
Q 3566 888 3137 398 
Q 2709 -91 1959 -91 
Q 1206 -91 779 398 
Q 353 888 353 1747 
Q 353 2609 779 3096 
Q 1206 3584 1959 3584 
z
" transform="scale(0.015625)"/>
      <path id="DejaVuSans-6c" d="M 603 4863 
L 1178 4863 
L 1178 0 
L 603 0 
L 603 4863 
z
" transform="scale(0.015625)"/>
      <path id="DejaVuSans-77" d="M 269 3500 
L 844 3500 
L 1563 769 
L 2278 3500 
L 2956 3500 
L 3675 769 
L 4391 3500 
L 4966 3500 
L 4050 0 
L 3372 0 
L 2619 2869 
L 1863 0 
L 1184 0 
L 269 3500 
z
" transform="scale(0.015625)"/>
      <path id="DejaVuSans-2f" d="M 1625 4666 
L 2156 4666 
L 531 -594 
L 0 -594 
L 1625 4666 
z
" transform="scale(0.015625)"/>
      <path id="DejaVuSans-45" d="M 628 4666 
L 3578 4666 
L 3578 4134 
L 1259 4134 
L 1259 2753 
L 3481 2753 
L 3481 2222 
L 1259 2222 
L 1259 531 
L 3634 531 
L 3634 0 
L 628 0 
L 628 4666 
z
" transform="scale(0.015625)"/>
      <path id="DejaVuSans-78" d="M 3513 3500 
L 2247 1797 
L 3578 0 
L 2900 0 
L 1881 1375 
L 863 0 
L 184 0 
L 1544 1831 
L 300 3500 
L 978 3500 
L 1906 2253 
L 2834 3500 
L 3513 3500 
z
" transform="scale(0.015625)"/>
     </defs>
     <use xlink:href="#DejaVuSans-42"/>
     <use xlink:href="#DejaVuSans-61" x="68.603516"/>
     <use xlink:href="#DejaVuSans-6e" x="129.882812"/>
     <use xlink:href="#DejaVuSans-67" x="193.261719"/>
     <use xlink:href="#DejaVuSans-2d" x="256.738281"/>
     <use xlink:href="#DejaVuSans-42" x="289.197266"/>
     <use xlink:href="#DejaVuSans-61" x="357.800781"/>
     <use xlink:href="#DejaVuSans-6e" x="419.080078"/>
     <use xlink:href="#DejaVuSans-67" x="482.458984"/>
     <use xlink:href="#DejaVuSans-20" x="545.935547"/>
     <use xlink:href="#DejaVuSans-43" x="577.722656"/>
     <use xlink:href="#DejaVuSans-6f" x="647.546875"/>
     <use xlink:href="#DejaVuSans-6e" x="708.728516"/>
     <use xlink:href="#DejaVuSans-74" x="772.107422"/>
     <use xlink:href="#DejaVuSans-72" x="811.316406"/>
     <use xlink:href="#DejaVuSans-6f" x="850.179688"/>
     <use xlink:href="#DejaVuSans-6c" x="911.361328"/>
     <use xlink:href="#DejaVuSans-6c" x="939.144531"/>
     <use xlink:href="#DejaVuSans-65" x="966.927734"/>
     <use xlink:href="#DejaVuSans-72" x="1028.451172"/>
     <use xlink:href="#DejaVuSans-20" x="1069.564453"/>
     <use xlink:href="#DejaVuSans-77" x="1101.351562"/>
     <use xlink:href="#DejaVuSans-2f" x="1183.138672"/>
     <use xlink:href="#DejaVuSans-20" x="1216.830078"/>
     <use xlink:href="#DejaVuSans-45" x="1248.617188"/>
     <use xlink:href="#DejaVuSans-78" x="1311.800781"/>
     <use xlink:href="#DejaVuSans-74" x="1370.980469"/>
     <use xlink:href="#DejaVuSans-65" x="1410.189453"/>
     <use xlink:href="#DejaVuSans-72" x="1471.712891"/>
     <use xlink:href="#DejaVuSans-6e" x="1511.076172"/>
     <use xlink:href="#DejaVuSans-61" x="1574.455078"/>
     <use xlink:href="#DejaVuSans-6c" x="1635.734375"/>
     <use xlink:href="#DejaVuSans-20" x="1663.517578"/>
     <use xlink:href="#DejaVuSans-43" x="1695.304688"/>
     <use xlink:href="#DejaVuSans-6f" x="1765.128906"/>
     <use xlink:href="#DejaVuSans-6f" x="1826.310547"/>
     <use xlink:href="#DejaVuSans-6c" x="1887.492188"/>
     <use xlink:href="#DejaVuSans-69" x="1915.275391"/>
     <use xlink:href="#DejaVuSans-6e" x="1943.058594"/>
     <use xlink:href="#DejaVuSans-67" x="2006.4375"/>
    </g>
   </g>
  </g>
  <g id="axes_2">
   <g id="matplotlib.axis_3">
    <g id="ytick_7">
     <g id="line2d_26">
      <defs>
       <path id="m561737d1e7" d="M 0 0 
L 3.5 0 
" style="stroke: #000000; stroke-width: 0.8"/>
      </defs>
      <g>
       <use xlink:href="#m561737d1e7" x="519.1" y="235.423636" style="stroke: #000000; stroke-width: 0.8"/>
      </g>
     </g>
     <g id="text_16">
      <!-- −1.0 -->
      <g transform="translate(526.1 239.222855) scale(0.1 -0.1)">
       <defs>
        <path id="DejaVuSans-2212" d="M 678 2272 
L 4684 2272 
L 4684 1741 
L 678 1741 
L 678 2272 
z
" transform="scale(0.015625)"/>
        <path id="DejaVuSans-2e" d="M 684 794 
L 1344 794 
L 1344 0 
L 684 0 
L 684 794 
z
" transform="scale(0.015625)"/>
       </defs>
       <use xlink:href="#DejaVuSans-2212"/>
       <use xlink:href="#DejaVuSans-31" x="83.789062"/>
       <use xlink:href="#DejaVuSans-2e" x="147.412109"/>
       <use xlink:href="#DejaVuSans-30" x="179.199219"/>
      </g>
     </g>
    </g>
    <g id="ytick_8">
     <g id="line2d_27">
      <g>
       <use xlink:href="#m561737d1e7" x="519.1" y="195.838182" style="stroke: #000000; stroke-width: 0.8"/>
      </g>
     </g>
     <g id="text_17">
      <!-- −0.8 -->
      <g transform="translate(526.1 199.637401) scale(0.1 -0.1)">
       <use xlink:href="#DejaVuSans-2212"/>
       <use xlink:href="#DejaVuSans-30" x="83.789062"/>
       <use xlink:href="#DejaVuSans-2e" x="147.412109"/>
       <use xlink:href="#DejaVuSans-38" x="179.199219"/>
      </g>
     </g>
    </g>
    <g id="ytick_9">
     <g id="line2d_28">
      <g>
       <use xlink:href="#m561737d1e7" x="519.1" y="156.252727" style="stroke: #000000; stroke-width: 0.8"/>
      </g>
     </g>
     <g id="text_18">
      <!-- −0.6 -->
      <g transform="translate(526.1 160.051946) scale(0.1 -0.1)">
       <defs>
        <path id="DejaVuSans-36" d="M 2113 2584 
Q 1688 2584 1439 2293 
Q 1191 2003 1191 1497 
Q 1191 994 1439 701 
Q 1688 409 2113 409 
Q 2538 409 2786 701 
Q 3034 994 3034 1497 
Q 3034 2003 2786 2293 
Q 2538 2584 2113 2584 
z
M 3366 4563 
L 3366 3988 
Q 3128 4100 2886 4159 
Q 2644 4219 2406 4219 
Q 1781 4219 1451 3797 
Q 1122 3375 1075 2522 
Q 1259 2794 1537 2939 
Q 1816 3084 2150 3084 
Q 2853 3084 3261 2657 
Q 3669 2231 3669 1497 
Q 3669 778 3244 343 
Q 2819 -91 2113 -91 
Q 1303 -91 875 529 
Q 447 1150 447 2328 
Q 447 3434 972 4092 
Q 1497 4750 2381 4750 
Q 2619 4750 2861 4703 
Q 3103 4656 3366 4563 
z
" transform="scale(0.015625)"/>
       </defs>
       <use xlink:href="#DejaVuSans-2212"/>
       <use xlink:href="#DejaVuSans-30" x="83.789062"/>
       <use xlink:href="#DejaVuSans-2e" x="147.412109"/>
       <use xlink:href="#DejaVuSans-36" x="179.199219"/>
      </g>
     </g>
    </g>
    <g id="ytick_10">
     <g id="line2d_29">
      <g>
       <use xlink:href="#m561737d1e7" x="519.1" y="116.667273" style="stroke: #000000; stroke-width: 0.8"/>
      </g>
     </g>
     <g id="text_19">
      <!-- −0.4 -->
      <g transform="translate(526.1 120.466491) scale(0.1 -0.1)">
       <use xlink:href="#DejaVuSans-2212"/>
       <use xlink:href="#DejaVuSans-30" x="83.789062"/>
       <use xlink:href="#DejaVuSans-2e" x="147.412109"/>
       <use xlink:href="#DejaVuSans-34" x="179.199219"/>
      </g>
     </g>
    </g>
    <g id="ytick_11">
     <g id="line2d_30">
      <g>
       <use xlink:href="#m561737d1e7" x="519.1" y="77.081818" style="stroke: #000000; stroke-width: 0.8"/>
      </g>
     </g>
     <g id="text_20">
      <!-- −0.2 -->
      <g transform="translate(526.1 80.881037) scale(0.1 -0.1)">
       <use xlink:href="#DejaVuSans-2212"/>
       <use xlink:href="#DejaVuSans-30" x="83.789062"/>
       <use xlink:href="#DejaVuSans-2e" x="147.412109"/>
       <use xlink:href="#DejaVuSans-32" x="179.199219"/>
      </g>
     </g>
    </g>
    <g id="ytick_12">
     <g id="line2d_31">
      <g>
       <use xlink:href="#m561737d1e7" x="519.1" y="37.496364" style="stroke: #000000; stroke-width: 0.8"/>
      </g>
     </g>
     <g id="text_21">
      <!-- 0.0 -->
      <g transform="translate(526.1 41.295582) scale(0.1 -0.1)">
       <use xlink:href="#DejaVuSans-30"/>
       <use xlink:href="#DejaVuSans-2e" x="63.623047"/>
       <use xlink:href="#DejaVuSans-30" x="95.410156"/>
      </g>
     </g>
    </g>
    <g id="text_22">
     <!-- Heater Drive (A) -->
     <g transform="translate(563.500937 185.448125) rotate(-90) scale(0.12 -0.12)">
      <defs>
       <path id="DejaVuSans-48" d="M 628 4666 
L 1259 4666 
L 1259 2753 
L 3553 2753 
L 3553 4666 
L 4184 4666 
L 4184 0 
L 3553 0 
L 3553 2222 
L 1259 2222 
L 1259 0 
L 628 0 
L 628 4666 
z
" transform="scale(0.015625)"/>
       <path id="DejaVuSans-44" d="M 1259 4147 
L 1259 519 
L 2022 519 
Q 2988 519 3436 956 
Q 3884 1394 3884 2338 
Q 3884 3275 3436 3711 
Q 2988 4147 2022 4147 
L 1259 4147 
z
M 628 4666 
L 1925 4666 
Q 3281 4666 3915 4102 
Q 4550 3538 4550 2338 
Q 4550 1131 3912 565 
Q 3275 0 1925 0 
L 628 0 
L 628 4666 
z
" transform="scale(0.015625)"/>
       <path id="DejaVuSans-76" d="M 191 3500 
L 800 3500 
L 1894 563 
L 2988 3500 
L 3597 3500 
L 2284 0 
L 1503 0 
L 191 3500 
z
" transform="scale(0.015625)"/>
       <path id="DejaVuSans-41" d="M 2188 4044 
L 1331 1722 
L 3047 1722 
L 2188 4044 
z
M 1831 4666 
L 2547 4666 
L 4325 0 
L 3669 0 
L 3244 1197 
L 1141 1197 
L 716 0 
L 50 0 
L 1831 4666 
z
" transform="scale(0.015625)"/>
      </defs>
      <use xlink:href="#DejaVuSans-48"/>
      <use xlink:href="#DejaVuSans-65" x="75.195312"/>
      <use xlink:href="#DejaVuSans-61" x="136.71875"/>
      <use xlink:href="#DejaVuSans-74" x="197.998047"/>
      <use xlink:href="#DejaVuSans-65" x="237.207031"/>
      <use xlink:href="#DejaVuSans-72" x="298.730469"/>
      <use xlink:href="#DejaVuSans-20" x="339.84375"/>
      <use xlink:href="#DejaVuSans-44" x="371.630859"/>
      <use xlink:href="#DejaVuSans-72" x="448.632812"/>
      <use xlink:href="#DejaVuSans-69" x="489.746094"/>
      <use xlink:href="#DejaVuSans-76" x="517.529297"/>
      <use xlink:href="#DejaVuSans-65" x="576.708984"/>
      <use xlink:href="#DejaVuSans-20" x="638.232422"/>
      <use xlink:href="#DejaVuSans-28" x="670.019531"/>
      <use xlink:href="#DejaVuSans-41" x="709.033203"/>
      <use xlink:href="#DejaVuSans-29" x="777.441406"/>
     </g>
    </g>
   </g>
   <g id="line2d_32">
    <path d="M 73.012273 235.423636 
L 81.682588 235.423636 
L 90.352904 235.423636 
L 99.023219 235.423636 
L 107.693534 235.423636 
L 116.36385 37.496364 
L 125.034165 37.496364 
L 133.704481 37.496364 
L 142.374796 37.496364 
L 151.045111 37.496364 
L 159.715427 37.496364 
L 168.385742 37.496364 
L 177.056058 37.496364 
L 185.726373 37.496364 
L 194.396688 37.496364 
L 203.067004 37.496364 
L 211.737319 37.496364 
L 220.407635 37.496364 
L 229.07795 235.423636 
L 237.748265 235.423636 
L 246.418581 235.423636 
L 255.088896 37.496364 
L 263.759212 37.496364 
L 272.429527 37.496364 
L 281.099842 37.496364 
L 289.770158 37.496364 
L 298.440473 37.496364 
L 307.110788 37.496364 
L 315.781104 37.496364 
L 324.451419 37.496364 
L 333.121735 37.496364 
L 341.79205 37.496364 
L 350.462365 37.496364 
L 359.132681 37.496364 
L 367.802996 37.496364 
L 376.473312 235.423636 
L 385.143627 235.423636 
L 393.813942 235.423636 
L 402.484258 37.496364 
L 411.154573 37.496364 
L 419.824889 37.496364 
L 428.495204 37.496364 
L 437.165519 37.496364 
L 445.835835 37.496364 
L 454.50615 37.496364 
L 463.176466 37.496364 
L 471.846781 37.496364 
L 480.517096 37.496364 
L 489.187412 37.496364 
L 497.857727 37.496364 
" clip-path="url(#pdd6dc41ed2)" style="fill: none; stroke: #ff0000; stroke-width: 2; stroke-linecap: square"/>
    <defs>
     <path id="m3321e558b0" d="M 0 1.5 
C 0.397805 1.5 0.77937 1.341951 1.06066 1.06066 
C 1.341951 0.77937 1.5 0.397805 1.5 0 
C 1.5 -0.397805 1.341951 -0.77937 1.06066 -1.06066 
C 0.77937 -1.341951 0.397805 -1.5 0 -1.5 
C -0.397805 -1.5 -0.77937 -1.341951 -1.06066 -1.06066 
C -1.341951 -0.77937 -1.5 -0.397805 -1.5 0 
C -1.5 0.397805 -1.341951 0.77937 -1.06066 1.06066 
C -0.77937 1.341951 -0.397805 1.5 0 1.5 
z
" style="stroke: #ff0000"/>
    </defs>
    <g clip-path="url(#pdd6dc41ed2)">
     <use xlink:href="#m3321e558b0" x="73.012273" y="235.423636" style="fill: #ff0000; stroke: #ff0000"/>
     <use xlink:href="#m3321e558b0" x="81.682588" y="235.423636" style="fill: #ff0000; stroke: #ff0000"/>
     <use xlink:href="#m3321e558b0" x="90.352904" y="235.423636" style="fill: #ff0000; stroke: #ff0000"/>
     <use xlink:href="#m3321e558b0" x="99.023219" y="235.423636" style="fill: #ff0000; stroke: #ff0000"/>
     <use xlink:href="#m3321e558b0" x="107.693534" y="235.423636" style="fill: #ff0000; stroke: #ff0000"/>
     <use xlink:href="#m3321e558b0" x="116.36385" y="37.496364" style="fill: #ff0000; stroke: #ff0000"/>
     <use xlink:href="#m3321e558b0" x="125.034165" y="37.496364" style="fill: #ff0000; stroke: #ff0000"/>
     <use xlink:href="#m3321e558b0" x="133.704481" y="37.496364" style="fill: #ff0000; stroke: #ff0000"/>
     <use xlink:href="#m3321e558b0" x="142.374796" y="37.496364" style="fill: #ff0000; stroke: #ff0000"/>
     <use xlink:href="#m3321e558b0" x="151.045111" y="37.496364" style="fill: #ff0000; stroke: #ff0000"/>
     <use xlink:href="#m3321e558b0" x="159.715427" y="37.496364" style="fill: #ff0000; stroke: #ff0000"/>
     <use xlink:href="#m3321e558b0" x="168.385742" y="37.496364" style="fill: #ff0000; stroke: #ff0000"/>
     <use xlink:href="#m3321e558b0" x="177.056058" y="37.496364" style="fill: #ff0000; stroke: #ff0000"/>
     <use xlink:href="#m3321e558b0" x="185.726373" y="37.496364" style="fill: #ff0000; stroke: #ff0000"/>
     <use xlink:href="#m3321e558b0" x="194.396688" y="37.496364" style="fill: #ff0000; stroke: #ff0000"/>
     <use xlink:href="#m3321e558b0" x="203.067004" y="37.496364" style="fill: #ff0000; stroke: #ff0000"/>
     <use xlink:href="#m3321e558b0" x="211.737319" y="37.496364" style="fill: #ff0000; stroke: #ff0000"/>
     <use xlink:href="#m3321e558b0" x="220.407635" y="37.496364" style="fill: #ff0000; stroke: #ff0000"/>
     <use xlink:href="#m3321e558b0" x="229.07795" y="235.423636" style="fill: #ff0000; stroke: #ff0000"/>
     <use xlink:href="#m3321e558b0" x="237.748265" y="235.423636" style="fill: #ff0000; stroke: #ff0000"/>
     <use xlink:href="#m3321e558b0" x="246.418581" y="235.423636" style="fill: #ff0000; stroke: #ff0000"/>
     <use xlink:href="#m3321e558b0" x="255.088896" y="37.496364" style="fill: #ff0000; stroke: #ff0000"/>
     <use xlink:href="#m3321e558b0" x="263.759212" y="37.496364" style="fill: #ff0000; stroke: #ff0000"/>
     <use xlink:href="#m3321e558b0" x="272.429527" y="37.496364" style="fill: #ff0000; stroke: #ff0000"/>
     <use xlink:href="#m3321e558b0" x="281.099842" y="37.496364" style="fill: #ff0000; stroke: #ff0000"/>
     <use xlink:href="#m3321e558b0" x="289.770158" y="37.496364" style="fill: #ff0000; stroke: #ff0000"/>
     <use xlink:href="#m3321e558b0" x="298.440473" y="37.496364" style="fill: #ff0000; stroke: #ff0000"/>
     <use xlink:href="#m3321e558b0" x="307.110788" y="37.496364" style="fill: #ff0000; stroke: #ff0000"/>
     <use xlink:href="#m3321e558b0" x="315.781104" y="37.496364" style="fill: #ff0000; stroke: #ff0000"/>
     <use xlink:href="#m3321e558b0" x="324.451419" y="37.496364" style="fill: #ff0000; stroke: #ff0000"/>
     <use xlink:href="#m3321e558b0" x="333.121735" y="37.496364" style="fill: #ff0000; stroke: #ff0000"/>
     <use xlink:href="#m3321e558b0" x="341.79205" y="37.496364" style="fill: #ff0000; stroke: #ff0000"/>
     <use xlink:href="#m3321e558b0" x="350.462365" y="37.496364" style="fill: #ff0000; stroke: #ff0000"/>
     <use xlink:href="#m3321e558b0" x="359.132681" y="37.496364" style="fill: #ff0000; stroke: #ff0000"/>
     <use xlink:href="#m3321e558b0" x="367.802996" y="37.496364" style="fill: #ff0000; stroke: #ff0000"/>
     <use xlink:href="#m3321e558b0" x="376.473312" y="235.423636" style="fill: #ff0000; stroke: #ff0000"/>
     <use xlink:href="#m3321e558b0" x="385.143627" y="235.423636" style="fill: #ff0000; stroke: #ff0000"/>
     <use xlink:href="#m3321e558b0" x="393.813942" y="235.423636" style="fill: #ff0000; stroke: #ff0000"/>
     <use xlink:href="#m3321e558b0" x="402.484258" y="37.496364" style="fill: #ff0000; stroke: #ff0000"/>
     <use xlink:href="#m3321e558b0" x="411.154573" y="37.496364" style="fill: #ff0000; stroke: #ff0000"/>
     <use xlink:href="#m3321e558b0" x="419.824889" y="37.496364" style="fill: #ff0000; stroke: #ff0000"/>
     <use xlink:href="#m3321e558b0" x="428.495204" y="37.496364" style="fill: #ff0000; stroke: #ff0000"/>
     <use xlink:href="#m3321e558b0" x="437.165519" y="37.496364" style="fill: #ff0000; stroke: #ff0000"/>
     <use xlink:href="#m3321e558b0" x="445.835835" y="37.496364" style="fill: #ff0000; stroke: #ff0000"/>
     <use xlink:href="#m3321e558b0" x="454.50615" y="37.496364" style="fill: #ff0000; stroke: #ff0000"/>
     <use xlink:href="#m3321e558b0" x="463.176466" y="37.496364" style="fill: #ff0000; stroke: #ff0000"/>
     <use xlink:href="#m3321e558b0" x="471.846781" y="37.496364" style="fill: #ff0000; stroke: #ff0000"/>
     <use xlink:href="#m3321e558b0" x="480.517096" y="37.496364" style="fill: #ff0000; stroke: #ff0000"/>
     <use xlink:href="#m3321e558b0" x="489.187412" y="37.496364" style="fill: #ff0000; stroke: #ff0000"/>
     <use xlink:href="#m3321e558b0" x="497.857727" y="37.496364" style="fill: #ff0000; stroke: #ff0000"/>
    </g>
   </g>
   <g id="patch_7">
    <path d="M 51.77 245.32 
L 51.77 27.6 
" style="fill: none; stroke: #000000; stroke-width: 0.8; stroke-linejoin: miter; stroke-linecap: square"/>
   </g>
   <g id="patch_8">
    <path d="M 519.1 245.32 
L 519.1 27.6 
" style="fill: none; stroke: #000000; stroke-width: 0.8; stroke-linejoin: miter; stroke-linecap: square"/>
   </g>
   <g id="patch_9">
    <path d="M 51.77 245.32 
L 519.1 245.32 
" style="fill: none; stroke: #000000; stroke-width: 0.8; stroke-linejoin: miter; stroke-linecap: square"/>
   </g>
   <g id="patch_10">
    <path d="M 51.77 27.6 
L 519.1 27.6 
" style="fill: none; stroke: #000000; stroke-width: 0.8; stroke-linejoin: miter; stroke-linecap: square"/>
   </g>
  </g>
 </g>
 <defs>
  <clipPath id="pdd6dc41ed2">
   <rect x="51.77" y="27.6" width="467.33" height="217.72"/>
  </clipPath>
 </defs>
</svg>
