<?xml version="1.0" encoding="utf-8" standalone="no"?>
<!DOCTYPE svg PUBLIC "-//W3C//DTD SVG 1.1//EN"
  "http://www.w3.org/Graphics/SVG/1.1/DTD/svg11.dtd">
<svg xmlns:xlink="http://www.w3.org/1999/xlink" width="576pt" height="288pt" viewBox="0 0 576 288" xmlns="http://www.w3.org/2000/svg" version="1.1">
 <metadata>
  <rdf:RDF xmlns:dc="http://purl.org/dc/elements/1.1/" xmlns:cc="http://creativecommons.org/ns#" xmlns:rdf="http://www.w3.org/1999/02/22-rdf-syntax-ns#">
   <cc:Work>
    <dc:type rdf:resource="http://purl.org/dc/dcmitype/StillImage"/>
    <dc:date>2025-10-02T19:48:15.734537</dc:date>
    <dc:format>image/svg+xml</dc:format>
    <dc:creator>
     <cc:Agent>
      <dc:title>Matplotlib v3.9.2, https://matplotlib.org/</dc:title>
     </cc:Agent>
    </dc:creator>
   </cc:Work>
  </rdf:RDF>
 </metadata>
 <defs>
  <style type="text/css">*{stroke-linejoin: round; stroke-linecap: butt}</style>
 </defs>
 <g id="figure_1">
  <g id="patch_1">
   <path d="M 0 288 
L 576 288 
L 576 0 
L 0 0 
z
" style="fill: #ffffff"/>
  </g>
  <g id="axes_1">
   <g id="patch_2">
    <path d="M 51.77 245.32 
L 565.2 245.32 
L 565.2 29.04 
L 51.77 29.04 
z
" style="fill: #ffffff"/>
   </g>
   <g id="matplotlib.axis_1">
    <g id="xtick_1">
     <g id="line2d_1">
      <path d="M 75.107727 245.32 
L 75.107727 29.04 
" clip-path="url(#p1d1e2efad8)" style="fill: none; stroke-dasharray: 0.8,1.32; stroke-dashoffset: 0; stroke: #b0b0b0; stroke-opacity: 0.7; stroke-width: 0.8"/>
     </g>
     <g id="line2d_2">
      <defs>
       <path id="m9de22eb607" d="M 0 0 
L 0 3.5 
" style="stroke: #000000; stroke-width: 0.8"/>
      </defs>
      <g>
       <use xlink:href="#m9de22eb607" x="75.107727" y="245.32" style="stroke: #000000; stroke-width: 0.8"/>
      </g>
     </g>
     <g id="text_1">
      <!-- 0 -->
      <g transform="translate(71.926477 259.918437) scale(0.1 -0.1)">
       <defs>
        <path id="DejaVuSans-30" d="M 2034 4250 
Q 1547 4250 1301 3770 
Q 1056 3291 1056 2328 
Q 1056 1369 1301 889 
Q 1547 409 2034 409 
Q 2525 409 2770 889 
Q 3016 1369 3016 2328 
Q 3016 3291 2770 3770 
Q 2525 4250 2034 4250 
z
M 2034 4750 
Q 2819 4750 3233 4129 
Q 3647 3509 3647 2328 
Q 3647 1150 3233 529 
Q 2819 -91 2034 -91 
Q 1250 -91 836 529 
Q 422 1150 422 2328 
Q 422 3509 836 4129 
Q 1250 4750 2034 4750 
z
" transform="scale(0.015625)"/>
       </defs>
       <use xlink:href="#DejaVuSans-30"/>
      </g>
     </g>
    </g>
    <g id="xtick_2">
     <g id="line2d_3">
      <path d="M 168.458636 245.32 
L 168.458636 29.04 
" clip-path="url(#p1d1e2efad8)" style="fill: none; stroke-dasharray: 0.8,1.32; stroke-dashoffset: 0; stroke: #b0b0b0; stroke-opacity: 0.7; stroke-width: 0.8"/>
     </g>
     <g id="line2d_4">
      <g>
       <use xlink:href="#m9de22eb607" x="168.458636" y="245.32" style="stroke: #000000; stroke-width: 0.8"/>
      </g>
     </g>
     <g id="text_2">
      <!-- 10 -->
      <g transform="translate(162.096136 259.918437) scale(0.1 -0.1)">
       <defs>
        <path id="DejaVuSans-31" d="M 794 531 
L 1825 531 
L 1825 4091 
L 703 3866 
L 703 4441 
L 1819 4666 
L 2450 4666 
L 2450 531 
L 3481 531 
L 3481 0 
L 794 0 
L 794 531 
z
" transform="scale(0.015625)"/>
       </defs>
       <use xlink:href="#DejaVuSans-31"/>
       <use xlink:href="#DejaVuSans-30" x="63.623047"/>
      </g>
     </g>
    </g>
    <g id="xtick_3">
     <g id="line2d_5">
      <path d="M 261.809545 245.32 
L 261.809545 29.04 
" clip-path="url(#p1d1e2efad8)" style="fill: none; stroke-dasharray: 0.8,1.32; stroke-dashoffset: 0; stroke: #b0b0b0; stroke-opacity: 0.7; stroke-width: 0.8"/>
     </g>
     <g id="line2d_6">
      <g>
       <use xlink:href="#m9de22eb607" x="261.809545" y="245.32" style="stroke: #000000; stroke-width: 0.8"/>
      </g>
     </g>
     <g id="text_3">
      <!-- 20 -->
      <g transform="translate(255.447045 259.918437) scale(0.1 -0.1)">
       <defs>
        <path id="DejaVuSans-32" d="M 1228 531 
L 3431 531 
L 3431 0 
L 469 0 
L 469 531 
Q 828 903 1448 1529 
Q 2069 2156 2228 2338 
Q 2531 2678 2651 2914 
Q 2772 3150 2772 3378 
Q 2772 3750 2511 3984 
Q 2250 4219 1831 4219 
Q 1534 4219 1204 4116 
Q 875 4013 500 3803 
L 500 4441 
Q 881 4594 1212 4672 
Q 1544 4750 1819 4750 
Q 2544 4750 2975 4387 
Q 3406 4025 3406 3419 
Q 3406 3131 3298 2873 
Q 3191 2616 2906 2266 
Q 2828 2175 2409 1742 
Q 1991 1309 1228 531 
z
" transform="scale(0.015625)"/>
       </defs>
       <use xlink:href="#DejaVuSans-32"/>
       <use xlink:href="#DejaVuSans-30" x="63.623047"/>
      </g>
     </g>
    </g>
    <g id="xtick_4">
     <g id="line2d_7">
      <path d="M 355.160455 245.32 
L 355.160455 29.04 
" clip-path="url(#p1d1e2efad8)" style="fill: none; stroke-dasharray: 0.8,1.32; stroke-dashoffset: 0; stroke: #b0b0b0; stroke-opacity: 0.7; stroke-width: 0.8"/>
     </g>
     <g id="line2d_8">
      <g>
       <use xlink:href="#m9de22eb607" x="355.160455" y="245.32" style="stroke: #000000; stroke-width: 0.8"/>
      </g>
     </g>
     <g id="text_4">
      <!-- 30 -->
      <g transform="translate(348.797955 259.918437) scale(0.1 -0.1)">
       <defs>
        <path id="DejaVuSans-33" d="M 2597 2516 
Q 3050 2419 3304 2112 
Q 3559 1806 3559 1356 
Q 3559 666 3084 287 
Q 2609 -91 1734 -91 
Q 1441 -91 1130 -33 
Q 819 25 488 141 
L 488 750 
Q 750 597 1062 519 
Q 1375 441 1716 441 
Q 2309 441 2620 675 
Q 2931 909 2931 1356 
Q 2931 1769 2642 2001 
Q 2353 2234 1838 2234 
L 1294 2234 
L 1294 2753 
L 1863 2753 
Q 2328 2753 2575 2939 
Q 2822 3125 2822 3475 
Q 2822 3834 2567 4026 
Q 2313 4219 1838 4219 
Q 1578 4219 1281 4162 
Q 984 4106 628 3988 
L 628 4550 
Q 988 4650 1302 4700 
Q 1616 4750 1894 4750 
Q 2613 4750 3031 4423 
Q 3450 4097 3450 3541 
Q 3450 3153 3228 2886 
Q 3006 2619 2597 2516 
z
" transform="scale(0.015625)"/>
       </defs>
       <use xlink:href="#DejaVuSans-33"/>
       <use xlink:href="#DejaVuSans-30" x="63.623047"/>
      </g>
     </g>
    </g>
    <g id="xtick_5">
     <g id="line2d_9">
      <path d="M 448.511364 245.32 
L 448.511364 29.04 
" clip-path="url(#p1d1e2efad8)" style="fill: none; stroke-dasharray: 0.8,1.32; stroke-dashoffset: 0; stroke: #b0b0b0; stroke-opacity: 0.7; stroke-width: 0.8"/>
     </g>
     <g id="line2d_10">
      <g>
       <use xlink:href="#m9de22eb607" x="448.511364" y="245.32" style="stroke: #000000; stroke-width: 0.8"/>
      </g>
     </g>
     <g id="text_5">
      <!-- 40 -->
      <g transform="translate(442.148864 259.918437) scale(0.1 -0.1)">
       <defs>
        <path id="DejaVuSans-34" d="M 2419 4116 
L 825 1625 
L 2419 1625 
L 2419 4116 
z
M 2253 4666 
L 3047 4666 
L 3047 1625 
L 3713 1625 
L 3713 1100 
L 3047 1100 
L 3047 0 
L 2419 0 
L 2419 1100 
L 313 1100 
L 313 1709 
L 2253 4666 
z
" transform="scale(0.015625)"/>
       </defs>
       <use xlink:href="#DejaVuSans-34"/>
       <use xlink:href="#DejaVuSans-30" x="63.623047"/>
      </g>
     </g>
    </g>
    <g id="xtick_6">
     <g id="line2d_11">
      <path d="M 541.862273 245.32 
L 541.862273 29.04 
" clip-path="url(#p1d1e2efad8)" style="fill: none; stroke-dasharray: 0.8,1.32; stroke-dashoffset: 0; stroke: #b0b0b0; stroke-opacity: 0.7; stroke-width: 0.8"/>
     </g>
     <g id="line2d_12">
      <g>
       <use xlink:href="#m9de22eb607" x="541.862273" y="245.32" style="stroke: #000000; stroke-width: 0.8"/>
      </g>
     </g>
     <g id="text_6">
      <!-- 50 -->
      <g transform="translate(535.499773 259.918437) scale(0.1 -0.1)">
       <defs>
        <path id="DejaVuSans-35" d="M 691 4666 
L 3169 4666 
L 3169 4134 
L 1269 4134 
L 1269 2991 
Q 1406 3038 1543 3061 
Q 1681 3084 1819 3084 
Q 2600 3084 3056 2656 
Q 3513 2228 3513 1497 
Q 3513 744 3044 326 
Q 2575 -91 1722 -91 
Q 1428 -91 1123 -41 
Q 819 9 494 109 
L 494 744 
Q 775 591 1075 516 
Q 1375 441 1709 441 
Q 2250 441 2565 725 
Q 2881 1009 2881 1497 
Q 2881 1984 2565 2268 
Q 2250 2553 1709 2553 
Q 1456 2553 1204 2497 
Q 953 2441 691 2322 
L 691 4666 
z
" transform="scale(0.015625)"/>
       </defs>
       <use xlink:href="#DejaVuSans-35"/>
       <use xlink:href="#DejaVuSans-30" x="63.623047"/>
      </g>
     </g>
    </g>
    <g id="text_7">
     <!-- Time (s) -->
     <g transform="translate(284.090313 275.11625) scale(0.12 -0.12)">
      <defs>
       <path id="DejaVuSans-54" d="M -19 4666 
L 3928 4666 
L 3928 4134 
L 2272 4134 
L 2272 0 
L 1638 0 
L 1638 4134 
L -19 4134 
L -19 4666 
z
" transform="scale(0.015625)"/>
       <path id="DejaVuSans-69" d="M 603 3500 
L 1178 3500 
L 1178 0 
L 603 0 
L 603 3500 
z
M 603 4863 
L 1178 4863 
L 1178 4134 
L 603 4134 
L 603 4863 
z
" transform="scale(0.015625)"/>
       <path id="DejaVuSans-6d" d="M 3328 2828 
Q 3544 3216 3844 3400 
Q 4144 3584 4550 3584 
Q 5097 3584 5394 3201 
Q 5691 2819 5691 2113 
L 5691 0 
L 5113 0 
L 5113 2094 
Q 5113 2597 4934 2840 
Q 4756 3084 4391 3084 
Q 3944 3084 3684 2787 
Q 3425 2491 3425 1978 
L 3425 0 
L 2847 0 
L 2847 2094 
Q 2847 2600 2669 2842 
Q 2491 3084 2119 3084 
Q 1678 3084 1418 2786 
Q 1159 2488 1159 1978 
L 1159 0 
L 581 0 
L 581 3500 
L 1159 3500 
L 1159 2956 
Q 1356 3278 1631 3431 
Q 1906 3584 2284 3584 
Q 2666 3584 2933 3390 
Q 3200 3197 3328 2828 
z
" transform="scale(0.015625)"/>
       <path id="DejaVuSans-65" d="M 3597 1894 
L 3597 1613 
L 953 1613 
Q 991 1019 1311 708 
Q 1631 397 2203 397 
Q 2534 397 2845 478 
Q 3156 559 3463 722 
L 3463 178 
Q 3153 47 2828 -22 
Q 2503 -91 2169 -91 
Q 1331 -91 842 396 
Q 353 884 353 1716 
Q 353 2575 817 3079 
Q 1281 3584 2069 3584 
Q 2775 3584 3186 3129 
Q 3597 2675 3597 1894 
z
M 3022 2063 
Q 3016 2534 2758 2815 
Q 2500 3097 2075 3097 
Q 1594 3097 1305 2825 
Q 1016 2553 972 2059 
L 3022 2063 
z
" transform="scale(0.015625)"/>
       <path id="DejaVuSans-20" transform="scale(0.015625)"/>
       <path id="DejaVuSans-28" d="M 1984 4856 
Q 1566 4138 1362 3434 
Q 1159 2731 1159 2009 
Q 1159 1288 1364 580 
Q 1569 -128 1984 -844 
L 1484 -844 
Q 1016 -109 783 600 
Q 550 1309 550 2009 
Q 550 2706 781 3412 
Q 1013 4119 1484 4856 
L 1984 4856 
z
" transform="scale(0.015625)"/>
       <path id="DejaVuSans-73" d="M 2834 3397 
L 2834 2853 
Q 2591 2978 2328 3040 
Q 2066 3103 1784 3103 
Q 1356 3103 1142 2972 
Q 928 2841 928 2578 
Q 928 2378 1081 2264 
Q 1234 2150 1697 2047 
L 1894 2003 
Q 2506 1872 2764 1633 
Q 3022 1394 3022 966 
Q 3022 478 2636 193 
Q 2250 -91 1575 -91 
Q 1294 -91 989 -36 
Q 684 19 347 128 
L 347 722 
Q 666 556 975 473 
Q 1284 391 1588 391 
Q 1994 391 2212 530 
Q 2431 669 2431 922 
Q 2431 1156 2273 1281 
Q 2116 1406 1581 1522 
L 1381 1569 
Q 847 1681 609 1914 
Q 372 2147 372 2553 
Q 372 3047 722 3315 
Q 1072 3584 1716 3584 
Q 2034 3584 2315 3537 
Q 2597 3491 2834 3397 
z
" transform="scale(0.015625)"/>
       <path id="DejaVuSans-29" d="M 513 4856 
L 1013 4856 
Q 1481 4119 1714 3412 
Q 1947 2706 1947 2009 
Q 1947 1309 1714 600 
Q 1481 -109 1013 -844 
L 513 -844 
Q 928 -128 1133 580 
Q 1338 1288 1338 2009 
Q 1338 2731 1133 3434 
Q 928 4138 513 4856 
z
" transform="scale(0.015625)"/>
      </defs>
      <use xlink:href="#DejaVuSans-54"/>
      <use xlink:href="#DejaVuSans-69" x="57.958984"/>
      <use xlink:href="#DejaVuSans-6d" x="85.742188"/>
      <use xlink:href="#DejaVuSans-65" x="183.154297"/>
      <use xlink:href="#DejaVuSans-20" x="244.677734"/>
      <use xlink:href="#DejaVuSans-28" x="276.464844"/>
      <use xlink:href="#DejaVuSans-73" x="315.478516"/>
      <use xlink:href="#DejaVuSans-29" x="367.578125"/>
     </g>
    </g>
   </g>
   <g id="matplotlib.axis_2">
    <g id="ytick_1">
     <g id="line2d_13">
      <path d="M 51.77 245.32 
L 565.2 245.32 
" clip-path="url(#p1d1e2efad8)" style="fill: none; stroke-dasharray: 0.8,1.32; stroke-dashoffset: 0; stroke: #b0b0b0; stroke-opacity: 0.7; stroke-width: 0.8"/>
     </g>
     <g id="line2d_14">
      <defs>
       <path id="m8f12f3f42e" d="M 0 0 
L -3.5 0 
" style="stroke: #000000; stroke-width: 0.8"/>
      </defs>
      <g>
       <use xlink:href="#m8f12f3f42e" x="51.77" y="245.32" style="stroke: #000000; stroke-width: 0.8"/>
      </g>
     </g>
     <g id="text_8">
      <!-- 290 -->
      <g transform="translate(25.6825 249.119219) scale(0.1 -0.1)">
       <defs>
        <path id="DejaVuSans-39" d="M 703 97 
L 703 672 
Q 941 559 1184 500 
Q 1428 441 1663 441 
Q 2288 441 2617 861 
Q 2947 1281 2994 2138 
Q 2813 1869 2534 1725 
Q 2256 1581 1919 1581 
Q 1219 1581 811 2004 
Q 403 2428 403 3163 
Q 403 3881 828 4315 
Q 1253 4750 1959 4750 
Q 2769 4750 3195 4129 
Q 3622 3509 3622 2328 
Q 3622 1225 3098 567 
Q 2575 -91 1691 -91 
Q 1453 -91 1209 -44 
Q 966 3 703 97 
z
M 1959 2075 
Q 2384 2075 2632 2365 
Q 2881 2656 2881 3163 
Q 2881 3666 2632 3958 
Q 2384 4250 1959 4250 
Q 1534 4250 1286 3958 
Q 1038 3666 1038 3163 
Q 1038 2656 1286 2365 
Q 1534 2075 1959 2075 
z
" transform="scale(0.015625)"/>
       </defs>
       <use xlink:href="#DejaVuSans-32"/>
       <use xlink:href="#DejaVuSans-39" x="63.623047"/>
       <use xlink:href="#DejaVuSans-30" x="127.246094"/>
      </g>
     </g>
    </g>
    <g id="ytick_2">
     <g id="line2d_15">
      <path d="M 51.77 216.482667 
L 565.2 216.482667 
" clip-path="url(#p1d1e2efad8)" style="fill: none; stroke-dasharray: 0.8,1.32; stroke-dashoffset: 0; stroke: #b0b0b0; stroke-opacity: 0.7; stroke-width: 0.8"/>
     </g>
     <g id="line2d_16">
      <g>
       <use xlink:href="#m8f12f3f42e" x="51.77" y="216.482667" style="stroke: #000000; stroke-width: 0.8"/>
      </g>
     </g>
     <g id="text_9">
      <!-- 292 -->
      <g transform="translate(25.6825 220.281885) scale(0.1 -0.1)">
       <use xlink:href="#DejaVuSans-32"/>
       <use xlink:href="#DejaVuSans-39" x="63.623047"/>
       <use xlink:href="#DejaVuSans-32" x="127.246094"/>
      </g>
     </g>
    </g>
    <g id="ytick_3">
     <g id="line2d_17">
      <path d="M 51.77 187.645333 
L 565.2 187.645333 
" clip-path="url(#p1d1e2efad8)" style="fill: none; stroke-dasharray: 0.8,1.32; stroke-dashoffset: 0; stroke: #b0b0b0; stroke-opacity: 0.7; stroke-width: 0.8"/>
     </g>
     <g id="line2d_18">
      <g>
       <use xlink:href="#m8f12f3f42e" x="51.77" y="187.645333" style="stroke: #000000; stroke-width: 0.8"/>
      </g>
     </g>
     <g id="text_10">
      <!-- 294 -->
      <g transform="translate(25.6825 191.444552) scale(0.1 -0.1)">
       <use xlink:href="#DejaVuSans-32"/>
       <use xlink:href="#DejaVuSans-39" x="63.623047"/>
       <use xlink:href="#DejaVuSans-34" x="127.246094"/>
      </g>
     </g>
    </g>
    <g id="ytick_4">
     <g id="line2d_19">
      <path d="M 51.77 158.808 
L 565.2 158.808 
" clip-path="url(#p1d1e2efad8)" style="fill: none; stroke-dasharray: 0.8,1.32; stroke-dashoffset: 0; stroke: #b0b0b0; stroke-opacity: 0.7; stroke-width: 0.8"/>
     </g>
     <g id="line2d_20">
      <g>
       <use xlink:href="#m8f12f3f42e" x="51.77" y="158.808" style="stroke: #000000; stroke-width: 0.8"/>
      </g>
     </g>
     <g id="text_11">
      <!-- 296 -->
      <g transform="translate(25.6825 162.607219) scale(0.1 -0.1)">
       <defs>
        <path id="DejaVuSans-36" d="M 2113 2584 
Q 1688 2584 1439 2293 
Q 1191 2003 1191 1497 
Q 1191 994 1439 701 
Q 1688 409 2113 409 
Q 2538 409 2786 701 
Q 3034 994 3034 1497 
Q 3034 2003 2786 2293 
Q 2538 2584 2113 2584 
z
M 3366 4563 
L 3366 3988 
Q 3128 4100 2886 4159 
Q 2644 4219 2406 4219 
Q 1781 4219 1451 3797 
Q 1122 3375 1075 2522 
Q 1259 2794 1537 2939 
Q 1816 3084 2150 3084 
Q 2853 3084 3261 2657 
Q 3669 2231 3669 1497 
Q 3669 778 3244 343 
Q 2819 -91 2113 -91 
Q 1303 -91 875 529 
Q 447 1150 447 2328 
Q 447 3434 972 4092 
Q 1497 4750 2381 4750 
Q 2619 4750 2861 4703 
Q 3103 4656 3366 4563 
z
" transform="scale(0.015625)"/>
       </defs>
       <use xlink:href="#DejaVuSans-32"/>
       <use xlink:href="#DejaVuSans-39" x="63.623047"/>
       <use xlink:href="#DejaVuSans-36" x="127.246094"/>
      </g>
     </g>
    </g>
    <g id="ytick_5">
     <g id="line2d_21">
      <path d="M 51.77 129.970667 
L 565.2 129.970667 
" clip-path="url(#p1d1e2efad8)" style="fill: none; stroke-dasharray: 0.8,1.32; stroke-dashoffset: 0; stroke: #b0b0b0; stroke-opacity: 0.7; stroke-width: 0.8"/>
     </g>
     <g id="line2d_22">
      <g>
       <use xlink:href="#m8f12f3f42e" x="51.77" y="129.970667" style="stroke: #000000; stroke-width: 0.8"/>
      </g>
     </g>
     <g id="text_12">
      <!-- 298 -->
      <g transform="translate(25.6825 133.769885) scale(0.1 -0.1)">
       <defs>
        <path id="DejaVuSans-38" d="M 2034 2216 
Q 1584 2216 1326 1975 
Q 1069 1734 1069 1313 
Q 1069 891 1326 650 
Q 1584 409 2034 409 
Q 2484 409 2743 651 
Q 3003 894 3003 1313 
Q 3003 1734 2745 1975 
Q 2488 2216 2034 2216 
z
M 1403 2484 
Q 997 2584 770 2862 
Q 544 3141 544 3541 
Q 544 4100 942 4425 
Q 1341 4750 2034 4750 
Q 2731 4750 3128 4425 
Q 3525 4100 3525 3541 
Q 3525 3141 3298 2862 
Q 3072 2584 2669 2484 
Q 3125 2378 3379 2068 
Q 3634 1759 3634 1313 
Q 3634 634 3220 271 
Q 2806 -91 2034 -91 
Q 1263 -91 848 271 
Q 434 634 434 1313 
Q 434 1759 690 2068 
Q 947 2378 1403 2484 
z
M 1172 3481 
Q 1172 3119 1398 2916 
Q 1625 2713 2034 2713 
Q 2441 2713 2670 2916 
Q 2900 3119 2900 3481 
Q 2900 3844 2670 4047 
Q 2441 4250 2034 4250 
Q 1625 4250 1398 4047 
Q 1172 3844 1172 3481 
z
" transform="scale(0.015625)"/>
       </defs>
       <use xlink:href="#DejaVuSans-32"/>
       <use xlink:href="#DejaVuSans-39" x="63.623047"/>
       <use xlink:href="#DejaVuSans-38" x="127.246094"/>
      </g>
     </g>
    </g>
    <g id="ytick_6">
     <g id="line2d_23">
      <path d="M 51.77 101.133333 
L 565.2 101.133333 
" clip-path="url(#p1d1e2efad8)" style="fill: none; stroke-dasharray: 0.8,1.32; stroke-dashoffset: 0; stroke: #b0b0b0; stroke-opacity: 0.7; stroke-width: 0.8"/>
     </g>
     <g id="line2d_24">
      <g>
       <use xlink:href="#m8f12f3f42e" x="51.77" y="101.133333" style="stroke: #000000; stroke-width: 0.8"/>
      </g>
     </g>
     <g id="text_13">
      <!-- 300 -->
      <g transform="translate(25.6825 104.932552) scale(0.1 -0.1)">
       <use xlink:href="#DejaVuSans-33"/>
       <use xlink:href="#DejaVuSans-30" x="63.623047"/>
       <use xlink:href="#DejaVuSans-30" x="127.246094"/>
      </g>
     </g>
    </g>
    <g id="ytick_7">
     <g id="line2d_25">
      <path d="M 51.77 72.296 
L 565.2 72.296 
" clip-path="url(#p1d1e2efad8)" style="fill: none; stroke-dasharray: 0.8,1.32; stroke-dashoffset: 0; stroke: #b0b0b0; stroke-opacity: 0.7; stroke-width: 0.8"/>
     </g>
     <g id="line2d_26">
      <g>
       <use xlink:href="#m8f12f3f42e" x="51.77" y="72.296" style="stroke: #000000; stroke-width: 0.8"/>
      </g>
     </g>
     <g id="text_14">
      <!-- 302 -->
      <g transform="translate(25.6825 76.095219) scale(0.1 -0.1)">
       <use xlink:href="#DejaVuSans-33"/>
       <use xlink:href="#DejaVuSans-30" x="63.623047"/>
       <use xlink:href="#DejaVuSans-32" x="127.246094"/>
      </g>
     </g>
    </g>
    <g id="ytick_8">
     <g id="line2d_27">
      <path d="M 51.77 43.458667 
L 565.2 43.458667 
" clip-path="url(#p1d1e2efad8)" style="fill: none; stroke-dasharray: 0.8,1.32; stroke-dashoffset: 0; stroke: #b0b0b0; stroke-opacity: 0.7; stroke-width: 0.8"/>
     </g>
     <g id="line2d_28">
      <g>
       <use xlink:href="#m8f12f3f42e" x="51.77" y="43.458667" style="stroke: #000000; stroke-width: 0.8"/>
      </g>
     </g>
     <g id="text_15">
      <!-- 304 -->
      <g transform="translate(25.6825 47.257885) scale(0.1 -0.1)">
       <use xlink:href="#DejaVuSans-33"/>
       <use xlink:href="#DejaVuSans-30" x="63.623047"/>
       <use xlink:href="#DejaVuSans-34" x="127.246094"/>
      </g>
     </g>
    </g>
    <g id="text_16">
     <!-- Temperature (K) -->
     <g transform="translate(19.186875 185.706875) rotate(-90) scale(0.12 -0.12)">
      <defs>
       <path id="DejaVuSans-70" d="M 1159 525 
L 1159 -1331 
L 581 -1331 
L 581 3500 
L 1159 3500 
L 1159 2969 
Q 1341 3281 1617 3432 
Q 1894 3584 2278 3584 
Q 2916 3584 3314 3078 
Q 3713 2572 3713 1747 
Q 3713 922 3314 415 
Q 2916 -91 2278 -91 
Q 1894 -91 1617 61 
Q 1341 213 1159 525 
z
M 3116 1747 
Q 3116 2381 2855 2742 
Q 2594 3103 2138 3103 
Q 1681 3103 1420 2742 
Q 1159 2381 1159 1747 
Q 1159 1113 1420 752 
Q 1681 391 2138 391 
Q 2594 391 2855 752 
Q 3116 1113 3116 1747 
z
" transform="scale(0.015625)"/>
       <path id="DejaVuSans-72" d="M 2631 2963 
Q 2534 3019 2420 3045 
Q 2306 3072 2169 3072 
Q 1681 3072 1420 2755 
Q 1159 2438 1159 1844 
L 1159 0 
L 581 0 
L 581 3500 
L 1159 3500 
L 1159 2956 
Q 1341 3275 1631 3429 
Q 1922 3584 2338 3584 
Q 2397 3584 2469 3576 
Q 2541 3569 2628 3553 
L 2631 2963 
z
" transform="scale(0.015625)"/>
       <path id="DejaVuSans-61" d="M 2194 1759 
Q 1497 1759 1228 1600 
Q 959 1441 959 1056 
Q 959 750 1161 570 
Q 1363 391 1709 391 
Q 2188 391 2477 730 
Q 2766 1069 2766 1631 
L 2766 1759 
L 2194 1759 
z
M 3341 1997 
L 3341 0 
L 2766 0 
L 2766 531 
Q 2569 213 2275 61 
Q 1981 -91 1556 -91 
Q 1019 -91 701 211 
Q 384 513 384 1019 
Q 384 1609 779 1909 
Q 1175 2209 1959 2209 
L 2766 2209 
L 2766 2266 
Q 2766 2663 2505 2880 
Q 2244 3097 1772 3097 
Q 1472 3097 1187 3025 
Q 903 2953 641 2809 
L 641 3341 
Q 956 3463 1253 3523 
Q 1550 3584 1831 3584 
Q 2591 3584 2966 3190 
Q 3341 2797 3341 1997 
z
" transform="scale(0.015625)"/>
       <path id="DejaVuSans-74" d="M 1172 4494 
L 1172 3500 
L 2356 3500 
L 2356 3053 
L 1172 3053 
L 1172 1153 
Q 1172 725 1289 603 
Q 1406 481 1766 481 
L 2356 481 
L 2356 0 
L 1766 0 
Q 1100 0 847 248 
Q 594 497 594 1153 
L 594 3053 
L 172 3053 
L 172 3500 
L 594 3500 
L 594 4494 
L 1172 4494 
z
" transform="scale(0.015625)"/>
       <path id="DejaVuSans-75" d="M 544 1381 
L 544 3500 
L 1119 3500 
L 1119 1403 
Q 1119 906 1312 657 
Q 1506 409 1894 409 
Q 2359 409 2629 706 
Q 2900 1003 2900 1516 
L 2900 3500 
L 3475 3500 
L 3475 0 
L 2900 0 
L 2900 538 
Q 2691 219 2414 64 
Q 2138 -91 1772 -91 
Q 1169 -91 856 284 
Q 544 659 544 1381 
z
M 1991 3584 
L 1991 3584 
z
" transform="scale(0.015625)"/>
       <path id="DejaVuSans-4b" d="M 628 4666 
L 1259 4666 
L 1259 2694 
L 3353 4666 
L 4166 4666 
L 1850 2491 
L 4331 0 
L 3500 0 
L 1259 2247 
L 1259 0 
L 628 0 
L 628 4666 
z
" transform="scale(0.015625)"/>
      </defs>
      <use xlink:href="#DejaVuSans-54"/>
      <use xlink:href="#DejaVuSans-65" x="44.083984"/>
      <use xlink:href="#DejaVuSans-6d" x="105.607422"/>
      <use xlink:href="#DejaVuSans-70" x="203.019531"/>
      <use xlink:href="#DejaVuSans-65" x="266.496094"/>
      <use xlink:href="#DejaVuSans-72" x="328.019531"/>
      <use xlink:href="#DejaVuSans-61" x="369.132812"/>
      <use xlink:href="#DejaVuSans-74" x="430.412109"/>
      <use xlink:href="#DejaVuSans-75" x="469.621094"/>
      <use xlink:href="#DejaVuSans-72" x="533"/>
      <use xlink:href="#DejaVuSans-65" x="571.863281"/>
      <use xlink:href="#DejaVuSans-20" x="633.386719"/>
      <use xlink:href="#DejaVuSans-28" x="665.173828"/>
      <use xlink:href="#DejaVuSans-4b" x="704.1875"/>
      <use xlink:href="#DejaVuSans-29" x="769.763672"/>
     </g>
    </g>
   </g>
   <g id="line2d_29">
    <path d="M 75.107727 202.064 
L 84.63333 134.776889 
L 94.158933 67.489778 
L 103.684536 45.060741 
L 113.210139 67.489778 
L 122.735742 109.855737 
L 132.261345 142.253235 
L 141.786948 147.791268 
L 151.312551 128.961953 
L 160.838154 101.564069 
L 170.363757 82.58092 
L 179.88936 80.293062 
L 189.414963 91.667398 
L 198.940566 106.755454 
L 208.466169 115.944298 
L 217.991772 115.287983 
L 227.517375 107.370601 
L 237.042978 98.281561 
L 246.568581 93.337892 
L 256.094184 94.265499 
L 265.619787 99.080398 
L 275.14539 104.091518 
L 284.670993 106.388304 
L 294.196596 105.294052 
L 303.722199 102.212322 
L 313.247801 99.337 
L 322.773404 98.22507 
L 332.299007 99.069874 
L 341.82461 100.91733 
L 351.350213 102.477792 
L 360.875816 102.933252 
L 370.401419 102.285713 
L 379.927022 101.159846 
L 389.452625 100.301655 
L 398.978228 100.128548 
L 408.503831 100.5723 
L 418.029434 101.233482 
L 427.555037 101.68582 
L 437.08064 101.722974 
L 446.606243 101.422312 
L 456.131846 101.033429 
L 465.657449 100.796176 
L 475.183052 100.807673 
L 484.708655 101.001621 
L 494.234258 101.224727 
L 503.759861 101.343944 
L 513.285464 101.316664 
L 522.811067 101.193127 
L 532.33667 101.065892 
L 541.862273 101.007508 
" clip-path="url(#p1d1e2efad8)" style="fill: none; stroke: #1f77b4; stroke-width: 2; stroke-linecap: square"/>
    <defs>
     <path id="me6f85c6cbf" d="M 0 1.5 
C 0.397805 1.5 0.77937 1.341951 1.06066 1.06066 
C 1.341951 0.77937 1.5 0.397805 1.5 0 
C 1.5 -0.397805 1.341951 -0.77937 1.06066 -1.06066 
C 0.77937 -1.341951 0.397805 -1.5 0 -1.5 
C -0.397805 -1.5 -0.77937 -1.341951 -1.06066 -1.06066 
C -1.341951 -0.77937 -1.5 -0.397805 -1.5 0 
C -1.5 0.397805 -1.341951 0.77937 -1.06066 1.06066 
C -0.77937 1.341951 -0.397805 1.5 0 1.5 
z
" style="stroke: #1f77b4"/>
    </defs>
    <g clip-path="url(#p1d1e2efad8)">
     <use xlink:href="#me6f85c6cbf" x="75.107727" y="202.064" style="fill: #1f77b4; stroke: #1f77b4"/>
     <use xlink:href="#me6f85c6cbf" x="84.63333" y="134.776889" style="fill: #1f77b4; stroke: #1f77b4"/>
     <use xlink:href="#me6f85c6cbf" x="94.158933" y="67.489778" style="fill: #1f77b4; stroke: #1f77b4"/>
     <use xlink:href="#me6f85c6cbf" x="103.684536" y="45.060741" style="fill: #1f77b4; stroke: #1f77b4"/>
     <use xlink:href="#me6f85c6cbf" x="113.210139" y="67.489778" style="fill: #1f77b4; stroke: #1f77b4"/>
     <use xlink:href="#me6f85c6cbf" x="122.735742" y="109.855737" style="fill: #1f77b4; stroke: #1f77b4"/>
     <use xlink:href="#me6f85c6cbf" x="132.261345" y="142.253235" style="fill: #1f77b4; stroke: #1f77b4"/>
     <use xlink:href="#me6f85c6cbf" x="141.786948" y="147.791268" style="fill: #1f77b4; stroke: #1f77b4"/>
     <use xlink:href="#me6f85c6cbf" x="151.312551" y="128.961953" style="fill: #1f77b4; stroke: #1f77b4"/>
     <use xlink:href="#me6f85c6cbf" x="160.838154" y="101.564069" style="fill: #1f77b4; stroke: #1f77b4"/>
     <use xlink:href="#me6f85c6cbf" x="170.363757" y="82.58092" style="fill: #1f77b4; stroke: #1f77b4"/>
     <use xlink:href="#me6f85c6cbf" x="179.88936" y="80.293062" style="fill: #1f77b4; stroke: #1f77b4"/>
     <use xlink:href="#me6f85c6cbf" x="189.414963" y="91.667398" style="fill: #1f77b4; stroke: #1f77b4"/>
     <use xlink:href="#me6f85c6cbf" x="198.940566" y="106.755454" style="fill: #1f77b4; stroke: #1f77b4"/>
     <use xlink:href="#me6f85c6cbf" x="208.466169" y="115.944298" style="fill: #1f77b4; stroke: #1f77b4"/>
     <use xlink:href="#me6f85c6cbf" x="217.991772" y="115.287983" style="fill: #1f77b4; stroke: #1f77b4"/>
     <use xlink:href="#me6f85c6cbf" x="227.517375" y="107.370601" style="fill: #1f77b4; stroke: #1f77b4"/>
     <use xlink:href="#me6f85c6cbf" x="237.042978" y="98.281561" style="fill: #1f77b4; stroke: #1f77b4"/>
     <use xlink:href="#me6f85c6cbf" x="246.568581" y="93.337892" style="fill: #1f77b4; stroke: #1f77b4"/>
     <use xlink:href="#me6f85c6cbf" x="256.094184" y="94.265499" style="fill: #1f77b4; stroke: #1f77b4"/>
     <use xlink:href="#me6f85c6cbf" x="265.619787" y="99.080398" style="fill: #1f77b4; stroke: #1f77b4"/>
     <use xlink:href="#me6f85c6cbf" x="275.14539" y="104.091518" style="fill: #1f77b4; stroke: #1f77b4"/>
     <use xlink:href="#me6f85c6cbf" x="284.670993" y="106.388304" style="fill: #1f77b4; stroke: #1f77b4"/>
     <use xlink:href="#me6f85c6cbf" x="294.196596" y="105.294052" style="fill: #1f77b4; stroke: #1f77b4"/>
     <use xlink:href="#me6f85c6cbf" x="303.722199" y="102.212322" style="fill: #1f77b4; stroke: #1f77b4"/>
     <use xlink:href="#me6f85c6cbf" x="313.247801" y="99.337" style="fill: #1f77b4; stroke: #1f77b4"/>
     <use xlink:href="#me6f85c6cbf" x="322.773404" y="98.22507" style="fill: #1f77b4; stroke: #1f77b4"/>
     <use xlink:href="#me6f85c6cbf" x="332.299007" y="99.069874" style="fill: #1f77b4; stroke: #1f77b4"/>
     <use xlink:href="#me6f85c6cbf" x="341.82461" y="100.91733" style="fill: #1f77b4; stroke: #1f77b4"/>
     <use xlink:href="#me6f85c6cbf" x="351.350213" y="102.477792" style="fill: #1f77b4; stroke: #1f77b4"/>
     <use xlink:href="#me6f85c6cbf" x="360.875816" y="102.933252" style="fill: #1f77b4; stroke: #1f77b4"/>
     <use xlink:href="#me6f85c6cbf" x="370.401419" y="102.285713" style="fill: #1f77b4; stroke: #1f77b4"/>
     <use xlink:href="#me6f85c6cbf" x="379.927022" y="101.159846" style="fill: #1f77b4; stroke: #1f77b4"/>
     <use xlink:href="#me6f85c6cbf" x="389.452625" y="100.301655" style="fill: #1f77b4; stroke: #1f77b4"/>
     <use xlink:href="#me6f85c6cbf" x="398.978228" y="100.128548" style="fill: #1f77b4; stroke: #1f77b4"/>
     <use xlink:href="#me6f85c6cbf" x="408.503831" y="100.5723" style="fill: #1f77b4; stroke: #1f77b4"/>
     <use xlink:href="#me6f85c6cbf" x="418.029434" y="101.233482" style="fill: #1f77b4; stroke: #1f77b4"/>
     <use xlink:href="#me6f85c6cbf" x="427.555037" y="101.68582" style="fill: #1f77b4; stroke: #1f77b4"/>
     <use xlink:href="#me6f85c6cbf" x="437.08064" y="101.722974" style="fill: #1f77b4; stroke: #1f77b4"/>
     <use xlink:href="#me6f85c6cbf" x="446.606243" y="101.422312" style="fill: #1f77b4; stroke: #1f77b4"/>
     <use xlink:href="#me6f85c6cbf" x="456.131846" y="101.033429" style="fill: #1f77b4; stroke: #1f77b4"/>
     <use xlink:href="#me6f85c6cbf" x="465.657449" y="100.796176" style="fill: #1f77b4; stroke: #1f77b4"/>
     <use xlink:href="#me6f85c6cbf" x="475.183052" y="100.807673" style="fill: #1f77b4; stroke: #1f77b4"/>
     <use xlink:href="#me6f85c6cbf" x="484.708655" y="101.001621" style="fill: #1f77b4; stroke: #1f77b4"/>
     <use xlink:href="#me6f85c6cbf" x="494.234258" y="101.224727" style="fill: #1f77b4; stroke: #1f77b4"/>
     <use xlink:href="#me6f85c6cbf" x="503.759861" y="101.343944" style="fill: #1f77b4; stroke: #1f77b4"/>
     <use xlink:href="#me6f85c6cbf" x="513.285464" y="101.316664" style="fill: #1f77b4; stroke: #1f77b4"/>
     <use xlink:href="#me6f85c6cbf" x="522.811067" y="101.193127" style="fill: #1f77b4; stroke: #1f77b4"/>
     <use xlink:href="#me6f85c6cbf" x="532.33667" y="101.065892" style="fill: #1f77b4; stroke: #1f77b4"/>
     <use xlink:href="#me6f85c6cbf" x="541.862273" y="101.007508" style="fill: #1f77b4; stroke: #1f77b4"/>
    </g>
   </g>
   <g id="line2d_30">
    <path d="M 75.107727 202.064 
L 84.63333 151.598667 
L 94.158933 101.133333 
L 103.684536 75.900667 
L 113.210139 74.323625 
L 122.735742 86.151437 
L 132.261345 100.394095 
L 141.786948 110.028834 
L 151.312551 113.03353 
L 160.838154 110.965973 
L 170.363757 106.746202 
L 179.88936 102.881059 
L 189.414963 100.643129 
L 198.940566 100.107752 
L 208.466169 100.652043 
L 217.991772 101.51139 
L 227.517375 102.145682 
L 237.042978 102.353526 
L 246.568581 102.200774 
L 256.094184 101.874333 
L 265.619787 101.55278 
L 275.14539 101.337933 
L 284.670993 101.247599 
L 294.196596 101.245187 
L 303.722199 101.277977 
L 313.247801 101.304907 
L 322.773404 101.307427 
L 332.299007 101.286599 
L 341.82461 101.25371 
L 351.350213 101.221005 
L 360.875816 101.196192 
L 370.401419 101.181231 
L 379.927022 101.173972 
L 389.452625 101.170733 
L 398.978228 101.168356 
L 408.503831 101.16516 
L 418.029434 101.16089 
L 427.555037 101.156128 
L 437.08064 101.151646 
L 446.606243 101.147971 
L 456.131846 101.145253 
L 465.657449 101.143342 
L 475.183052 101.141961 
L 484.708655 101.140849 
L 494.234258 101.139846 
L 503.759861 101.138895 
L 513.285464 101.138006 
L 522.811067 101.137216 
L 532.33667 101.13655 
L 541.862273 101.136012 
" clip-path="url(#p1d1e2efad8)" style="fill: none; stroke: #ff7f0e; stroke-width: 2; stroke-linecap: square"/>
    <defs>
     <path id="m40a38eb08f" d="M 0 1.5 
C 0.397805 1.5 0.77937 1.341951 1.06066 1.06066 
C 1.341951 0.77937 1.5 0.397805 1.5 0 
C 1.5 -0.397805 1.341951 -0.77937 1.06066 -1.06066 
C 0.77937 -1.341951 0.397805 -1.5 0 -1.5 
C -0.397805 -1.5 -0.77937 -1.341951 -1.06066 -1.06066 
C -1.341951 -0.77937 -1.5 -0.397805 -1.5 0 
C -1.5 0.397805 -1.341951 0.77937 -1.06066 1.06066 
C -0.77937 1.341951 -0.397805 1.5 0 1.5 
z
" style="stroke: #ff7f0e"/>
    </defs>
    <g clip-path="url(#p1d1e2efad8)">
     <use xlink:href="#m40a38eb08f" x="75.107727" y="202.064" style="fill: #ff7f0e; stroke: #ff7f0e"/>
     <use xlink:href="#m40a38eb08f" x="84.63333" y="151.598667" style="fill: #ff7f0e; stroke: #ff7f0e"/>
     <use xlink:href="#m40a38eb08f" x="94.158933" y="101.133333" style="fill: #ff7f0e; stroke: #ff7f0e"/>
     <use xlink:href="#m40a38eb08f" x="103.684536" y="75.900667" style="fill: #ff7f0e; stroke: #ff7f0e"/>
     <use xlink:href="#m40a38eb08f" x="113.210139" y="74.323625" style="fill: #ff7f0e; stroke: #ff7f0e"/>
     <use xlink:href="#m40a38eb08f" x="122.735742" y="86.151437" style="fill: #ff7f0e; stroke: #ff7f0e"/>
     <use xlink:href="#m40a38eb08f" x="132.261345" y="100.394095" style="fill: #ff7f0e; stroke: #ff7f0e"/>
     <use xlink:href="#m40a38eb08f" x="141.786948" y="110.028834" style="fill: #ff7f0e; stroke: #ff7f0e"/>
     <use xlink:href="#m40a38eb08f" x="151.312551" y="113.03353" style="fill: #ff7f0e; stroke: #ff7f0e"/>
     <use xlink:href="#m40a38eb08f" x="160.838154" y="110.965973" style="fill: #ff7f0e; stroke: #ff7f0e"/>
     <use xlink:href="#m40a38eb08f" x="170.363757" y="106.746202" style="fill: #ff7f0e; stroke: #ff7f0e"/>
     <use xlink:href="#m40a38eb08f" x="179.88936" y="102.881059" style="fill: #ff7f0e; stroke: #ff7f0e"/>
     <use xlink:href="#m40a38eb08f" x="189.414963" y="100.643129" style="fill: #ff7f0e; stroke: #ff7f0e"/>
     <use xlink:href="#m40a38eb08f" x="198.940566" y="100.107752" style="fill: #ff7f0e; stroke: #ff7f0e"/>
     <use xlink:href="#m40a38eb08f" x="208.466169" y="100.652043" style="fill: #ff7f0e; stroke: #ff7f0e"/>
     <use xlink:href="#m40a38eb08f" x="217.991772" y="101.51139" style="fill: #ff7f0e; stroke: #ff7f0e"/>
     <use xlink:href="#m40a38eb08f" x="227.517375" y="102.145682" style="fill: #ff7f0e; stroke: #ff7f0e"/>
     <use xlink:href="#m40a38eb08f" x="237.042978" y="102.353526" style="fill: #ff7f0e; stroke: #ff7f0e"/>
     <use xlink:href="#m40a38eb08f" x="246.568581" y="102.200774" style="fill: #ff7f0e; stroke: #ff7f0e"/>
     <use xlink:href="#m40a38eb08f" x="256.094184" y="101.874333" style="fill: #ff7f0e; stroke: #ff7f0e"/>
     <use xlink:href="#m40a38eb08f" x="265.619787" y="101.55278" style="fill: #ff7f0e; stroke: #ff7f0e"/>
     <use xlink:href="#m40a38eb08f" x="275.14539" y="101.337933" style="fill: #ff7f0e; stroke: #ff7f0e"/>
     <use xlink:href="#m40a38eb08f" x="284.670993" y="101.247599" style="fill: #ff7f0e; stroke: #ff7f0e"/>
     <use xlink:href="#m40a38eb08f" x="294.196596" y="101.245187" style="fill: #ff7f0e; stroke: #ff7f0e"/>
     <use xlink:href="#m40a38eb08f" x="303.722199" y="101.277977" style="fill: #ff7f0e; stroke: #ff7f0e"/>
     <use xlink:href="#m40a38eb08f" x="313.247801" y="101.304907" style="fill: #ff7f0e; stroke: #ff7f0e"/>
     <use xlink:href="#m40a38eb08f" x="322.773404" y="101.307427" style="fill: #ff7f0e; stroke: #ff7f0e"/>
     <use xlink:href="#m40a38eb08f" x="332.299007" y="101.286599" style="fill: #ff7f0e; stroke: #ff7f0e"/>
     <use xlink:href="#m40a38eb08f" x="341.82461" y="101.25371" style="fill: #ff7f0e; stroke: #ff7f0e"/>
     <use xlink:href="#m40a38eb08f" x="351.350213" y="101.221005" style="fill: #ff7f0e; stroke: #ff7f0e"/>
     <use xlink:href="#m40a38eb08f" x="360.875816" y="101.196192" style="fill: #ff7f0e; stroke: #ff7f0e"/>
     <use xlink:href="#m40a38eb08f" x="370.401419" y="101.181231" style="fill: #ff7f0e; stroke: #ff7f0e"/>
     <use xlink:href="#m40a38eb08f" x="379.927022" y="101.173972" style="fill: #ff7f0e; stroke: #ff7f0e"/>
     <use xlink:href="#m40a38eb08f" x="389.452625" y="101.170733" style="fill: #ff7f0e; stroke: #ff7f0e"/>
     <use xlink:href="#m40a38eb08f" x="398.978228" y="101.168356" style="fill: #ff7f0e; stroke: #ff7f0e"/>
     <use xlink:href="#m40a38eb08f" x="408.503831" y="101.16516" style="fill: #ff7f0e; stroke: #ff7f0e"/>
     <use xlink:href="#m40a38eb08f" x="418.029434" y="101.16089" style="fill: #ff7f0e; stroke: #ff7f0e"/>
     <use xlink:href="#m40a38eb08f" x="427.555037" y="101.156128" style="fill: #ff7f0e; stroke: #ff7f0e"/>
     <use xlink:href="#m40a38eb08f" x="437.08064" y="101.151646" style="fill: #ff7f0e; stroke: #ff7f0e"/>
     <use xlink:href="#m40a38eb08f" x="446.606243" y="101.147971" style="fill: #ff7f0e; stroke: #ff7f0e"/>
     <use xlink:href="#m40a38eb08f" x="456.131846" y="101.145253" style="fill: #ff7f0e; stroke: #ff7f0e"/>
     <use xlink:href="#m40a38eb08f" x="465.657449" y="101.143342" style="fill: #ff7f0e; stroke: #ff7f0e"/>
     <use xlink:href="#m40a38eb08f" x="475.183052" y="101.141961" style="fill: #ff7f0e; stroke: #ff7f0e"/>
     <use xlink:href="#m40a38eb08f" x="484.708655" y="101.140849" style="fill: #ff7f0e; stroke: #ff7f0e"/>
     <use xlink:href="#m40a38eb08f" x="494.234258" y="101.139846" style="fill: #ff7f0e; stroke: #ff7f0e"/>
     <use xlink:href="#m40a38eb08f" x="503.759861" y="101.138895" style="fill: #ff7f0e; stroke: #ff7f0e"/>
     <use xlink:href="#m40a38eb08f" x="513.285464" y="101.138006" style="fill: #ff7f0e; stroke: #ff7f0e"/>
     <use xlink:href="#m40a38eb08f" x="522.811067" y="101.137216" style="fill: #ff7f0e; stroke: #ff7f0e"/>
     <use xlink:href="#m40a38eb08f" x="532.33667" y="101.13655" style="fill: #ff7f0e; stroke: #ff7f0e"/>
     <use xlink:href="#m40a38eb08f" x="541.862273" y="101.136012" style="fill: #ff7f0e; stroke: #ff7f0e"/>
    </g>
   </g>
   <g id="line2d_31">
    <path d="M 75.107727 202.064 
L 84.63333 161.691733 
L 94.158933 121.319467 
L 103.684536 97.096107 
L 113.210139 87.406763 
L 122.735742 87.083785 
L 132.261345 90.99182 
L 141.786948 95.584569 
L 151.312551 99.097925 
L 160.838154 101.087987 
L 170.363757 101.82439 
L 179.88936 101.806384 
L 189.414963 101.480901 
L 198.940566 101.13534 
L 208.466169 100.899559 
L 217.991772 100.795011 
L 227.517375 100.789411 
L 237.042978 100.837072 
L 246.568581 100.900618 
L 256.094184 100.957903 
L 265.619787 101.000349 
L 275.14539 101.028044 
L 284.670993 101.044929 
L 294.196596 101.055502 
L 303.722199 101.063194 
L 313.247801 101.069982 
L 322.773404 101.076652 
L 332.299007 101.083278 
L 341.82461 101.089635 
L 351.350213 101.095477 
L 360.875816 101.100652 
L 370.401419 101.10512 
L 379.927022 101.10893 
L 389.452625 101.11217 
L 398.978228 101.114938 
L 408.503831 101.117322 
L 418.029434 101.11939 
L 427.555037 101.121192 
L 437.08064 101.122766 
L 446.606243 101.124141 
L 456.131846 101.125341 
L 465.657449 101.126386 
L 475.183052 101.127294 
L 484.708655 101.128084 
L 494.234258 101.128769 
L 503.759861 101.129365 
L 513.285464 101.129883 
L 522.811067 101.130333 
L 532.33667 101.130724 
L 541.862273 101.131065 
" clip-path="url(#p1d1e2efad8)" style="fill: none; stroke: #2ca02c; stroke-width: 2; stroke-linecap: square"/>
    <defs>
     <path id="m842e6b5ff1" d="M 0 1.5 
C 0.397805 1.5 0.77937 1.341951 1.06066 1.06066 
C 1.341951 0.77937 1.5 0.397805 1.5 0 
C 1.5 -0.397805 1.341951 -0.77937 1.06066 -1.06066 
C 0.77937 -1.341951 0.397805 -1.5 0 -1.5 
C -0.397805 -1.5 -0.77937 -1.341951 -1.06066 -1.06066 
C -1.341951 -0.77937 -1.5 -0.397805 -1.5 0 
C -1.5 0.397805 -1.341951 0.77937 -1.06066 1.06066 
C -0.77937 1.341951 -0.397805 1.5 0 1.5 
z
" style="stroke: #2ca02c"/>
    </defs>
    <g clip-path="url(#p1d1e2efad8)">
     <use xlink:href="#m842e6b5ff1" x="75.107727" y="202.064" style="fill: #2ca02c; stroke: #2ca02c"/>
     <use xlink:href="#m842e6b5ff1" x="84.63333" y="161.691733" style="fill: #2ca02c; stroke: #2ca02c"/>
     <use xlink:href="#m842e6b5ff1" x="94.158933" y="121.319467" style="fill: #2ca02c; stroke: #2ca02c"/>
     <use xlink:href="#m842e6b5ff1" x="103.684536" y="97.096107" style="fill: #2ca02c; stroke: #2ca02c"/>
     <use xlink:href="#m842e6b5ff1" x="113.210139" y="87.406763" style="fill: #2ca02c; stroke: #2ca02c"/>
     <use xlink:href="#m842e6b5ff1" x="122.735742" y="87.083785" style="fill: #2ca02c; stroke: #2ca02c"/>
     <use xlink:href="#m842e6b5ff1" x="132.261345" y="90.99182" style="fill: #2ca02c; stroke: #2ca02c"/>
     <use xlink:href="#m842e6b5ff1" x="141.786948" y="95.584569" style="fill: #2ca02c; stroke: #2ca02c"/>
     <use xlink:href="#m842e6b5ff1" x="151.312551" y="99.097925" style="fill: #2ca02c; stroke: #2ca02c"/>
     <use xlink:href="#m842e6b5ff1" x="160.838154" y="101.087987" style="fill: #2ca02c; stroke: #2ca02c"/>
     <use xlink:href="#m842e6b5ff1" x="170.363757" y="101.82439" style="fill: #2ca02c; stroke: #2ca02c"/>
     <use xlink:href="#m842e6b5ff1" x="179.88936" y="101.806384" style="fill: #2ca02c; stroke: #2ca02c"/>
     <use xlink:href="#m842e6b5ff1" x="189.414963" y="101.480901" style="fill: #2ca02c; stroke: #2ca02c"/>
     <use xlink:href="#m842e6b5ff1" x="198.940566" y="101.13534" style="fill: #2ca02c; stroke: #2ca02c"/>
     <use xlink:href="#m842e6b5ff1" x="208.466169" y="100.899559" style="fill: #2ca02c; stroke: #2ca02c"/>
     <use xlink:href="#m842e6b5ff1" x="217.991772" y="100.795011" style="fill: #2ca02c; stroke: #2ca02c"/>
     <use xlink:href="#m842e6b5ff1" x="227.517375" y="100.789411" style="fill: #2ca02c; stroke: #2ca02c"/>
     <use xlink:href="#m842e6b5ff1" x="237.042978" y="100.837072" style="fill: #2ca02c; stroke: #2ca02c"/>
     <use xlink:href="#m842e6b5ff1" x="246.568581" y="100.900618" style="fill: #2ca02c; stroke: #2ca02c"/>
     <use xlink:href="#m842e6b5ff1" x="256.094184" y="100.957903" style="fill: #2ca02c; stroke: #2ca02c"/>
     <use xlink:href="#m842e6b5ff1" x="265.619787" y="101.000349" style="fill: #2ca02c; stroke: #2ca02c"/>
     <use xlink:href="#m842e6b5ff1" x="275.14539" y="101.028044" style="fill: #2ca02c; stroke: #2ca02c"/>
     <use xlink:href="#m842e6b5ff1" x="284.670993" y="101.044929" style="fill: #2ca02c; stroke: #2ca02c"/>
     <use xlink:href="#m842e6b5ff1" x="294.196596" y="101.055502" style="fill: #2ca02c; stroke: #2ca02c"/>
     <use xlink:href="#m842e6b5ff1" x="303.722199" y="101.063194" style="fill: #2ca02c; stroke: #2ca02c"/>
     <use xlink:href="#m842e6b5ff1" x="313.247801" y="101.069982" style="fill: #2ca02c; stroke: #2ca02c"/>
     <use xlink:href="#m842e6b5ff1" x="322.773404" y="101.076652" style="fill: #2ca02c; stroke: #2ca02c"/>
     <use xlink:href="#m842e6b5ff1" x="332.299007" y="101.083278" style="fill: #2ca02c; stroke: #2ca02c"/>
     <use xlink:href="#m842e6b5ff1" x="341.82461" y="101.089635" style="fill: #2ca02c; stroke: #2ca02c"/>
     <use xlink:href="#m842e6b5ff1" x="351.350213" y="101.095477" style="fill: #2ca02c; stroke: #2ca02c"/>
     <use xlink:href="#m842e6b5ff1" x="360.875816" y="101.100652" style="fill: #2ca02c; stroke: #2ca02c"/>
     <use xlink:href="#m842e6b5ff1" x="370.401419" y="101.10512" style="fill: #2ca02c; stroke: #2ca02c"/>
     <use xlink:href="#m842e6b5ff1" x="379.927022" y="101.10893" style="fill: #2ca02c; stroke: #2ca02c"/>
     <use xlink:href="#m842e6b5ff1" x="389.452625" y="101.11217" style="fill: #2ca02c; stroke: #2ca02c"/>
     <use xlink:href="#m842e6b5ff1" x="398.978228" y="101.114938" style="fill: #2ca02c; stroke: #2ca02c"/>
     <use xlink:href="#m842e6b5ff1" x="408.503831" y="101.117322" style="fill: #2ca02c; stroke: #2ca02c"/>
     <use xlink:href="#m842e6b5ff1" x="418.029434" y="101.11939" style="fill: #2ca02c; stroke: #2ca02c"/>
     <use xlink:href="#m842e6b5ff1" x="427.555037" y="101.121192" style="fill: #2ca02c; stroke: #2ca02c"/>
     <use xlink:href="#m842e6b5ff1" x="437.08064" y="101.122766" style="fill: #2ca02c; stroke: #2ca02c"/>
     <use xlink:href="#m842e6b5ff1" x="446.606243" y="101.124141" style="fill: #2ca02c; stroke: #2ca02c"/>
     <use xlink:href="#m842e6b5ff1" x="456.131846" y="101.125341" style="fill: #2ca02c; stroke: #2ca02c"/>
     <use xlink:href="#m842e6b5ff1" x="465.657449" y="101.126386" style="fill: #2ca02c; stroke: #2ca02c"/>
     <use xlink:href="#m842e6b5ff1" x="475.183052" y="101.127294" style="fill: #2ca02c; stroke: #2ca02c"/>
     <use xlink:href="#m842e6b5ff1" x="484.708655" y="101.128084" style="fill: #2ca02c; stroke: #2ca02c"/>
     <use xlink:href="#m842e6b5ff1" x="494.234258" y="101.128769" style="fill: #2ca02c; stroke: #2ca02c"/>
     <use xlink:href="#m842e6b5ff1" x="503.759861" y="101.129365" style="fill: #2ca02c; stroke: #2ca02c"/>
     <use xlink:href="#m842e6b5ff1" x="513.285464" y="101.129883" style="fill: #2ca02c; stroke: #2ca02c"/>
     <use xlink:href="#m842e6b5ff1" x="522.811067" y="101.130333" style="fill: #2ca02c; stroke: #2ca02c"/>
     <use xlink:href="#m842e6b5ff1" x="532.33667" y="101.130724" style="fill: #2ca02c; stroke: #2ca02c"/>
     <use xlink:href="#m842e6b5ff1" x="541.862273" y="101.131065" style="fill: #2ca02c; stroke: #2ca02c"/>
    </g>
   </g>
   <g id="line2d_32">
    <path d="M 75.107727 202.064 
L 84.63333 168.420444 
L 94.158933 134.776889 
L 103.684536 112.347852 
L 113.210139 99.731519 
L 122.735742 93.968502 
L 132.261345 92.274642 
L 141.786948 92.62077 
L 151.312551 93.754065 
L 160.838154 95.013253 
L 170.363757 96.115395 
L 179.88936 96.985299 
L 189.414963 97.642517 
L 198.940566 98.137072 
L 208.466169 98.51865 
L 217.991772 98.825474 
L 227.517375 99.083035 
L 237.042978 99.306691 
L 246.568581 99.505022 
L 256.094184 99.682648 
L 265.619787 99.84215 
L 275.14539 99.985206 
L 284.670993 100.113176 
L 294.196596 100.227341 
L 303.722199 100.328964 
L 313.247801 100.419284 
L 322.773404 100.499485 
L 332.299007 100.570668 
L 341.82461 100.633838 
L 351.350213 100.689899 
L 360.875816 100.739656 
L 370.401419 100.783821 
L 379.927022 100.823028 
L 389.452625 100.857835 
L 398.978228 100.888737 
L 408.503831 100.916173 
L 418.029434 100.940532 
L 427.555037 100.962159 
L 437.08064 100.98136 
L 446.606243 100.998407 
L 456.131846 101.013542 
L 465.657449 101.02698 
L 475.183052 101.03891 
L 484.708655 101.049502 
L 494.234258 101.058905 
L 503.759861 101.067254 
L 513.285464 101.074667 
L 522.811067 101.081248 
L 532.33667 101.08709 
L 541.862273 101.092278 
" clip-path="url(#p1d1e2efad8)" style="fill: none; stroke: #d62728; stroke-width: 2; stroke-linecap: square"/>
    <defs>
     <path id="m073819847c" d="M 0 1.5 
C 0.397805 1.5 0.77937 1.341951 1.06066 1.06066 
C 1.341951 0.77937 1.5 0.397805 1.5 0 
C 1.5 -0.397805 1.341951 -0.77937 1.06066 -1.06066 
C 0.77937 -1.341951 0.397805 -1.5 0 -1.5 
C -0.397805 -1.5 -0.77937 -1.341951 -1.06066 -1.06066 
C -1.341951 -0.77937 -1.5 -0.397805 -1.5 0 
C -1.5 0.397805 -1.341951 0.77937 -1.06066 1.06066 
C -0.77937 1.341951 -0.397805 1.5 0 1.5 
z
" style="stroke: #d62728"/>
    </defs>
    <g clip-path="url(#p1d1e2efad8)">
     <use xlink:href="#m073819847c" x="75.107727" y="202.064" style="fill: #d62728; stroke: #d62728"/>
     <use xlink:href="#m073819847c" x="84.63333" y="168.420444" style="fill: #d62728; stroke: #d62728"/>
     <use xlink:href="#m073819847c" x="94.158933" y="134.776889" style="fill: #d62728; stroke: #d62728"/>
     <use xlink:href="#m073819847c" x="103.684536" y="112.347852" style="fill: #d62728; stroke: #d62728"/>
     <use xlink:href="#m073819847c" x="113.210139" y="99.731519" style="fill: #d62728; stroke: #d62728"/>
     <use xlink:href="#m073819847c" x="122.735742" y="93.968502" style="fill: #d62728; stroke: #d62728"/>
     <use xlink:href="#m073819847c" x="132.261345" y="92.274642" style="fill: #d62728; stroke: #d62728"/>
     <use xlink:href="#m073819847c" x="141.786948" y="92.62077" style="fill: #d62728; stroke: #d62728"/>
     <use xlink:href="#m073819847c" x="151.312551" y="93.754065" style="fill: #d62728; stroke: #d62728"/>
     <use xlink:href="#m073819847c" x="160.838154" y="95.013253" style="fill: #d62728; stroke: #d62728"/>
     <use xlink:href="#m073819847c" x="170.363757" y="96.115395" style="fill: #d62728; stroke: #d62728"/>
     <use xlink:href="#m073819847c" x="179.88936" y="96.985299" style="fill: #d62728; stroke: #d62728"/>
     <use xlink:href="#m073819847c" x="189.414963" y="97.642517" style="fill: #d62728; stroke: #d62728"/>
     <use xlink:href="#m073819847c" x="198.940566" y="98.137072" style="fill: #d62728; stroke: #d62728"/>
     <use xlink:href="#m073819847c" x="208.466169" y="98.51865" style="fill: #d62728; stroke: #d62728"/>
     <use xlink:href="#m073819847c" x="217.991772" y="98.825474" style="fill: #d62728; stroke: #d62728"/>
     <use xlink:href="#m073819847c" x="227.517375" y="99.083035" style="fill: #d62728; stroke: #d62728"/>
     <use xlink:href="#m073819847c" x="237.042978" y="99.306691" style="fill: #d62728; stroke: #d62728"/>
     <use xlink:href="#m073819847c" x="246.568581" y="99.505022" style="fill: #d62728; stroke: #d62728"/>
     <use xlink:href="#m073819847c" x="256.094184" y="99.682648" style="fill: #d62728; stroke: #d62728"/>
     <use xlink:href="#m073819847c" x="265.619787" y="99.84215" style="fill: #d62728; stroke: #d62728"/>
     <use xlink:href="#m073819847c" x="275.14539" y="99.985206" style="fill: #d62728; stroke: #d62728"/>
     <use xlink:href="#m073819847c" x="284.670993" y="100.113176" style="fill: #d62728; stroke: #d62728"/>
     <use xlink:href="#m073819847c" x="294.196596" y="100.227341" style="fill: #d62728; stroke: #d62728"/>
     <use xlink:href="#m073819847c" x="303.722199" y="100.328964" style="fill: #d62728; stroke: #d62728"/>
     <use xlink:href="#m073819847c" x="313.247801" y="100.419284" style="fill: #d62728; stroke: #d62728"/>
     <use xlink:href="#m073819847c" x="322.773404" y="100.499485" style="fill: #d62728; stroke: #d62728"/>
     <use xlink:href="#m073819847c" x="332.299007" y="100.570668" style="fill: #d62728; stroke: #d62728"/>
     <use xlink:href="#m073819847c" x="341.82461" y="100.633838" style="fill: #d62728; stroke: #d62728"/>
     <use xlink:href="#m073819847c" x="351.350213" y="100.689899" style="fill: #d62728; stroke: #d62728"/>
     <use xlink:href="#m073819847c" x="360.875816" y="100.739656" style="fill: #d62728; stroke: #d62728"/>
     <use xlink:href="#m073819847c" x="370.401419" y="100.783821" style="fill: #d62728; stroke: #d62728"/>
     <use xlink:href="#m073819847c" x="379.927022" y="100.823028" style="fill: #d62728; stroke: #d62728"/>
     <use xlink:href="#m073819847c" x="389.452625" y="100.857835" style="fill: #d62728; stroke: #d62728"/>
     <use xlink:href="#m073819847c" x="398.978228" y="100.888737" style="fill: #d62728; stroke: #d62728"/>
     <use xlink:href="#m073819847c" x="408.503831" y="100.916173" style="fill: #d62728; stroke: #d62728"/>
     <use xlink:href="#m073819847c" x="418.029434" y="100.940532" style="fill: #d62728; stroke: #d62728"/>
     <use xlink:href="#m073819847c" x="427.555037" y="100.962159" style="fill: #d62728; stroke: #d62728"/>
     <use xlink:href="#m073819847c" x="437.08064" y="100.98136" style="fill: #d62728; stroke: #d62728"/>
     <use xlink:href="#m073819847c" x="446.606243" y="100.998407" style="fill: #d62728; stroke: #d62728"/>
     <use xlink:href="#m073819847c" x="456.131846" y="101.013542" style="fill: #d62728; stroke: #d62728"/>
     <use xlink:href="#m073819847c" x="465.657449" y="101.02698" style="fill: #d62728; stroke: #d62728"/>
     <use xlink:href="#m073819847c" x="475.183052" y="101.03891" style="fill: #d62728; stroke: #d62728"/>
     <use xlink:href="#m073819847c" x="484.708655" y="101.049502" style="fill: #d62728; stroke: #d62728"/>
     <use xlink:href="#m073819847c" x="494.234258" y="101.058905" style="fill: #d62728; stroke: #d62728"/>
     <use xlink:href="#m073819847c" x="503.759861" y="101.067254" style="fill: #d62728; stroke: #d62728"/>
     <use xlink:href="#m073819847c" x="513.285464" y="101.074667" style="fill: #d62728; stroke: #d62728"/>
     <use xlink:href="#m073819847c" x="522.811067" y="101.081248" style="fill: #d62728; stroke: #d62728"/>
     <use xlink:href="#m073819847c" x="532.33667" y="101.08709" style="fill: #d62728; stroke: #d62728"/>
     <use xlink:href="#m073819847c" x="541.862273" y="101.092278" style="fill: #d62728; stroke: #d62728"/>
    </g>
   </g>
   <g id="line2d_33">
    <path d="M 75.107727 202.064 
L 84.63333 176.831333 
L 94.158933 151.598667 
L 103.684536 132.674167 
L 113.210139 119.072182 
L 122.735742 109.56065 
L 132.261345 103.063053 
L 141.786948 98.737354 
L 151.312551 95.95514 
L 160.838154 94.257993 
L 170.363757 93.315573 
L 179.88936 92.891608 
L 189.414963 92.818038 
L 198.940566 92.975924 
L 208.466169 93.281554 
L 217.991772 93.676405 
L 227.517375 94.119921 
L 237.042978 94.584323 
L 246.568581 95.050896 
L 256.094184 95.507325 
L 265.619787 95.945794 
L 275.14539 96.361627 
L 284.670993 96.752325 
L 294.196596 97.11687 
L 303.722199 97.455247 
L 313.247801 97.768093 
L 322.773404 98.056458 
L 332.299007 98.321638 
L 341.82461 98.565055 
L 351.350213 98.788182 
L 360.875816 98.992486 
L 370.401419 99.179394 
L 379.927022 99.350273 
L 389.452625 99.506415 
L 398.978228 99.649033 
L 408.503831 99.779256 
L 418.029434 99.898131 
L 427.555037 100.006625 
L 437.08064 100.105629 
L 446.606243 100.195962 
L 456.131846 100.278375 
L 465.657449 100.353557 
L 475.183052 100.422139 
L 484.708655 100.484696 
L 494.234258 100.541756 
L 503.759861 100.593801 
L 513.285464 100.641269 
L 522.811067 100.684564 
L 532.33667 100.72405 
L 541.862273 100.760063 
" clip-path="url(#p1d1e2efad8)" style="fill: none; stroke: #9467bd; stroke-width: 2; stroke-linecap: square"/>
    <defs>
     <path id="m1daaec3e48" d="M 0 1.5 
C 0.397805 1.5 0.77937 1.341951 1.06066 1.06066 
C 1.341951 0.77937 1.5 0.397805 1.5 0 
C 1.5 -0.397805 1.341951 -0.77937 1.06066 -1.06066 
C 0.77937 -1.341951 0.397805 -1.5 0 -1.5 
C -0.397805 -1.5 -0.77937 -1.341951 -1.06066 -1.06066 
C -1.341951 -0.77937 -1.5 -0.397805 -1.5 0 
C -1.5 0.397805 -1.341951 0.77937 -1.06066 1.06066 
C -0.77937 1.341951 -0.397805 1.5 0 1.5 
z
" style="stroke: #9467bd"/>
    </defs>
    <g clip-path="url(#p1d1e2efad8)">
     <use xlink:href="#m1daaec3e48" x="75.107727" y="202.064" style="fill: #9467bd; stroke: #9467bd"/>
     <use xlink:href="#m1daaec3e48" x="84.63333" y="176.831333" style="fill: #9467bd; stroke: #9467bd"/>
     <use xlink:href="#m1daaec3e48" x="94.158933" y="151.598667" style="fill: #9467bd; stroke: #9467bd"/>
     <use xlink:href="#m1daaec3e48" x="103.684536" y="132.674167" style="fill: #9467bd; stroke: #9467bd"/>
     <use xlink:href="#m1daaec3e48" x="113.210139" y="119.072182" style="fill: #9467bd; stroke: #9467bd"/>
     <use xlink:href="#m1daaec3e48" x="122.735742" y="109.56065" style="fill: #9467bd; stroke: #9467bd"/>
     <use xlink:href="#m1daaec3e48" x="132.261345" y="103.063053" style="fill: #9467bd; stroke: #9467bd"/>
     <use xlink:href="#m1daaec3e48" x="141.786948" y="98.737354" style="fill: #9467bd; stroke: #9467bd"/>
     <use xlink:href="#m1daaec3e48" x="151.312551" y="95.95514" style="fill: #9467bd; stroke: #9467bd"/>
     <use xlink:href="#m1daaec3e48" x="160.838154" y="94.257993" style="fill: #9467bd; stroke: #9467bd"/>
     <use xlink:href="#m1daaec3e48" x="170.363757" y="93.315573" style="fill: #9467bd; stroke: #9467bd"/>
     <use xlink:href="#m1daaec3e48" x="179.88936" y="92.891608" style="fill: #9467bd; stroke: #9467bd"/>
     <use xlink:href="#m1daaec3e48" x="189.414963" y="92.818038" style="fill: #9467bd; stroke: #9467bd"/>
     <use xlink:href="#m1daaec3e48" x="198.940566" y="92.975924" style="fill: #9467bd; stroke: #9467bd"/>
     <use xlink:href="#m1daaec3e48" x="208.466169" y="93.281554" style="fill: #9467bd; stroke: #9467bd"/>
     <use xlink:href="#m1daaec3e48" x="217.991772" y="93.676405" style="fill: #9467bd; stroke: #9467bd"/>
     <use xlink:href="#m1daaec3e48" x="227.517375" y="94.119921" style="fill: #9467bd; stroke: #9467bd"/>
     <use xlink:href="#m1daaec3e48" x="237.042978" y="94.584323" style="fill: #9467bd; stroke: #9467bd"/>
     <use xlink:href="#m1daaec3e48" x="246.568581" y="95.050896" style="fill: #9467bd; stroke: #9467bd"/>
     <use xlink:href="#m1daaec3e48" x="256.094184" y="95.507325" style="fill: #9467bd; stroke: #9467bd"/>
     <use xlink:href="#m1daaec3e48" x="265.619787" y="95.945794" style="fill: #9467bd; stroke: #9467bd"/>
     <use xlink:href="#m1daaec3e48" x="275.14539" y="96.361627" style="fill: #9467bd; stroke: #9467bd"/>
     <use xlink:href="#m1daaec3e48" x="284.670993" y="96.752325" style="fill: #9467bd; stroke: #9467bd"/>
     <use xlink:href="#m1daaec3e48" x="294.196596" y="97.11687" style="fill: #9467bd; stroke: #9467bd"/>
     <use xlink:href="#m1daaec3e48" x="303.722199" y="97.455247" style="fill: #9467bd; stroke: #9467bd"/>
     <use xlink:href="#m1daaec3e48" x="313.247801" y="97.768093" style="fill: #9467bd; stroke: #9467bd"/>
     <use xlink:href="#m1daaec3e48" x="322.773404" y="98.056458" style="fill: #9467bd; stroke: #9467bd"/>
     <use xlink:href="#m1daaec3e48" x="332.299007" y="98.321638" style="fill: #9467bd; stroke: #9467bd"/>
     <use xlink:href="#m1daaec3e48" x="341.82461" y="98.565055" style="fill: #9467bd; stroke: #9467bd"/>
     <use xlink:href="#m1daaec3e48" x="351.350213" y="98.788182" style="fill: #9467bd; stroke: #9467bd"/>
     <use xlink:href="#m1daaec3e48" x="360.875816" y="98.992486" style="fill: #9467bd; stroke: #9467bd"/>
     <use xlink:href="#m1daaec3e48" x="370.401419" y="99.179394" style="fill: #9467bd; stroke: #9467bd"/>
     <use xlink:href="#m1daaec3e48" x="379.927022" y="99.350273" style="fill: #9467bd; stroke: #9467bd"/>
     <use xlink:href="#m1daaec3e48" x="389.452625" y="99.506415" style="fill: #9467bd; stroke: #9467bd"/>
     <use xlink:href="#m1daaec3e48" x="398.978228" y="99.649033" style="fill: #9467bd; stroke: #9467bd"/>
     <use xlink:href="#m1daaec3e48" x="408.503831" y="99.779256" style="fill: #9467bd; stroke: #9467bd"/>
     <use xlink:href="#m1daaec3e48" x="418.029434" y="99.898131" style="fill: #9467bd; stroke: #9467bd"/>
     <use xlink:href="#m1daaec3e48" x="427.555037" y="100.006625" style="fill: #9467bd; stroke: #9467bd"/>
     <use xlink:href="#m1daaec3e48" x="437.08064" y="100.105629" style="fill: #9467bd; stroke: #9467bd"/>
     <use xlink:href="#m1daaec3e48" x="446.606243" y="100.195962" style="fill: #9467bd; stroke: #9467bd"/>
     <use xlink:href="#m1daaec3e48" x="456.131846" y="100.278375" style="fill: #9467bd; stroke: #9467bd"/>
     <use xlink:href="#m1daaec3e48" x="465.657449" y="100.353557" style="fill: #9467bd; stroke: #9467bd"/>
     <use xlink:href="#m1daaec3e48" x="475.183052" y="100.422139" style="fill: #9467bd; stroke: #9467bd"/>
     <use xlink:href="#m1daaec3e48" x="484.708655" y="100.484696" style="fill: #9467bd; stroke: #9467bd"/>
     <use xlink:href="#m1daaec3e48" x="494.234258" y="100.541756" style="fill: #9467bd; stroke: #9467bd"/>
     <use xlink:href="#m1daaec3e48" x="503.759861" y="100.593801" style="fill: #9467bd; stroke: #9467bd"/>
     <use xlink:href="#m1daaec3e48" x="513.285464" y="100.641269" style="fill: #9467bd; stroke: #9467bd"/>
     <use xlink:href="#m1daaec3e48" x="522.811067" y="100.684564" style="fill: #9467bd; stroke: #9467bd"/>
     <use xlink:href="#m1daaec3e48" x="532.33667" y="100.72405" style="fill: #9467bd; stroke: #9467bd"/>
     <use xlink:href="#m1daaec3e48" x="541.862273" y="100.760063" style="fill: #9467bd; stroke: #9467bd"/>
    </g>
   </g>
   <g id="patch_3">
    <path d="M 51.77 245.32 
L 51.77 29.04 
" style="fill: none; stroke: #000000; stroke-width: 0.8; stroke-linejoin: miter; stroke-linecap: square"/>
   </g>
   <g id="patch_4">
    <path d="M 565.2 245.32 
L 565.2 29.04 
" style="fill: none; stroke: #000000; stroke-width: 0.8; stroke-linejoin: miter; stroke-linecap: square"/>
   </g>
   <g id="patch_5">
    <path d="M 51.77 245.32 
L 565.2 245.32 
" style="fill: none; stroke: #000000; stroke-width: 0.8; stroke-linejoin: miter; stroke-linecap: square"/>
   </g>
   <g id="patch_6">
    <path d="M 51.77 29.04 
L 565.2 29.04 
" style="fill: none; stroke: #000000; stroke-width: 0.8; stroke-linejoin: miter; stroke-linecap: square"/>
   </g>
   <g id="text_17">
    <!-- SIMC Tuning $\tau_c$ Sweep -->
    <g transform="translate(230.015 23.04) scale(0.14 -0.14)">
     <defs>
      <path id="DejaVuSans-53" d="M 3425 4513 
L 3425 3897 
Q 3066 4069 2747 4153 
Q 2428 4238 2131 4238 
Q 1616 4238 1336 4038 
Q 1056 3838 1056 3469 
Q 1056 3159 1242 3001 
Q 1428 2844 1947 2747 
L 2328 2669 
Q 3034 2534 3370 2195 
Q 3706 1856 3706 1288 
Q 3706 609 3251 259 
Q 2797 -91 1919 -91 
Q 1588 -91 1214 -16 
Q 841 59 441 206 
L 441 856 
Q 825 641 1194 531 
Q 1563 422 1919 422 
Q 2459 422 2753 634 
Q 3047 847 3047 1241 
Q 3047 1584 2836 1778 
Q 2625 1972 2144 2069 
L 1759 2144 
Q 1053 2284 737 2584 
Q 422 2884 422 3419 
Q 422 4038 858 4394 
Q 1294 4750 2059 4750 
Q 2388 4750 2728 4690 
Q 3069 4631 3425 4513 
z
" transform="scale(0.015625)"/>
      <path id="DejaVuSans-49" d="M 628 4666 
L 1259 4666 
L 1259 0 
L 628 0 
L 628 4666 
z
" transform="scale(0.015625)"/>
      <path id="DejaVuSans-4d" d="M 628 4666 
L 1569 4666 
L 2759 1491 
L 3956 4666 
L 4897 4666 
L 4897 0 
L 4281 0 
L 4281 4097 
L 3078 897 
L 2444 897 
L 1241 4097 
L 1241 0 
L 628 0 
L 628 4666 
z
" transform="scale(0.015625)"/>
      <path id="DejaVuSans-43" d="M 4122 4306 
L 4122 3641 
Q 3803 3938 3442 4084 
Q 3081 4231 2675 4231 
Q 1875 4231 1450 3742 
Q 1025 3253 1025 2328 
Q 1025 1406 1450 917 
Q 1875 428 2675 428 
Q 3081 428 3442 575 
Q 3803 722 4122 1019 
L 4122 359 
Q 3791 134 3420 21 
Q 3050 -91 2638 -91 
Q 1578 -91 968 557 
Q 359 1206 359 2328 
Q 359 3453 968 4101 
Q 1578 4750 2638 4750 
Q 3056 4750 3426 4639 
Q 3797 4528 4122 4306 
z
" transform="scale(0.015625)"/>
      <path id="DejaVuSans-6e" d="M 3513 2113 
L 3513 0 
L 2938 0 
L 2938 2094 
Q 2938 2591 2744 2837 
Q 2550 3084 2163 3084 
Q 1697 3084 1428 2787 
Q 1159 2491 1159 1978 
L 1159 0 
L 581 0 
L 581 3500 
L 1159 3500 
L 1159 2956 
Q 1366 3272 1645 3428 
Q 1925 3584 2291 3584 
Q 2894 3584 3203 3211 
Q 3513 2838 3513 2113 
z
" transform="scale(0.015625)"/>
      <path id="DejaVuSans-67" d="M 2906 1791 
Q 2906 2416 2648 2759 
Q 2391 3103 1925 3103 
Q 1463 3103 1205 2759 
Q 947 2416 947 1791 
Q 947 1169 1205 825 
Q 1463 481 1925 481 
Q 2391 481 2648 825 
Q 2906 1169 2906 1791 
z
M 3481 434 
Q 3481 -459 3084 -895 
Q 2688 -1331 1869 -1331 
Q 1566 -1331 1297 -1286 
Q 1028 -1241 775 -1147 
L 775 -588 
Q 1028 -725 1275 -790 
Q 1522 -856 1778 -856 
Q 2344 -856 2625 -561 
Q 2906 -266 2906 331 
L 2906 616 
Q 2728 306 2450 153 
Q 2172 0 1784 0 
Q 1141 0 747 490 
Q 353 981 353 1791 
Q 353 2603 747 3093 
Q 1141 3584 1784 3584 
Q 2172 3584 2450 3431 
Q 2728 3278 2906 2969 
L 2906 3500 
L 3481 3500 
L 3481 434 
z
" transform="scale(0.015625)"/>
      <path id="DejaVuSans-Oblique-3c4" d="M 2103 638 
Q 2188 488 2525 488 
L 2800 488 
L 2706 0 
L 2363 0 
Q 1800 0 1600 300 
Q 1403 606 1534 1269 
L 1856 2925 
L 541 2925 
L 653 3500 
L 3881 3500 
L 3769 2925 
L 2444 2925 
L 2113 1234 
Q 2025 781 2103 638 
z
" transform="scale(0.015625)"/>
      <path id="DejaVuSans-Oblique-63" d="M 3431 3366 
L 3316 2797 
Q 3109 2947 2876 3022 
Q 2644 3097 2394 3097 
Q 2119 3097 1870 3000 
Q 1622 2903 1453 2725 
Q 1184 2453 1037 2087 
Q 891 1722 891 1331 
Q 891 859 1127 628 
Q 1363 397 1844 397 
Q 2081 397 2348 469 
Q 2616 541 2906 684 
L 2797 116 
Q 2547 13 2283 -39 
Q 2019 -91 1741 -91 
Q 1044 -91 669 257 
Q 294 606 294 1253 
Q 294 1797 489 2255 
Q 684 2713 1069 3078 
Q 1331 3328 1684 3456 
Q 2038 3584 2456 3584 
Q 2700 3584 2940 3529 
Q 3181 3475 3431 3366 
z
" transform="scale(0.015625)"/>
      <path id="DejaVuSans-77" d="M 269 3500 
L 844 3500 
L 1563 769 
L 2278 3500 
L 2956 3500 
L 3675 769 
L 4391 3500 
L 4966 3500 
L 4050 0 
L 3372 0 
L 2619 2869 
L 1863 0 
L 1184 0 
L 269 3500 
z
" transform="scale(0.015625)"/>
     </defs>
     <use xlink:href="#DejaVuSans-53" transform="translate(0 0.015625)"/>
     <use xlink:href="#DejaVuSans-49" transform="translate(63.476562 0.015625)"/>
     <use xlink:href="#DejaVuSans-4d" transform="translate(92.96875 0.015625)"/>
     <use xlink:href="#DejaVuSans-43" transform="translate(179.248047 0.015625)"/>
     <use xlink:href="#DejaVuSans-20" transform="translate(249.072266 0.015625)"/>
     <use xlink:href="#DejaVuSans-54" transform="translate(280.859375 0.015625)"/>
     <use xlink:href="#DejaVuSans-75" transform="translate(341.943359 0.015625)"/>
     <use xlink:href="#DejaVuSans-6e" transform="translate(405.322266 0.015625)"/>
     <use xlink:href="#DejaVuSans-69" transform="translate(468.701172 0.015625)"/>
     <use xlink:href="#DejaVuSans-6e" transform="translate(496.484375 0.015625)"/>
     <use xlink:href="#DejaVuSans-67" transform="translate(559.863281 0.015625)"/>
     <use xlink:href="#DejaVuSans-20" transform="translate(623.339844 0.015625)"/>
     <use xlink:href="#DejaVuSans-Oblique-3c4" transform="translate(655.126953 0.015625)"/>
     <use xlink:href="#DejaVuSans-Oblique-63" transform="translate(715.332031 -16.390625) scale(0.7)"/>
     <use xlink:href="#DejaVuSans-20" transform="translate(756.552734 0.015625)"/>
     <use xlink:href="#DejaVuSans-53" transform="translate(788.339844 0.015625)"/>
     <use xlink:href="#DejaVuSans-77" transform="translate(851.816406 0.015625)"/>
     <use xlink:href="#DejaVuSans-65" transform="translate(933.603516 0.015625)"/>
     <use xlink:href="#DejaVuSans-65" transform="translate(995.126953 0.015625)"/>
     <use xlink:href="#DejaVuSans-70" transform="translate(1056.650391 0.015625)"/>
    </g>
   </g>
   <g id="legend_1">
    <g id="patch_7">
     <path d="M 491.7 240.32 
L 558.2 240.32 
Q 560.2 240.32 560.2 238.32 
L 560.2 165.929375 
Q 560.2 163.929375 558.2 163.929375 
L 491.7 163.929375 
Q 489.7 163.929375 489.7 165.929375 
L 489.7 238.32 
Q 489.7 240.32 491.7 240.32 
z
" style="fill: #ffffff; opacity: 0.8; stroke: #cccccc; stroke-linejoin: miter"/>
    </g>
    <g id="line2d_34">
     <path d="M 493.7 172.027812 
L 503.7 172.027812 
L 513.7 172.027812 
" style="fill: none; stroke: #1f77b4; stroke-width: 2; stroke-linecap: square"/>
     <g>
      <use xlink:href="#me6f85c6cbf" x="503.7" y="172.027812" style="fill: #1f77b4; stroke: #1f77b4"/>
     </g>
    </g>
    <g id="text_18">
     <!-- $\tau_c$=0.5 -->
     <g transform="translate(521.7 175.527812) scale(0.1 -0.1)">
      <defs>
       <path id="DejaVuSans-3d" d="M 678 2906 
L 4684 2906 
L 4684 2381 
L 678 2381 
L 678 2906 
z
M 678 1631 
L 4684 1631 
L 4684 1100 
L 678 1100 
L 678 1631 
z
" transform="scale(0.015625)"/>
       <path id="DejaVuSans-2e" d="M 684 794 
L 1344 794 
L 1344 0 
L 684 0 
L 684 794 
z
" transform="scale(0.015625)"/>
      </defs>
      <use xlink:href="#DejaVuSans-Oblique-3c4" transform="translate(0 0.78125)"/>
      <use xlink:href="#DejaVuSans-Oblique-63" transform="translate(60.205078 -15.625) scale(0.7)"/>
      <use xlink:href="#DejaVuSans-3d" transform="translate(101.425781 0.78125)"/>
      <use xlink:href="#DejaVuSans-30" transform="translate(185.214844 0.78125)"/>
      <use xlink:href="#DejaVuSans-2e" transform="translate(248.837891 0.78125)"/>
      <use xlink:href="#DejaVuSans-35" transform="translate(280.625 0.78125)"/>
     </g>
    </g>
    <g id="line2d_35">
     <path d="M 493.7 186.705937 
L 503.7 186.705937 
L 513.7 186.705937 
" style="fill: none; stroke: #ff7f0e; stroke-width: 2; stroke-linecap: square"/>
     <g>
      <use xlink:href="#m40a38eb08f" x="503.7" y="186.705937" style="fill: #ff7f0e; stroke: #ff7f0e"/>
     </g>
    </g>
    <g id="text_19">
     <!-- $\tau_c$=1 -->
     <g transform="translate(521.7 190.205937) scale(0.1 -0.1)">
      <use xlink:href="#DejaVuSans-Oblique-3c4" transform="translate(0 0.09375)"/>
      <use xlink:href="#DejaVuSans-Oblique-63" transform="translate(60.205078 -16.3125) scale(0.7)"/>
      <use xlink:href="#DejaVuSans-3d" transform="translate(101.425781 0.09375)"/>
      <use xlink:href="#DejaVuSans-31" transform="translate(185.214844 0.09375)"/>
     </g>
    </g>
    <g id="line2d_36">
     <path d="M 493.7 201.384062 
L 503.7 201.384062 
L 513.7 201.384062 
" style="fill: none; stroke: #2ca02c; stroke-width: 2; stroke-linecap: square"/>
     <g>
      <use xlink:href="#m842e6b5ff1" x="503.7" y="201.384062" style="fill: #2ca02c; stroke: #2ca02c"/>
     </g>
    </g>
    <g id="text_20">
     <!-- $\tau_c$=1.5 -->
     <g transform="translate(521.7 204.884062) scale(0.1 -0.1)">
      <use xlink:href="#DejaVuSans-Oblique-3c4" transform="translate(0 0.09375)"/>
      <use xlink:href="#DejaVuSans-Oblique-63" transform="translate(60.205078 -16.3125) scale(0.7)"/>
      <use xlink:href="#DejaVuSans-3d" transform="translate(101.425781 0.09375)"/>
      <use xlink:href="#DejaVuSans-31" transform="translate(185.214844 0.09375)"/>
      <use xlink:href="#DejaVuSans-2e" transform="translate(248.837891 0.09375)"/>
      <use xlink:href="#DejaVuSans-35" transform="translate(280.625 0.09375)"/>
     </g>
    </g>
    <g id="line2d_37">
     <path d="M 493.7 216.062187 
L 503.7 216.062187 
L 513.7 216.062187 
" style="fill: none; stroke: #d62728; stroke-width: 2; stroke-linecap: square"/>
     <g>
      <use xlink:href="#m073819847c" x="503.7" y="216.062187" style="fill: #d62728; stroke: #d62728"/>
     </g>
    </g>
    <g id="text_21">
     <!-- $\tau_c$=2 -->
     <g transform="translate(521.7 219.562187) scale(0.1 -0.1)">
      <use xlink:href="#DejaVuSans-Oblique-3c4" transform="translate(0 0.78125)"/>
      <use xlink:href="#DejaVuSans-Oblique-63" transform="translate(60.205078 -15.625) scale(0.7)"/>
      <use xlink:href="#DejaVuSans-3d" transform="translate(101.425781 0.78125)"/>
      <use xlink:href="#DejaVuSans-32" transform="translate(185.214844 0.78125)"/>
     </g>
    </g>
    <g id="line2d_38">
     <path d="M 493.7 230.740312 
L 503.7 230.740312 
L 513.7 230.740312 
" style="fill: none; stroke: #9467bd; stroke-width: 2; stroke-linecap: square"/>
     <g>
      <use xlink:href="#m1daaec3e48" x="503.7" y="230.740312" style="fill: #9467bd; stroke: #9467bd"/>
     </g>
    </g>
    <g id="text_22">
     <!-- $\tau_c$=3 -->
     <g transform="translate(521.7 234.240312) scale(0.1 -0.1)">
      <use xlink:href="#DejaVuSans-Oblique-3c4" transform="translate(0 0.78125)"/>
      <use xlink:href="#DejaVuSans-Oblique-63" transform="translate(60.205078 -15.625) scale(0.7)"/>
      <use xlink:href="#DejaVuSans-3d" transform="translate(101.425781 0.78125)"/>
      <use xlink:href="#DejaVuSans-33" transform="translate(185.214844 0.78125)"/>
     </g>
    </g>
   </g>
  </g>
 </g>
 <defs>
  <clipPath id="p1d1e2efad8">
   <rect x="51.77" y="29.04" width="513.43" height="216.28"/>
  </clipPath>
 </defs>
</svg>
