<?xml version="1.0" encoding="utf-8" standalone="no"?>
<!DOCTYPE svg PUBLIC "-//W3C//DTD SVG 1.1//EN"
  "http://www.w3.org/Graphics/SVG/1.1/DTD/svg11.dtd">
<svg xmlns:xlink="http://www.w3.org/1999/xlink" width="576pt" height="288pt" viewBox="0 0 576 288" xmlns="http://www.w3.org/2000/svg" version="1.1">
 <metadata>
  <rdf:RDF xmlns:dc="http://purl.org/dc/elements/1.1/" xmlns:cc="http://creativecommons.org/ns#" xmlns:rdf="http://www.w3.org/1999/02/22-rdf-syntax-ns#">
   <cc:Work>
    <dc:type rdf:resource="http://purl.org/dc/dcmitype/StillImage"/>
    <dc:date>2025-06-13T23:30:36.691728</dc:date>
    <dc:format>image/svg+xml</dc:format>
    <dc:creator>
     <cc:Agent>
      <dc:title>Matplotlib v3.10.1, https://matplotlib.org/</dc:title>
     </cc:Agent>
    </dc:creator>
   </cc:Work>
  </rdf:RDF>
 </metadata>
 <defs>
  <style type="text/css">*{stroke-linejoin: round; stroke-linecap: butt}</style>
 </defs>
 <g id="figure_1">
  <g id="patch_1">
   <path d="M 0 288 
L 576 288 
L 576 0 
L 0 0 
z
" style="fill: #ffffff"/>
  </g>
  <g id="axes_1">
   <g id="patch_2">
    <path d="M 53.84 243.16 
L 510.73 243.16 
L 510.73 29.04 
L 53.84 29.04 
z
" style="fill: #ffffff"/>
   </g>
   <g id="matplotlib.axis_1">
    <g id="xtick_1">
     <g id="line2d_1">
      <path d="M 56.933066 243.16 
L 56.933066 29.04 
" clip-path="url(#pcc4a8d943b)" style="fill: none; stroke-dasharray: 0.8,1.32; stroke-dashoffset: 0; stroke: #b0b0b0; stroke-opacity: 0.7; stroke-width: 0.8"/>
     </g>
     <g id="line2d_2">
      <defs>
       <path id="m4d6652a187" d="M 0 0 
L 0 3.5 
" style="stroke: #000000; stroke-width: 0.8"/>
      </defs>
      <g>
       <use xlink:href="#m4d6652a187" x="56.933066" y="243.16" style="stroke: #000000; stroke-width: 0.8"/>
      </g>
     </g>
     <g id="text_1">
      <!-- 0 -->
      <g transform="translate(53.751816 257.758438) scale(0.1 -0.1)">
       <defs>
        <path id="DejaVuSans-30" d="M 2034 4250 
Q 1547 4250 1301 3770 
Q 1056 3291 1056 2328 
Q 1056 1369 1301 889 
Q 1547 409 2034 409 
Q 2525 409 2770 889 
Q 3016 1369 3016 2328 
Q 3016 3291 2770 3770 
Q 2525 4250 2034 4250 
z
M 2034 4750 
Q 2819 4750 3233 4129 
Q 3647 3509 3647 2328 
Q 3647 1150 3233 529 
Q 2819 -91 2034 -91 
Q 1250 -91 836 529 
Q 422 1150 422 2328 
Q 422 3509 836 4129 
Q 1250 4750 2034 4750 
z
" transform="scale(0.015625)"/>
       </defs>
       <use xlink:href="#DejaVuSans-30"/>
      </g>
     </g>
    </g>
    <g id="xtick_2">
     <g id="line2d_3">
      <path d="M 143.538907 243.16 
L 143.538907 29.04 
" clip-path="url(#pcc4a8d943b)" style="fill: none; stroke-dasharray: 0.8,1.32; stroke-dashoffset: 0; stroke: #b0b0b0; stroke-opacity: 0.7; stroke-width: 0.8"/>
     </g>
     <g id="line2d_4">
      <g>
       <use xlink:href="#m4d6652a187" x="143.538907" y="243.16" style="stroke: #000000; stroke-width: 0.8"/>
      </g>
     </g>
     <g id="text_2">
      <!-- 10 -->
      <g transform="translate(137.176407 257.758438) scale(0.1 -0.1)">
       <defs>
        <path id="DejaVuSans-31" d="M 794 531 
L 1825 531 
L 1825 4091 
L 703 3866 
L 703 4441 
L 1819 4666 
L 2450 4666 
L 2450 531 
L 3481 531 
L 3481 0 
L 794 0 
L 794 531 
z
" transform="scale(0.015625)"/>
       </defs>
       <use xlink:href="#DejaVuSans-31"/>
       <use xlink:href="#DejaVuSans-30" transform="translate(63.623047 0)"/>
      </g>
     </g>
    </g>
    <g id="xtick_3">
     <g id="line2d_5">
      <path d="M 230.144749 243.16 
L 230.144749 29.04 
" clip-path="url(#pcc4a8d943b)" style="fill: none; stroke-dasharray: 0.8,1.32; stroke-dashoffset: 0; stroke: #b0b0b0; stroke-opacity: 0.7; stroke-width: 0.8"/>
     </g>
     <g id="line2d_6">
      <g>
       <use xlink:href="#m4d6652a187" x="230.144749" y="243.16" style="stroke: #000000; stroke-width: 0.8"/>
      </g>
     </g>
     <g id="text_3">
      <!-- 20 -->
      <g transform="translate(223.782249 257.758438) scale(0.1 -0.1)">
       <defs>
        <path id="DejaVuSans-32" d="M 1228 531 
L 3431 531 
L 3431 0 
L 469 0 
L 469 531 
Q 828 903 1448 1529 
Q 2069 2156 2228 2338 
Q 2531 2678 2651 2914 
Q 2772 3150 2772 3378 
Q 2772 3750 2511 3984 
Q 2250 4219 1831 4219 
Q 1534 4219 1204 4116 
Q 875 4013 500 3803 
L 500 4441 
Q 881 4594 1212 4672 
Q 1544 4750 1819 4750 
Q 2544 4750 2975 4387 
Q 3406 4025 3406 3419 
Q 3406 3131 3298 2873 
Q 3191 2616 2906 2266 
Q 2828 2175 2409 1742 
Q 1991 1309 1228 531 
z
" transform="scale(0.015625)"/>
       </defs>
       <use xlink:href="#DejaVuSans-32"/>
       <use xlink:href="#DejaVuSans-30" transform="translate(63.623047 0)"/>
      </g>
     </g>
    </g>
    <g id="xtick_4">
     <g id="line2d_7">
      <path d="M 316.75059 243.16 
L 316.75059 29.04 
" clip-path="url(#pcc4a8d943b)" style="fill: none; stroke-dasharray: 0.8,1.32; stroke-dashoffset: 0; stroke: #b0b0b0; stroke-opacity: 0.7; stroke-width: 0.8"/>
     </g>
     <g id="line2d_8">
      <g>
       <use xlink:href="#m4d6652a187" x="316.75059" y="243.16" style="stroke: #000000; stroke-width: 0.8"/>
      </g>
     </g>
     <g id="text_4">
      <!-- 30 -->
      <g transform="translate(310.38809 257.758438) scale(0.1 -0.1)">
       <defs>
        <path id="DejaVuSans-33" d="M 2597 2516 
Q 3050 2419 3304 2112 
Q 3559 1806 3559 1356 
Q 3559 666 3084 287 
Q 2609 -91 1734 -91 
Q 1441 -91 1130 -33 
Q 819 25 488 141 
L 488 750 
Q 750 597 1062 519 
Q 1375 441 1716 441 
Q 2309 441 2620 675 
Q 2931 909 2931 1356 
Q 2931 1769 2642 2001 
Q 2353 2234 1838 2234 
L 1294 2234 
L 1294 2753 
L 1863 2753 
Q 2328 2753 2575 2939 
Q 2822 3125 2822 3475 
Q 2822 3834 2567 4026 
Q 2313 4219 1838 4219 
Q 1578 4219 1281 4162 
Q 984 4106 628 3988 
L 628 4550 
Q 988 4650 1302 4700 
Q 1616 4750 1894 4750 
Q 2613 4750 3031 4423 
Q 3450 4097 3450 3541 
Q 3450 3153 3228 2886 
Q 3006 2619 2597 2516 
z
" transform="scale(0.015625)"/>
       </defs>
       <use xlink:href="#DejaVuSans-33"/>
       <use xlink:href="#DejaVuSans-30" transform="translate(63.623047 0)"/>
      </g>
     </g>
    </g>
    <g id="xtick_5">
     <g id="line2d_9">
      <path d="M 403.356431 243.16 
L 403.356431 29.04 
" clip-path="url(#pcc4a8d943b)" style="fill: none; stroke-dasharray: 0.8,1.32; stroke-dashoffset: 0; stroke: #b0b0b0; stroke-opacity: 0.7; stroke-width: 0.8"/>
     </g>
     <g id="line2d_10">
      <g>
       <use xlink:href="#m4d6652a187" x="403.356431" y="243.16" style="stroke: #000000; stroke-width: 0.8"/>
      </g>
     </g>
     <g id="text_5">
      <!-- 40 -->
      <g transform="translate(396.993931 257.758438) scale(0.1 -0.1)">
       <defs>
        <path id="DejaVuSans-34" d="M 2419 4116 
L 825 1625 
L 2419 1625 
L 2419 4116 
z
M 2253 4666 
L 3047 4666 
L 3047 1625 
L 3713 1625 
L 3713 1100 
L 3047 1100 
L 3047 0 
L 2419 0 
L 2419 1100 
L 313 1100 
L 313 1709 
L 2253 4666 
z
" transform="scale(0.015625)"/>
       </defs>
       <use xlink:href="#DejaVuSans-34"/>
       <use xlink:href="#DejaVuSans-30" transform="translate(63.623047 0)"/>
      </g>
     </g>
    </g>
    <g id="xtick_6">
     <g id="line2d_11">
      <path d="M 489.962273 243.16 
L 489.962273 29.04 
" clip-path="url(#pcc4a8d943b)" style="fill: none; stroke-dasharray: 0.8,1.32; stroke-dashoffset: 0; stroke: #b0b0b0; stroke-opacity: 0.7; stroke-width: 0.8"/>
     </g>
     <g id="line2d_12">
      <g>
       <use xlink:href="#m4d6652a187" x="489.962273" y="243.16" style="stroke: #000000; stroke-width: 0.8"/>
      </g>
     </g>
     <g id="text_6">
      <!-- 50 -->
      <g transform="translate(483.599773 257.758438) scale(0.1 -0.1)">
       <defs>
        <path id="DejaVuSans-35" d="M 691 4666 
L 3169 4666 
L 3169 4134 
L 1269 4134 
L 1269 2991 
Q 1406 3038 1543 3061 
Q 1681 3084 1819 3084 
Q 2600 3084 3056 2656 
Q 3513 2228 3513 1497 
Q 3513 744 3044 326 
Q 2575 -91 1722 -91 
Q 1428 -91 1123 -41 
Q 819 9 494 109 
L 494 744 
Q 775 591 1075 516 
Q 1375 441 1709 441 
Q 2250 441 2565 725 
Q 2881 1009 2881 1497 
Q 2881 1984 2565 2268 
Q 2250 2553 1709 2553 
Q 1456 2553 1204 2497 
Q 953 2441 691 2322 
L 691 4666 
z
" transform="scale(0.015625)"/>
       </defs>
       <use xlink:href="#DejaVuSans-35"/>
       <use xlink:href="#DejaVuSans-30" transform="translate(63.623047 0)"/>
      </g>
     </g>
    </g>
    <g id="text_7">
     <!-- Time (s) -->
     <g transform="translate(257.890312 272.95625) scale(0.12 -0.12)">
      <defs>
       <path id="DejaVuSans-54" d="M -19 4666 
L 3928 4666 
L 3928 4134 
L 2272 4134 
L 2272 0 
L 1638 0 
L 1638 4134 
L -19 4134 
L -19 4666 
z
" transform="scale(0.015625)"/>
       <path id="DejaVuSans-69" d="M 603 3500 
L 1178 3500 
L 1178 0 
L 603 0 
L 603 3500 
z
M 603 4863 
L 1178 4863 
L 1178 4134 
L 603 4134 
L 603 4863 
z
" transform="scale(0.015625)"/>
       <path id="DejaVuSans-6d" d="M 3328 2828 
Q 3544 3216 3844 3400 
Q 4144 3584 4550 3584 
Q 5097 3584 5394 3201 
Q 5691 2819 5691 2113 
L 5691 0 
L 5113 0 
L 5113 2094 
Q 5113 2597 4934 2840 
Q 4756 3084 4391 3084 
Q 3944 3084 3684 2787 
Q 3425 2491 3425 1978 
L 3425 0 
L 2847 0 
L 2847 2094 
Q 2847 2600 2669 2842 
Q 2491 3084 2119 3084 
Q 1678 3084 1418 2786 
Q 1159 2488 1159 1978 
L 1159 0 
L 581 0 
L 581 3500 
L 1159 3500 
L 1159 2956 
Q 1356 3278 1631 3431 
Q 1906 3584 2284 3584 
Q 2666 3584 2933 3390 
Q 3200 3197 3328 2828 
z
" transform="scale(0.015625)"/>
       <path id="DejaVuSans-65" d="M 3597 1894 
L 3597 1613 
L 953 1613 
Q 991 1019 1311 708 
Q 1631 397 2203 397 
Q 2534 397 2845 478 
Q 3156 559 3463 722 
L 3463 178 
Q 3153 47 2828 -22 
Q 2503 -91 2169 -91 
Q 1331 -91 842 396 
Q 353 884 353 1716 
Q 353 2575 817 3079 
Q 1281 3584 2069 3584 
Q 2775 3584 3186 3129 
Q 3597 2675 3597 1894 
z
M 3022 2063 
Q 3016 2534 2758 2815 
Q 2500 3097 2075 3097 
Q 1594 3097 1305 2825 
Q 1016 2553 972 2059 
L 3022 2063 
z
" transform="scale(0.015625)"/>
       <path id="DejaVuSans-20" transform="scale(0.015625)"/>
       <path id="DejaVuSans-28" d="M 1984 4856 
Q 1566 4138 1362 3434 
Q 1159 2731 1159 2009 
Q 1159 1288 1364 580 
Q 1569 -128 1984 -844 
L 1484 -844 
Q 1016 -109 783 600 
Q 550 1309 550 2009 
Q 550 2706 781 3412 
Q 1013 4119 1484 4856 
L 1984 4856 
z
" transform="scale(0.015625)"/>
       <path id="DejaVuSans-73" d="M 2834 3397 
L 2834 2853 
Q 2591 2978 2328 3040 
Q 2066 3103 1784 3103 
Q 1356 3103 1142 2972 
Q 928 2841 928 2578 
Q 928 2378 1081 2264 
Q 1234 2150 1697 2047 
L 1894 2003 
Q 2506 1872 2764 1633 
Q 3022 1394 3022 966 
Q 3022 478 2636 193 
Q 2250 -91 1575 -91 
Q 1294 -91 989 -36 
Q 684 19 347 128 
L 347 722 
Q 666 556 975 473 
Q 1284 391 1588 391 
Q 1994 391 2212 530 
Q 2431 669 2431 922 
Q 2431 1156 2273 1281 
Q 2116 1406 1581 1522 
L 1381 1569 
Q 847 1681 609 1914 
Q 372 2147 372 2553 
Q 372 3047 722 3315 
Q 1072 3584 1716 3584 
Q 2034 3584 2315 3537 
Q 2597 3491 2834 3397 
z
" transform="scale(0.015625)"/>
       <path id="DejaVuSans-29" d="M 513 4856 
L 1013 4856 
Q 1481 4119 1714 3412 
Q 1947 2706 1947 2009 
Q 1947 1309 1714 600 
Q 1481 -109 1013 -844 
L 513 -844 
Q 928 -128 1133 580 
Q 1338 1288 1338 2009 
Q 1338 2731 1133 3434 
Q 928 4138 513 4856 
z
" transform="scale(0.015625)"/>
      </defs>
      <use xlink:href="#DejaVuSans-54"/>
      <use xlink:href="#DejaVuSans-69" transform="translate(57.958984 0)"/>
      <use xlink:href="#DejaVuSans-6d" transform="translate(85.742188 0)"/>
      <use xlink:href="#DejaVuSans-65" transform="translate(183.154297 0)"/>
      <use xlink:href="#DejaVuSans-20" transform="translate(244.677734 0)"/>
      <use xlink:href="#DejaVuSans-28" transform="translate(276.464844 0)"/>
      <use xlink:href="#DejaVuSans-73" transform="translate(315.478516 0)"/>
      <use xlink:href="#DejaVuSans-29" transform="translate(367.578125 0)"/>
     </g>
    </g>
   </g>
   <g id="matplotlib.axis_2">
    <g id="ytick_1">
     <g id="line2d_13">
      <path d="M 53.84 243.16 
L 510.73 243.16 
" clip-path="url(#pcc4a8d943b)" style="fill: none; stroke-dasharray: 0.8,1.32; stroke-dashoffset: 0; stroke: #b0b0b0; stroke-opacity: 0.7; stroke-width: 0.8"/>
     </g>
     <g id="line2d_14">
      <defs>
       <path id="ma0f4b195b1" d="M 0 0 
L -3.5 0 
" style="stroke: #000000; stroke-width: 0.8"/>
      </defs>
      <g>
       <use xlink:href="#ma0f4b195b1" x="53.84" y="243.16" style="stroke: #000000; stroke-width: 0.8"/>
      </g>
     </g>
     <g id="text_8">
      <!-- 290 -->
      <g transform="translate(27.7525 246.959219) scale(0.1 -0.1)">
       <defs>
        <path id="DejaVuSans-39" d="M 703 97 
L 703 672 
Q 941 559 1184 500 
Q 1428 441 1663 441 
Q 2288 441 2617 861 
Q 2947 1281 2994 2138 
Q 2813 1869 2534 1725 
Q 2256 1581 1919 1581 
Q 1219 1581 811 2004 
Q 403 2428 403 3163 
Q 403 3881 828 4315 
Q 1253 4750 1959 4750 
Q 2769 4750 3195 4129 
Q 3622 3509 3622 2328 
Q 3622 1225 3098 567 
Q 2575 -91 1691 -91 
Q 1453 -91 1209 -44 
Q 966 3 703 97 
z
M 1959 2075 
Q 2384 2075 2632 2365 
Q 2881 2656 2881 3163 
Q 2881 3666 2632 3958 
Q 2384 4250 1959 4250 
Q 1534 4250 1286 3958 
Q 1038 3666 1038 3163 
Q 1038 2656 1286 2365 
Q 1534 2075 1959 2075 
z
" transform="scale(0.015625)"/>
       </defs>
       <use xlink:href="#DejaVuSans-32"/>
       <use xlink:href="#DejaVuSans-39" transform="translate(63.623047 0)"/>
       <use xlink:href="#DejaVuSans-30" transform="translate(127.246094 0)"/>
      </g>
     </g>
    </g>
    <g id="ytick_2">
     <g id="line2d_15">
      <path d="M 53.84 207.473333 
L 510.73 207.473333 
" clip-path="url(#pcc4a8d943b)" style="fill: none; stroke-dasharray: 0.8,1.32; stroke-dashoffset: 0; stroke: #b0b0b0; stroke-opacity: 0.7; stroke-width: 0.8"/>
     </g>
     <g id="line2d_16">
      <g>
       <use xlink:href="#ma0f4b195b1" x="53.84" y="207.473333" style="stroke: #000000; stroke-width: 0.8"/>
      </g>
     </g>
     <g id="text_9">
      <!-- 291 -->
      <g transform="translate(27.7525 211.272552) scale(0.1 -0.1)">
       <use xlink:href="#DejaVuSans-32"/>
       <use xlink:href="#DejaVuSans-39" transform="translate(63.623047 0)"/>
       <use xlink:href="#DejaVuSans-31" transform="translate(127.246094 0)"/>
      </g>
     </g>
    </g>
    <g id="ytick_3">
     <g id="line2d_17">
      <path d="M 53.84 171.786667 
L 510.73 171.786667 
" clip-path="url(#pcc4a8d943b)" style="fill: none; stroke-dasharray: 0.8,1.32; stroke-dashoffset: 0; stroke: #b0b0b0; stroke-opacity: 0.7; stroke-width: 0.8"/>
     </g>
     <g id="line2d_18">
      <g>
       <use xlink:href="#ma0f4b195b1" x="53.84" y="171.786667" style="stroke: #000000; stroke-width: 0.8"/>
      </g>
     </g>
     <g id="text_10">
      <!-- 292 -->
      <g transform="translate(27.7525 175.585885) scale(0.1 -0.1)">
       <use xlink:href="#DejaVuSans-32"/>
       <use xlink:href="#DejaVuSans-39" transform="translate(63.623047 0)"/>
       <use xlink:href="#DejaVuSans-32" transform="translate(127.246094 0)"/>
      </g>
     </g>
    </g>
    <g id="ytick_4">
     <g id="line2d_19">
      <path d="M 53.84 136.1 
L 510.73 136.1 
" clip-path="url(#pcc4a8d943b)" style="fill: none; stroke-dasharray: 0.8,1.32; stroke-dashoffset: 0; stroke: #b0b0b0; stroke-opacity: 0.7; stroke-width: 0.8"/>
     </g>
     <g id="line2d_20">
      <g>
       <use xlink:href="#ma0f4b195b1" x="53.84" y="136.1" style="stroke: #000000; stroke-width: 0.8"/>
      </g>
     </g>
     <g id="text_11">
      <!-- 293 -->
      <g transform="translate(27.7525 139.899219) scale(0.1 -0.1)">
       <use xlink:href="#DejaVuSans-32"/>
       <use xlink:href="#DejaVuSans-39" transform="translate(63.623047 0)"/>
       <use xlink:href="#DejaVuSans-33" transform="translate(127.246094 0)"/>
      </g>
     </g>
    </g>
    <g id="ytick_5">
     <g id="line2d_21">
      <path d="M 53.84 100.413333 
L 510.73 100.413333 
" clip-path="url(#pcc4a8d943b)" style="fill: none; stroke-dasharray: 0.8,1.32; stroke-dashoffset: 0; stroke: #b0b0b0; stroke-opacity: 0.7; stroke-width: 0.8"/>
     </g>
     <g id="line2d_22">
      <g>
       <use xlink:href="#ma0f4b195b1" x="53.84" y="100.413333" style="stroke: #000000; stroke-width: 0.8"/>
      </g>
     </g>
     <g id="text_12">
      <!-- 294 -->
      <g transform="translate(27.7525 104.212552) scale(0.1 -0.1)">
       <use xlink:href="#DejaVuSans-32"/>
       <use xlink:href="#DejaVuSans-39" transform="translate(63.623047 0)"/>
       <use xlink:href="#DejaVuSans-34" transform="translate(127.246094 0)"/>
      </g>
     </g>
    </g>
    <g id="ytick_6">
     <g id="line2d_23">
      <path d="M 53.84 64.726667 
L 510.73 64.726667 
" clip-path="url(#pcc4a8d943b)" style="fill: none; stroke-dasharray: 0.8,1.32; stroke-dashoffset: 0; stroke: #b0b0b0; stroke-opacity: 0.7; stroke-width: 0.8"/>
     </g>
     <g id="line2d_24">
      <g>
       <use xlink:href="#ma0f4b195b1" x="53.84" y="64.726667" style="stroke: #000000; stroke-width: 0.8"/>
      </g>
     </g>
     <g id="text_13">
      <!-- 295 -->
      <g transform="translate(27.7525 68.525885) scale(0.1 -0.1)">
       <use xlink:href="#DejaVuSans-32"/>
       <use xlink:href="#DejaVuSans-39" transform="translate(63.623047 0)"/>
       <use xlink:href="#DejaVuSans-35" transform="translate(127.246094 0)"/>
      </g>
     </g>
    </g>
    <g id="ytick_7">
     <g id="line2d_25">
      <path d="M 53.84 29.04 
L 510.73 29.04 
" clip-path="url(#pcc4a8d943b)" style="fill: none; stroke-dasharray: 0.8,1.32; stroke-dashoffset: 0; stroke: #b0b0b0; stroke-opacity: 0.7; stroke-width: 0.8"/>
     </g>
     <g id="line2d_26">
      <g>
       <use xlink:href="#ma0f4b195b1" x="53.84" y="29.04" style="stroke: #000000; stroke-width: 0.8"/>
      </g>
     </g>
     <g id="text_14">
      <!-- 296 -->
      <g transform="translate(27.7525 32.839219) scale(0.1 -0.1)">
       <defs>
        <path id="DejaVuSans-36" d="M 2113 2584 
Q 1688 2584 1439 2293 
Q 1191 2003 1191 1497 
Q 1191 994 1439 701 
Q 1688 409 2113 409 
Q 2538 409 2786 701 
Q 3034 994 3034 1497 
Q 3034 2003 2786 2293 
Q 2538 2584 2113 2584 
z
M 3366 4563 
L 3366 3988 
Q 3128 4100 2886 4159 
Q 2644 4219 2406 4219 
Q 1781 4219 1451 3797 
Q 1122 3375 1075 2522 
Q 1259 2794 1537 2939 
Q 1816 3084 2150 3084 
Q 2853 3084 3261 2657 
Q 3669 2231 3669 1497 
Q 3669 778 3244 343 
Q 2819 -91 2113 -91 
Q 1303 -91 875 529 
Q 447 1150 447 2328 
Q 447 3434 972 4092 
Q 1497 4750 2381 4750 
Q 2619 4750 2861 4703 
Q 3103 4656 3366 4563 
z
" transform="scale(0.015625)"/>
       </defs>
       <use xlink:href="#DejaVuSans-32"/>
       <use xlink:href="#DejaVuSans-39" transform="translate(63.623047 0)"/>
       <use xlink:href="#DejaVuSans-36" transform="translate(127.246094 0)"/>
      </g>
     </g>
    </g>
    <g id="text_15">
     <!-- Temperature (K) -->
     <g transform="translate(21.256875 184.626875) rotate(-90) scale(0.12 -0.12)">
      <defs>
       <path id="DejaVuSans-70" d="M 1159 525 
L 1159 -1331 
L 581 -1331 
L 581 3500 
L 1159 3500 
L 1159 2969 
Q 1341 3281 1617 3432 
Q 1894 3584 2278 3584 
Q 2916 3584 3314 3078 
Q 3713 2572 3713 1747 
Q 3713 922 3314 415 
Q 2916 -91 2278 -91 
Q 1894 -91 1617 61 
Q 1341 213 1159 525 
z
M 3116 1747 
Q 3116 2381 2855 2742 
Q 2594 3103 2138 3103 
Q 1681 3103 1420 2742 
Q 1159 2381 1159 1747 
Q 1159 1113 1420 752 
Q 1681 391 2138 391 
Q 2594 391 2855 752 
Q 3116 1113 3116 1747 
z
" transform="scale(0.015625)"/>
       <path id="DejaVuSans-72" d="M 2631 2963 
Q 2534 3019 2420 3045 
Q 2306 3072 2169 3072 
Q 1681 3072 1420 2755 
Q 1159 2438 1159 1844 
L 1159 0 
L 581 0 
L 581 3500 
L 1159 3500 
L 1159 2956 
Q 1341 3275 1631 3429 
Q 1922 3584 2338 3584 
Q 2397 3584 2469 3576 
Q 2541 3569 2628 3553 
L 2631 2963 
z
" transform="scale(0.015625)"/>
       <path id="DejaVuSans-61" d="M 2194 1759 
Q 1497 1759 1228 1600 
Q 959 1441 959 1056 
Q 959 750 1161 570 
Q 1363 391 1709 391 
Q 2188 391 2477 730 
Q 2766 1069 2766 1631 
L 2766 1759 
L 2194 1759 
z
M 3341 1997 
L 3341 0 
L 2766 0 
L 2766 531 
Q 2569 213 2275 61 
Q 1981 -91 1556 -91 
Q 1019 -91 701 211 
Q 384 513 384 1019 
Q 384 1609 779 1909 
Q 1175 2209 1959 2209 
L 2766 2209 
L 2766 2266 
Q 2766 2663 2505 2880 
Q 2244 3097 1772 3097 
Q 1472 3097 1187 3025 
Q 903 2953 641 2809 
L 641 3341 
Q 956 3463 1253 3523 
Q 1550 3584 1831 3584 
Q 2591 3584 2966 3190 
Q 3341 2797 3341 1997 
z
" transform="scale(0.015625)"/>
       <path id="DejaVuSans-74" d="M 1172 4494 
L 1172 3500 
L 2356 3500 
L 2356 3053 
L 1172 3053 
L 1172 1153 
Q 1172 725 1289 603 
Q 1406 481 1766 481 
L 2356 481 
L 2356 0 
L 1766 0 
Q 1100 0 847 248 
Q 594 497 594 1153 
L 594 3053 
L 172 3053 
L 172 3500 
L 594 3500 
L 594 4494 
L 1172 4494 
z
" transform="scale(0.015625)"/>
       <path id="DejaVuSans-75" d="M 544 1381 
L 544 3500 
L 1119 3500 
L 1119 1403 
Q 1119 906 1312 657 
Q 1506 409 1894 409 
Q 2359 409 2629 706 
Q 2900 1003 2900 1516 
L 2900 3500 
L 3475 3500 
L 3475 0 
L 2900 0 
L 2900 538 
Q 2691 219 2414 64 
Q 2138 -91 1772 -91 
Q 1169 -91 856 284 
Q 544 659 544 1381 
z
M 1991 3584 
L 1991 3584 
z
" transform="scale(0.015625)"/>
       <path id="DejaVuSans-4b" d="M 628 4666 
L 1259 4666 
L 1259 2694 
L 3353 4666 
L 4166 4666 
L 1850 2491 
L 4331 0 
L 3500 0 
L 1259 2247 
L 1259 0 
L 628 0 
L 628 4666 
z
" transform="scale(0.015625)"/>
      </defs>
      <use xlink:href="#DejaVuSans-54"/>
      <use xlink:href="#DejaVuSans-65" transform="translate(44.083984 0)"/>
      <use xlink:href="#DejaVuSans-6d" transform="translate(105.607422 0)"/>
      <use xlink:href="#DejaVuSans-70" transform="translate(203.019531 0)"/>
      <use xlink:href="#DejaVuSans-65" transform="translate(266.496094 0)"/>
      <use xlink:href="#DejaVuSans-72" transform="translate(328.019531 0)"/>
      <use xlink:href="#DejaVuSans-61" transform="translate(369.132812 0)"/>
      <use xlink:href="#DejaVuSans-74" transform="translate(430.412109 0)"/>
      <use xlink:href="#DejaVuSans-75" transform="translate(469.621094 0)"/>
      <use xlink:href="#DejaVuSans-72" transform="translate(533 0)"/>
      <use xlink:href="#DejaVuSans-65" transform="translate(571.863281 0)"/>
      <use xlink:href="#DejaVuSans-20" transform="translate(633.386719 0)"/>
      <use xlink:href="#DejaVuSans-28" transform="translate(665.173828 0)"/>
      <use xlink:href="#DejaVuSans-4b" transform="translate(704.1875 0)"/>
      <use xlink:href="#DejaVuSans-29" transform="translate(769.763672 0)"/>
     </g>
    </g>
   </g>
   <g id="line2d_27">
    <path d="M 74.607727 131.305715 
L 83.445058 129.242044 
L 92.282389 127.575974 
L 101.11972 129.765992 
L 109.95705 138.166781 
L 118.794381 140.503738 
L 127.631712 144.372438 
L 136.469043 146.640836 
L 145.306373 140.828725 
L 154.143704 132.196375 
L 162.981035 127.712698 
L 171.818366 133.041213 
L 180.655696 135.623585 
L 189.493027 134.676975 
L 198.330358 132.797584 
L 207.167689 130.024139 
L 216.005019 131.373101 
L 224.84235 138.108102 
L 233.679681 143.806342 
L 242.517012 142.677776 
L 251.354342 137.991453 
L 260.191673 139.962113 
L 269.029004 139.587642 
L 277.866335 137.394632 
L 286.703665 134.710446 
L 295.540996 136.454511 
L 304.378327 140.849698 
L 313.215658 137.792811 
L 322.052988 133.796929 
L 330.890319 136.25551 
L 339.72765 137.243551 
L 348.564981 135.308539 
L 357.402311 136.401443 
L 366.239642 140.871039 
L 375.076973 137.651988 
L 383.914304 134.626107 
L 392.751634 135.422416 
L 401.588965 134.809412 
L 410.426296 131.895832 
L 419.263627 133.013208 
L 428.100957 132.058969 
L 436.938288 133.26721 
L 445.775619 134.22441 
L 454.61295 135.456797 
L 463.45028 134.481002 
L 472.287611 132.997898 
L 481.124942 137.345682 
L 489.962273 141.788133 
" clip-path="url(#pcc4a8d943b)" style="fill: none; stroke: #1f77b4; stroke-width: 2; stroke-linecap: square"/>
   </g>
   <g id="line2d_28">
    <path d="M 74.607727 129.56176 
L 83.445058 127.248729 
L 92.282389 123.029531 
L 101.11972 121.283219 
L 109.95705 124.453639 
L 118.794381 122.217073 
L 127.631712 125.602162 
L 136.469043 128.760048 
L 145.306373 126.16346 
L 154.143704 122.452667 
L 162.981035 120.437059 
L 171.818366 123.930911 
L 180.655696 122.061865 
L 189.493027 118.992659 
L 198.330358 116.181997 
L 207.167689 111.949276 
L 216.005019 110.758891 
L 224.84235 113.287449 
L 233.679681 115.137173 
L 242.517012 113.461872 
L 251.354342 111.384243 
L 260.191673 115.83265 
L 269.029004 115.845039 
L 277.866335 115.202084 
L 286.703665 114.102646 
L 295.540996 116.476478 
L 304.378327 120.153222 
L 313.215658 117.221173 
L 322.052988 115.706605 
L 330.890319 119.306978 
L 339.72765 119.41409 
L 348.564981 117.764733 
L 357.402311 119.67648 
L 366.239642 124.004321 
L 375.076973 121.175364 
L 383.914304 120.930938 
L 392.751634 123.082866 
L 401.588965 122.308201 
L 410.426296 119.56469 
L 419.263627 120.483277 
L 428.100957 117.702742 
L 436.938288 117.424664 
L 445.775619 116.203112 
L 454.61295 115.656955 
L 463.45028 113.242972 
L 472.287611 110.866352 
L 481.124942 113.766496 
L 489.962273 115.879459 
" clip-path="url(#pcc4a8d943b)" style="fill: none; stroke: #ff7f0e; stroke-width: 2; stroke-linecap: square"/>
   </g>
   <g id="line2d_29">
    <path d="M 53.84 136.1 
L 510.73 136.1 
" clip-path="url(#pcc4a8d943b)" style="fill: none; stroke-dasharray: 1.5,2.475; stroke-dashoffset: 0; stroke: #1f77b4; stroke-width: 1.5"/>
   </g>
   <g id="patch_3">
    <path d="M 53.84 243.16 
L 53.84 29.04 
" style="fill: none; stroke: #000000; stroke-width: 0.8; stroke-linejoin: miter; stroke-linecap: square"/>
   </g>
   <g id="patch_4">
    <path d="M 510.73 243.16 
L 510.73 29.04 
" style="fill: none; stroke: #000000; stroke-width: 0.8; stroke-linejoin: miter; stroke-linecap: square"/>
   </g>
   <g id="patch_5">
    <path d="M 53.84 243.16 
L 510.73 243.16 
" style="fill: none; stroke: #000000; stroke-width: 0.8; stroke-linejoin: miter; stroke-linecap: square"/>
   </g>
   <g id="patch_6">
    <path d="M 53.84 29.04 
L 510.73 29.04 
" style="fill: none; stroke: #000000; stroke-width: 0.8; stroke-linejoin: miter; stroke-linecap: square"/>
   </g>
   <g id="text_16">
    <!-- Random Negative Forcing, $\tau_c$ = 1.00 -->
    <g transform="translate(153.905 23.04) scale(0.14 -0.14)">
     <defs>
      <path id="DejaVuSans-52" d="M 2841 2188 
Q 3044 2119 3236 1894 
Q 3428 1669 3622 1275 
L 4263 0 
L 3584 0 
L 2988 1197 
Q 2756 1666 2539 1819 
Q 2322 1972 1947 1972 
L 1259 1972 
L 1259 0 
L 628 0 
L 628 4666 
L 2053 4666 
Q 2853 4666 3247 4331 
Q 3641 3997 3641 3322 
Q 3641 2881 3436 2590 
Q 3231 2300 2841 2188 
z
M 1259 4147 
L 1259 2491 
L 2053 2491 
Q 2509 2491 2742 2702 
Q 2975 2913 2975 3322 
Q 2975 3731 2742 3939 
Q 2509 4147 2053 4147 
L 1259 4147 
z
" transform="scale(0.015625)"/>
      <path id="DejaVuSans-6e" d="M 3513 2113 
L 3513 0 
L 2938 0 
L 2938 2094 
Q 2938 2591 2744 2837 
Q 2550 3084 2163 3084 
Q 1697 3084 1428 2787 
Q 1159 2491 1159 1978 
L 1159 0 
L 581 0 
L 581 3500 
L 1159 3500 
L 1159 2956 
Q 1366 3272 1645 3428 
Q 1925 3584 2291 3584 
Q 2894 3584 3203 3211 
Q 3513 2838 3513 2113 
z
" transform="scale(0.015625)"/>
      <path id="DejaVuSans-64" d="M 2906 2969 
L 2906 4863 
L 3481 4863 
L 3481 0 
L 2906 0 
L 2906 525 
Q 2725 213 2448 61 
Q 2172 -91 1784 -91 
Q 1150 -91 751 415 
Q 353 922 353 1747 
Q 353 2572 751 3078 
Q 1150 3584 1784 3584 
Q 2172 3584 2448 3432 
Q 2725 3281 2906 2969 
z
M 947 1747 
Q 947 1113 1208 752 
Q 1469 391 1925 391 
Q 2381 391 2643 752 
Q 2906 1113 2906 1747 
Q 2906 2381 2643 2742 
Q 2381 3103 1925 3103 
Q 1469 3103 1208 2742 
Q 947 2381 947 1747 
z
" transform="scale(0.015625)"/>
      <path id="DejaVuSans-6f" d="M 1959 3097 
Q 1497 3097 1228 2736 
Q 959 2375 959 1747 
Q 959 1119 1226 758 
Q 1494 397 1959 397 
Q 2419 397 2687 759 
Q 2956 1122 2956 1747 
Q 2956 2369 2687 2733 
Q 2419 3097 1959 3097 
z
M 1959 3584 
Q 2709 3584 3137 3096 
Q 3566 2609 3566 1747 
Q 3566 888 3137 398 
Q 2709 -91 1959 -91 
Q 1206 -91 779 398 
Q 353 888 353 1747 
Q 353 2609 779 3096 
Q 1206 3584 1959 3584 
z
" transform="scale(0.015625)"/>
      <path id="DejaVuSans-4e" d="M 628 4666 
L 1478 4666 
L 3547 763 
L 3547 4666 
L 4159 4666 
L 4159 0 
L 3309 0 
L 1241 3903 
L 1241 0 
L 628 0 
L 628 4666 
z
" transform="scale(0.015625)"/>
      <path id="DejaVuSans-67" d="M 2906 1791 
Q 2906 2416 2648 2759 
Q 2391 3103 1925 3103 
Q 1463 3103 1205 2759 
Q 947 2416 947 1791 
Q 947 1169 1205 825 
Q 1463 481 1925 481 
Q 2391 481 2648 825 
Q 2906 1169 2906 1791 
z
M 3481 434 
Q 3481 -459 3084 -895 
Q 2688 -1331 1869 -1331 
Q 1566 -1331 1297 -1286 
Q 1028 -1241 775 -1147 
L 775 -588 
Q 1028 -725 1275 -790 
Q 1522 -856 1778 -856 
Q 2344 -856 2625 -561 
Q 2906 -266 2906 331 
L 2906 616 
Q 2728 306 2450 153 
Q 2172 0 1784 0 
Q 1141 0 747 490 
Q 353 981 353 1791 
Q 353 2603 747 3093 
Q 1141 3584 1784 3584 
Q 2172 3584 2450 3431 
Q 2728 3278 2906 2969 
L 2906 3500 
L 3481 3500 
L 3481 434 
z
" transform="scale(0.015625)"/>
      <path id="DejaVuSans-76" d="M 191 3500 
L 800 3500 
L 1894 563 
L 2988 3500 
L 3597 3500 
L 2284 0 
L 1503 0 
L 191 3500 
z
" transform="scale(0.015625)"/>
      <path id="DejaVuSans-46" d="M 628 4666 
L 3309 4666 
L 3309 4134 
L 1259 4134 
L 1259 2759 
L 3109 2759 
L 3109 2228 
L 1259 2228 
L 1259 0 
L 628 0 
L 628 4666 
z
" transform="scale(0.015625)"/>
      <path id="DejaVuSans-63" d="M 3122 3366 
L 3122 2828 
Q 2878 2963 2633 3030 
Q 2388 3097 2138 3097 
Q 1578 3097 1268 2742 
Q 959 2388 959 1747 
Q 959 1106 1268 751 
Q 1578 397 2138 397 
Q 2388 397 2633 464 
Q 2878 531 3122 666 
L 3122 134 
Q 2881 22 2623 -34 
Q 2366 -91 2075 -91 
Q 1284 -91 818 406 
Q 353 903 353 1747 
Q 353 2603 823 3093 
Q 1294 3584 2113 3584 
Q 2378 3584 2631 3529 
Q 2884 3475 3122 3366 
z
" transform="scale(0.015625)"/>
      <path id="DejaVuSans-2c" d="M 750 794 
L 1409 794 
L 1409 256 
L 897 -744 
L 494 -744 
L 750 256 
L 750 794 
z
" transform="scale(0.015625)"/>
      <path id="DejaVuSans-Oblique-3c4" d="M 2103 638 
Q 2188 488 2525 488 
L 2800 488 
L 2706 0 
L 2363 0 
Q 1800 0 1600 300 
Q 1403 606 1534 1269 
L 1856 2925 
L 541 2925 
L 653 3500 
L 3881 3500 
L 3769 2925 
L 2444 2925 
L 2113 1234 
Q 2025 781 2103 638 
z
" transform="scale(0.015625)"/>
      <path id="DejaVuSans-Oblique-63" d="M 3431 3366 
L 3316 2797 
Q 3109 2947 2876 3022 
Q 2644 3097 2394 3097 
Q 2119 3097 1870 3000 
Q 1622 2903 1453 2725 
Q 1184 2453 1037 2087 
Q 891 1722 891 1331 
Q 891 859 1127 628 
Q 1363 397 1844 397 
Q 2081 397 2348 469 
Q 2616 541 2906 684 
L 2797 116 
Q 2547 13 2283 -39 
Q 2019 -91 1741 -91 
Q 1044 -91 669 257 
Q 294 606 294 1253 
Q 294 1797 489 2255 
Q 684 2713 1069 3078 
Q 1331 3328 1684 3456 
Q 2038 3584 2456 3584 
Q 2700 3584 2940 3529 
Q 3181 3475 3431 3366 
z
" transform="scale(0.015625)"/>
      <path id="DejaVuSans-3d" d="M 678 2906 
L 4684 2906 
L 4684 2381 
L 678 2381 
L 678 2906 
z
M 678 1631 
L 4684 1631 
L 4684 1100 
L 678 1100 
L 678 1631 
z
" transform="scale(0.015625)"/>
      <path id="DejaVuSans-2e" d="M 684 794 
L 1344 794 
L 1344 0 
L 684 0 
L 684 794 
z
" transform="scale(0.015625)"/>
     </defs>
     <use xlink:href="#DejaVuSans-52" transform="translate(0 0.015625)"/>
     <use xlink:href="#DejaVuSans-61" transform="translate(69.482422 0.015625)"/>
     <use xlink:href="#DejaVuSans-6e" transform="translate(130.761719 0.015625)"/>
     <use xlink:href="#DejaVuSans-64" transform="translate(194.140625 0.015625)"/>
     <use xlink:href="#DejaVuSans-6f" transform="translate(257.617188 0.015625)"/>
     <use xlink:href="#DejaVuSans-6d" transform="translate(318.798828 0.015625)"/>
     <use xlink:href="#DejaVuSans-20" transform="translate(416.210938 0.015625)"/>
     <use xlink:href="#DejaVuSans-4e" transform="translate(447.998047 0.015625)"/>
     <use xlink:href="#DejaVuSans-65" transform="translate(522.802734 0.015625)"/>
     <use xlink:href="#DejaVuSans-67" transform="translate(584.326172 0.015625)"/>
     <use xlink:href="#DejaVuSans-61" transform="translate(647.802734 0.015625)"/>
     <use xlink:href="#DejaVuSans-74" transform="translate(709.082031 0.015625)"/>
     <use xlink:href="#DejaVuSans-69" transform="translate(748.291016 0.015625)"/>
     <use xlink:href="#DejaVuSans-76" transform="translate(776.074219 0.015625)"/>
     <use xlink:href="#DejaVuSans-65" transform="translate(835.253906 0.015625)"/>
     <use xlink:href="#DejaVuSans-20" transform="translate(896.777344 0.015625)"/>
     <use xlink:href="#DejaVuSans-46" transform="translate(928.564453 0.015625)"/>
     <use xlink:href="#DejaVuSans-6f" transform="translate(986.083984 0.015625)"/>
     <use xlink:href="#DejaVuSans-72" transform="translate(1047.265625 0.015625)"/>
     <use xlink:href="#DejaVuSans-63" transform="translate(1088.378906 0.015625)"/>
     <use xlink:href="#DejaVuSans-69" transform="translate(1143.359375 0.015625)"/>
     <use xlink:href="#DejaVuSans-6e" transform="translate(1171.142578 0.015625)"/>
     <use xlink:href="#DejaVuSans-67" transform="translate(1234.521484 0.015625)"/>
     <use xlink:href="#DejaVuSans-2c" transform="translate(1297.998047 0.015625)"/>
     <use xlink:href="#DejaVuSans-20" transform="translate(1329.785156 0.015625)"/>
     <use xlink:href="#DejaVuSans-Oblique-3c4" transform="translate(1361.572266 0.015625)"/>
     <use xlink:href="#DejaVuSans-Oblique-63" transform="translate(1421.777344 -16.390625) scale(0.7)"/>
     <use xlink:href="#DejaVuSans-20" transform="translate(1462.998047 0.015625)"/>
     <use xlink:href="#DejaVuSans-3d" transform="translate(1494.785156 0.015625)"/>
     <use xlink:href="#DejaVuSans-20" transform="translate(1578.574219 0.015625)"/>
     <use xlink:href="#DejaVuSans-31" transform="translate(1610.361328 0.015625)"/>
     <use xlink:href="#DejaVuSans-2e" transform="translate(1673.984375 0.015625)"/>
     <use xlink:href="#DejaVuSans-30" transform="translate(1705.771484 0.015625)"/>
     <use xlink:href="#DejaVuSans-30" transform="translate(1769.394531 0.015625)"/>
    </g>
   </g>
  </g>
  <g id="axes_2">
   <g id="matplotlib.axis_3">
    <g id="ytick_8">
     <g id="line2d_30">
      <defs>
       <path id="m598a18b867" d="M 0 0 
L 3.5 0 
" style="stroke: #000000; stroke-width: 0.8"/>
      </defs>
      <g>
       <use xlink:href="#m598a18b867" x="510.73" y="216.425089" style="stroke: #000000; stroke-width: 0.8"/>
      </g>
     </g>
     <g id="text_17">
      <!-- −0.10 -->
      <g transform="translate(517.73 220.224308) scale(0.1 -0.1)">
       <defs>
        <path id="DejaVuSans-2212" d="M 678 2272 
L 4684 2272 
L 4684 1741 
L 678 1741 
L 678 2272 
z
" transform="scale(0.015625)"/>
       </defs>
       <use xlink:href="#DejaVuSans-2212"/>
       <use xlink:href="#DejaVuSans-30" transform="translate(83.789062 0)"/>
       <use xlink:href="#DejaVuSans-2e" transform="translate(147.412109 0)"/>
       <use xlink:href="#DejaVuSans-31" transform="translate(179.199219 0)"/>
       <use xlink:href="#DejaVuSans-30" transform="translate(242.822266 0)"/>
      </g>
     </g>
    </g>
    <g id="ytick_9">
     <g id="line2d_31">
      <g>
       <use xlink:href="#m598a18b867" x="510.73" y="176.304611" style="stroke: #000000; stroke-width: 0.8"/>
      </g>
     </g>
     <g id="text_18">
      <!-- −0.05 -->
      <g transform="translate(517.73 180.10383) scale(0.1 -0.1)">
       <use xlink:href="#DejaVuSans-2212"/>
       <use xlink:href="#DejaVuSans-30" transform="translate(83.789062 0)"/>
       <use xlink:href="#DejaVuSans-2e" transform="translate(147.412109 0)"/>
       <use xlink:href="#DejaVuSans-30" transform="translate(179.199219 0)"/>
       <use xlink:href="#DejaVuSans-35" transform="translate(242.822266 0)"/>
      </g>
     </g>
    </g>
    <g id="ytick_10">
     <g id="line2d_32">
      <g>
       <use xlink:href="#m598a18b867" x="510.73" y="136.184134" style="stroke: #000000; stroke-width: 0.8"/>
      </g>
     </g>
     <g id="text_19">
      <!-- 0.00 -->
      <g transform="translate(517.73 139.983352) scale(0.1 -0.1)">
       <use xlink:href="#DejaVuSans-30"/>
       <use xlink:href="#DejaVuSans-2e" transform="translate(63.623047 0)"/>
       <use xlink:href="#DejaVuSans-30" transform="translate(95.410156 0)"/>
       <use xlink:href="#DejaVuSans-30" transform="translate(159.033203 0)"/>
      </g>
     </g>
    </g>
    <g id="ytick_11">
     <g id="line2d_33">
      <g>
       <use xlink:href="#m598a18b867" x="510.73" y="96.063656" style="stroke: #000000; stroke-width: 0.8"/>
      </g>
     </g>
     <g id="text_20">
      <!-- 0.05 -->
      <g transform="translate(517.73 99.862875) scale(0.1 -0.1)">
       <use xlink:href="#DejaVuSans-30"/>
       <use xlink:href="#DejaVuSans-2e" transform="translate(63.623047 0)"/>
       <use xlink:href="#DejaVuSans-30" transform="translate(95.410156 0)"/>
       <use xlink:href="#DejaVuSans-35" transform="translate(159.033203 0)"/>
      </g>
     </g>
    </g>
    <g id="ytick_12">
     <g id="line2d_34">
      <g>
       <use xlink:href="#m598a18b867" x="510.73" y="55.943178" style="stroke: #000000; stroke-width: 0.8"/>
      </g>
     </g>
     <g id="text_21">
      <!-- 0.10 -->
      <g transform="translate(517.73 59.742397) scale(0.1 -0.1)">
       <use xlink:href="#DejaVuSans-30"/>
       <use xlink:href="#DejaVuSans-2e" transform="translate(63.623047 0)"/>
       <use xlink:href="#DejaVuSans-31" transform="translate(95.410156 0)"/>
       <use xlink:href="#DejaVuSans-30" transform="translate(159.033203 0)"/>
      </g>
     </g>
    </g>
    <g id="text_22">
     <!-- Forcing (A) -->
     <g transform="translate(561.493437 168.606875) rotate(-90) scale(0.12 -0.12)">
      <defs>
       <path id="DejaVuSans-41" d="M 2188 4044 
L 1331 1722 
L 3047 1722 
L 2188 4044 
z
M 1831 4666 
L 2547 4666 
L 4325 0 
L 3669 0 
L 3244 1197 
L 1141 1197 
L 716 0 
L 50 0 
L 1831 4666 
z
" transform="scale(0.015625)"/>
      </defs>
      <use xlink:href="#DejaVuSans-46"/>
      <use xlink:href="#DejaVuSans-6f" transform="translate(53.894531 0)"/>
      <use xlink:href="#DejaVuSans-72" transform="translate(115.076172 0)"/>
      <use xlink:href="#DejaVuSans-63" transform="translate(153.939453 0)"/>
      <use xlink:href="#DejaVuSans-69" transform="translate(208.919922 0)"/>
      <use xlink:href="#DejaVuSans-6e" transform="translate(236.703125 0)"/>
      <use xlink:href="#DejaVuSans-67" transform="translate(300.082031 0)"/>
      <use xlink:href="#DejaVuSans-20" transform="translate(363.558594 0)"/>
      <use xlink:href="#DejaVuSans-28" transform="translate(395.345703 0)"/>
      <use xlink:href="#DejaVuSans-41" transform="translate(434.359375 0)"/>
      <use xlink:href="#DejaVuSans-29" transform="translate(502.767578 0)"/>
     </g>
    </g>
   </g>
   <g id="line2d_35">
    <path d="M 74.607727 83.440895 
L 83.445058 40.320989 
L 92.282389 95.44912 
L 101.11972 205.804796 
L 109.95705 84.585935 
L 118.794381 210.736589 
L 127.631712 206.008551 
L 136.469043 76.975025 
L 145.306373 51.630385 
L 154.143704 89.329183 
L 162.981035 212.982007 
L 171.818366 92.790792 
L 180.655696 65.595268 
L 189.493027 71.063521 
L 198.330358 38.772727 
L 207.167689 106.703391 
L 216.005019 190.189429 
L 224.84235 175.210223 
L 233.679681 96.158506 
L 242.517012 86.923872 
L 251.354342 233.427273 
L 260.191673 134.184148 
L 269.029004 119.450242 
L 277.866335 109.113995 
L 286.703665 187.086358 
L 295.540996 216.649049 
L 304.378327 68.464623 
L 313.215658 100.006838 
L 322.052988 214.84529 
L 330.890319 136.704594 
L 339.72765 97.222672 
L 348.564981 177.108171 
L 357.402311 231.648611 
L 366.239642 71.215594 
L 375.076973 129.010362 
L 383.914304 182.86454 
L 392.751634 117.302466 
L 401.588965 72.946149 
L 410.426296 154.979461 
L 419.263627 71.908501 
L 428.100957 127.863299 
L 436.938288 106.618157 
L 445.775619 121.666972 
L 454.61295 79.607779 
L 463.45028 80.176488 
L 472.287611 198.55658 
L 481.124942 181.182979 
L 489.962273 51.299192 
" clip-path="url(#pcc4a8d943b)" style="fill: none; stroke: #000000; stroke-width: 2; stroke-linecap: square"/>
   </g>
   <g id="patch_7">
    <path d="M 53.84 243.16 
L 53.84 29.04 
" style="fill: none; stroke: #000000; stroke-width: 0.8; stroke-linejoin: miter; stroke-linecap: square"/>
   </g>
   <g id="patch_8">
    <path d="M 510.73 243.16 
L 510.73 29.04 
" style="fill: none; stroke: #000000; stroke-width: 0.8; stroke-linejoin: miter; stroke-linecap: square"/>
   </g>
   <g id="patch_9">
    <path d="M 53.84 243.16 
L 510.73 243.16 
" style="fill: none; stroke: #000000; stroke-width: 0.8; stroke-linejoin: miter; stroke-linecap: square"/>
   </g>
   <g id="patch_10">
    <path d="M 53.84 29.04 
L 510.73 29.04 
" style="fill: none; stroke: #000000; stroke-width: 0.8; stroke-linejoin: miter; stroke-linecap: square"/>
   </g>
  </g>
  <g id="legend_1">
   <g id="patch_11">
    <path d="M 311.35 283 
L 569 283 
Q 571 283 571 281 
L 571 237.965625 
Q 571 235.965625 569 235.965625 
L 311.35 235.965625 
Q 309.35 235.965625 309.35 237.965625 
L 309.35 281 
Q 309.35 283 311.35 283 
z
" style="fill: #ffffff; opacity: 0.8; stroke: #cccccc; stroke-linejoin: miter"/>
   </g>
   <g id="line2d_36">
    <path d="M 313.35 244.064063 
L 323.35 244.064063 
L 333.35 244.064063 
" style="fill: none; stroke: #1f77b4; stroke-width: 2; stroke-linecap: square"/>
   </g>
   <g id="text_23">
    <!-- Current Limited + Anti-Windup -->
    <g transform="translate(341.35 247.564063) scale(0.1 -0.1)">
     <defs>
      <path id="DejaVuSans-43" d="M 4122 4306 
L 4122 3641 
Q 3803 3938 3442 4084 
Q 3081 4231 2675 4231 
Q 1875 4231 1450 3742 
Q 1025 3253 1025 2328 
Q 1025 1406 1450 917 
Q 1875 428 2675 428 
Q 3081 428 3442 575 
Q 3803 722 4122 1019 
L 4122 359 
Q 3791 134 3420 21 
Q 3050 -91 2638 -91 
Q 1578 -91 968 557 
Q 359 1206 359 2328 
Q 359 3453 968 4101 
Q 1578 4750 2638 4750 
Q 3056 4750 3426 4639 
Q 3797 4528 4122 4306 
z
" transform="scale(0.015625)"/>
      <path id="DejaVuSans-4c" d="M 628 4666 
L 1259 4666 
L 1259 531 
L 3531 531 
L 3531 0 
L 628 0 
L 628 4666 
z
" transform="scale(0.015625)"/>
      <path id="DejaVuSans-2b" d="M 2944 4013 
L 2944 2272 
L 4684 2272 
L 4684 1741 
L 2944 1741 
L 2944 0 
L 2419 0 
L 2419 1741 
L 678 1741 
L 678 2272 
L 2419 2272 
L 2419 4013 
L 2944 4013 
z
" transform="scale(0.015625)"/>
      <path id="DejaVuSans-2d" d="M 313 2009 
L 1997 2009 
L 1997 1497 
L 313 1497 
L 313 2009 
z
" transform="scale(0.015625)"/>
      <path id="DejaVuSans-57" d="M 213 4666 
L 850 4666 
L 1831 722 
L 2809 4666 
L 3519 4666 
L 4500 722 
L 5478 4666 
L 6119 4666 
L 4947 0 
L 4153 0 
L 3169 4050 
L 2175 0 
L 1381 0 
L 213 4666 
z
" transform="scale(0.015625)"/>
     </defs>
     <use xlink:href="#DejaVuSans-43"/>
     <use xlink:href="#DejaVuSans-75" transform="translate(69.824219 0)"/>
     <use xlink:href="#DejaVuSans-72" transform="translate(133.203125 0)"/>
     <use xlink:href="#DejaVuSans-72" transform="translate(172.566406 0)"/>
     <use xlink:href="#DejaVuSans-65" transform="translate(211.429688 0)"/>
     <use xlink:href="#DejaVuSans-6e" transform="translate(272.953125 0)"/>
     <use xlink:href="#DejaVuSans-74" transform="translate(336.332031 0)"/>
     <use xlink:href="#DejaVuSans-20" transform="translate(375.541016 0)"/>
     <use xlink:href="#DejaVuSans-4c" transform="translate(407.328125 0)"/>
     <use xlink:href="#DejaVuSans-69" transform="translate(463.041016 0)"/>
     <use xlink:href="#DejaVuSans-6d" transform="translate(490.824219 0)"/>
     <use xlink:href="#DejaVuSans-69" transform="translate(588.236328 0)"/>
     <use xlink:href="#DejaVuSans-74" transform="translate(616.019531 0)"/>
     <use xlink:href="#DejaVuSans-65" transform="translate(655.228516 0)"/>
     <use xlink:href="#DejaVuSans-64" transform="translate(716.751953 0)"/>
     <use xlink:href="#DejaVuSans-20" transform="translate(780.228516 0)"/>
     <use xlink:href="#DejaVuSans-2b" transform="translate(812.015625 0)"/>
     <use xlink:href="#DejaVuSans-20" transform="translate(895.804688 0)"/>
     <use xlink:href="#DejaVuSans-41" transform="translate(927.591797 0)"/>
     <use xlink:href="#DejaVuSans-6e" transform="translate(996 0)"/>
     <use xlink:href="#DejaVuSans-74" transform="translate(1059.378906 0)"/>
     <use xlink:href="#DejaVuSans-69" transform="translate(1098.587891 0)"/>
     <use xlink:href="#DejaVuSans-2d" transform="translate(1126.371094 0)"/>
     <use xlink:href="#DejaVuSans-57" transform="translate(1158.455078 0)"/>
     <use xlink:href="#DejaVuSans-69" transform="translate(1255.082031 0)"/>
     <use xlink:href="#DejaVuSans-6e" transform="translate(1282.865234 0)"/>
     <use xlink:href="#DejaVuSans-64" transform="translate(1346.244141 0)"/>
     <use xlink:href="#DejaVuSans-75" transform="translate(1409.720703 0)"/>
     <use xlink:href="#DejaVuSans-70" transform="translate(1473.099609 0)"/>
    </g>
   </g>
   <g id="line2d_37">
    <path d="M 313.35 258.742188 
L 323.35 258.742188 
L 333.35 258.742188 
" style="fill: none; stroke: #ff7f0e; stroke-width: 2; stroke-linecap: square"/>
   </g>
   <g id="text_24">
    <!-- Asymmetrical Current Limited + Anti-Windup -->
    <g transform="translate(341.35 262.242188) scale(0.1 -0.1)">
     <defs>
      <path id="DejaVuSans-79" d="M 2059 -325 
Q 1816 -950 1584 -1140 
Q 1353 -1331 966 -1331 
L 506 -1331 
L 506 -850 
L 844 -850 
Q 1081 -850 1212 -737 
Q 1344 -625 1503 -206 
L 1606 56 
L 191 3500 
L 800 3500 
L 1894 763 
L 2988 3500 
L 3597 3500 
L 2059 -325 
z
" transform="scale(0.015625)"/>
      <path id="DejaVuSans-6c" d="M 603 4863 
L 1178 4863 
L 1178 0 
L 603 0 
L 603 4863 
z
" transform="scale(0.015625)"/>
     </defs>
     <use xlink:href="#DejaVuSans-41"/>
     <use xlink:href="#DejaVuSans-73" transform="translate(68.408203 0)"/>
     <use xlink:href="#DejaVuSans-79" transform="translate(120.507812 0)"/>
     <use xlink:href="#DejaVuSans-6d" transform="translate(179.6875 0)"/>
     <use xlink:href="#DejaVuSans-6d" transform="translate(277.099609 0)"/>
     <use xlink:href="#DejaVuSans-65" transform="translate(374.511719 0)"/>
     <use xlink:href="#DejaVuSans-74" transform="translate(436.035156 0)"/>
     <use xlink:href="#DejaVuSans-72" transform="translate(475.244141 0)"/>
     <use xlink:href="#DejaVuSans-69" transform="translate(516.357422 0)"/>
     <use xlink:href="#DejaVuSans-63" transform="translate(544.140625 0)"/>
     <use xlink:href="#DejaVuSans-61" transform="translate(599.121094 0)"/>
     <use xlink:href="#DejaVuSans-6c" transform="translate(660.400391 0)"/>
     <use xlink:href="#DejaVuSans-20" transform="translate(688.183594 0)"/>
     <use xlink:href="#DejaVuSans-43" transform="translate(719.970703 0)"/>
     <use xlink:href="#DejaVuSans-75" transform="translate(789.794922 0)"/>
     <use xlink:href="#DejaVuSans-72" transform="translate(853.173828 0)"/>
     <use xlink:href="#DejaVuSans-72" transform="translate(892.537109 0)"/>
     <use xlink:href="#DejaVuSans-65" transform="translate(931.400391 0)"/>
     <use xlink:href="#DejaVuSans-6e" transform="translate(992.923828 0)"/>
     <use xlink:href="#DejaVuSans-74" transform="translate(1056.302734 0)"/>
     <use xlink:href="#DejaVuSans-20" transform="translate(1095.511719 0)"/>
     <use xlink:href="#DejaVuSans-4c" transform="translate(1127.298828 0)"/>
     <use xlink:href="#DejaVuSans-69" transform="translate(1183.011719 0)"/>
     <use xlink:href="#DejaVuSans-6d" transform="translate(1210.794922 0)"/>
     <use xlink:href="#DejaVuSans-69" transform="translate(1308.207031 0)"/>
     <use xlink:href="#DejaVuSans-74" transform="translate(1335.990234 0)"/>
     <use xlink:href="#DejaVuSans-65" transform="translate(1375.199219 0)"/>
     <use xlink:href="#DejaVuSans-64" transform="translate(1436.722656 0)"/>
     <use xlink:href="#DejaVuSans-20" transform="translate(1500.199219 0)"/>
     <use xlink:href="#DejaVuSans-2b" transform="translate(1531.986328 0)"/>
     <use xlink:href="#DejaVuSans-20" transform="translate(1615.775391 0)"/>
     <use xlink:href="#DejaVuSans-41" transform="translate(1647.5625 0)"/>
     <use xlink:href="#DejaVuSans-6e" transform="translate(1715.970703 0)"/>
     <use xlink:href="#DejaVuSans-74" transform="translate(1779.349609 0)"/>
     <use xlink:href="#DejaVuSans-69" transform="translate(1818.558594 0)"/>
     <use xlink:href="#DejaVuSans-2d" transform="translate(1846.341797 0)"/>
     <use xlink:href="#DejaVuSans-57" transform="translate(1878.425781 0)"/>
     <use xlink:href="#DejaVuSans-69" transform="translate(1975.052734 0)"/>
     <use xlink:href="#DejaVuSans-6e" transform="translate(2002.835938 0)"/>
     <use xlink:href="#DejaVuSans-64" transform="translate(2066.214844 0)"/>
     <use xlink:href="#DejaVuSans-75" transform="translate(2129.691406 0)"/>
     <use xlink:href="#DejaVuSans-70" transform="translate(2193.070312 0)"/>
    </g>
   </g>
   <g id="line2d_38">
    <path d="M 313.35 273.420313 
L 323.35 273.420313 
L 333.35 273.420313 
" style="fill: none; stroke: #000000; stroke-width: 2; stroke-linecap: square"/>
   </g>
   <g id="text_25">
    <!-- Forcing -->
    <g transform="translate(341.35 276.920313) scale(0.1 -0.1)">
     <use xlink:href="#DejaVuSans-46"/>
     <use xlink:href="#DejaVuSans-6f" transform="translate(53.894531 0)"/>
     <use xlink:href="#DejaVuSans-72" transform="translate(115.076172 0)"/>
     <use xlink:href="#DejaVuSans-63" transform="translate(153.939453 0)"/>
     <use xlink:href="#DejaVuSans-69" transform="translate(208.919922 0)"/>
     <use xlink:href="#DejaVuSans-6e" transform="translate(236.703125 0)"/>
     <use xlink:href="#DejaVuSans-67" transform="translate(300.082031 0)"/>
    </g>
   </g>
  </g>
 </g>
 <defs>
  <clipPath id="pcc4a8d943b">
   <rect x="53.84" y="29.04" width="456.89" height="214.12"/>
  </clipPath>
 </defs>
</svg>
