<?xml version="1.0" encoding="utf-8" standalone="no"?>
<!DOCTYPE svg PUBLIC "-//W3C//DTD SVG 1.1//EN"
  "http://www.w3.org/Graphics/SVG/1.1/DTD/svg11.dtd">
<svg xmlns:xlink="http://www.w3.org/1999/xlink" width="576pt" height="288pt" viewBox="0 0 576 288" xmlns="http://www.w3.org/2000/svg" version="1.1">
 <metadata>
  <rdf:RDF xmlns:dc="http://purl.org/dc/elements/1.1/" xmlns:cc="http://creativecommons.org/ns#" xmlns:rdf="http://www.w3.org/1999/02/22-rdf-syntax-ns#">
   <cc:Work>
    <dc:type rdf:resource="http://purl.org/dc/dcmitype/StillImage"/>
    <dc:date>2025-06-13T23:30:28.480657</dc:date>
    <dc:format>image/svg+xml</dc:format>
    <dc:creator>
     <cc:Agent>
      <dc:title>Matplotlib v3.10.1, https://matplotlib.org/</dc:title>
     </cc:Agent>
    </dc:creator>
   </cc:Work>
  </rdf:RDF>
 </metadata>
 <defs>
  <style type="text/css">*{stroke-linejoin: round; stroke-linecap: butt}</style>
 </defs>
 <g id="figure_1">
  <g id="patch_1">
   <path d="M 0 288 
L 576 288 
L 576 0 
L 0 0 
z
" style="fill: #ffffff"/>
  </g>
  <g id="axes_1">
   <g id="patch_2">
    <path d="M 53.84 243.16 
L 565.2 243.16 
L 565.2 29.04 
L 53.84 29.04 
z
" style="fill: #ffffff"/>
   </g>
   <g id="matplotlib.axis_1">
    <g id="xtick_1">
     <g id="line2d_1">
      <path d="M 77.083636 243.16 
L 77.083636 29.04 
" clip-path="url(#pae5a7fd2cf)" style="fill: none; stroke-dasharray: 0.8,1.32; stroke-dashoffset: 0; stroke: #b0b0b0; stroke-opacity: 0.7; stroke-width: 0.8"/>
     </g>
     <g id="line2d_2">
      <defs>
       <path id="mdc55855289" d="M 0 0 
L 0 3.5 
" style="stroke: #000000; stroke-width: 0.8"/>
      </defs>
      <g>
       <use xlink:href="#mdc55855289" x="77.083636" y="243.16" style="stroke: #000000; stroke-width: 0.8"/>
      </g>
     </g>
     <g id="text_1">
      <!-- 0 -->
      <g transform="translate(73.902386 257.758438) scale(0.1 -0.1)">
       <defs>
        <path id="DejaVuSans-30" d="M 2034 4250 
Q 1547 4250 1301 3770 
Q 1056 3291 1056 2328 
Q 1056 1369 1301 889 
Q 1547 409 2034 409 
Q 2525 409 2770 889 
Q 3016 1369 3016 2328 
Q 3016 3291 2770 3770 
Q 2525 4250 2034 4250 
z
M 2034 4750 
Q 2819 4750 3233 4129 
Q 3647 3509 3647 2328 
Q 3647 1150 3233 529 
Q 2819 -91 2034 -91 
Q 1250 -91 836 529 
Q 422 1150 422 2328 
Q 422 3509 836 4129 
Q 1250 4750 2034 4750 
z
" transform="scale(0.015625)"/>
       </defs>
       <use xlink:href="#DejaVuSans-30"/>
      </g>
     </g>
    </g>
    <g id="xtick_2">
     <g id="line2d_3">
      <path d="M 170.058182 243.16 
L 170.058182 29.04 
" clip-path="url(#pae5a7fd2cf)" style="fill: none; stroke-dasharray: 0.8,1.32; stroke-dashoffset: 0; stroke: #b0b0b0; stroke-opacity: 0.7; stroke-width: 0.8"/>
     </g>
     <g id="line2d_4">
      <g>
       <use xlink:href="#mdc55855289" x="170.058182" y="243.16" style="stroke: #000000; stroke-width: 0.8"/>
      </g>
     </g>
     <g id="text_2">
      <!-- 10 -->
      <g transform="translate(163.695682 257.758438) scale(0.1 -0.1)">
       <defs>
        <path id="DejaVuSans-31" d="M 794 531 
L 1825 531 
L 1825 4091 
L 703 3866 
L 703 4441 
L 1819 4666 
L 2450 4666 
L 2450 531 
L 3481 531 
L 3481 0 
L 794 0 
L 794 531 
z
" transform="scale(0.015625)"/>
       </defs>
       <use xlink:href="#DejaVuSans-31"/>
       <use xlink:href="#DejaVuSans-30" transform="translate(63.623047 0)"/>
      </g>
     </g>
    </g>
    <g id="xtick_3">
     <g id="line2d_5">
      <path d="M 263.032727 243.16 
L 263.032727 29.04 
" clip-path="url(#pae5a7fd2cf)" style="fill: none; stroke-dasharray: 0.8,1.32; stroke-dashoffset: 0; stroke: #b0b0b0; stroke-opacity: 0.7; stroke-width: 0.8"/>
     </g>
     <g id="line2d_6">
      <g>
       <use xlink:href="#mdc55855289" x="263.032727" y="243.16" style="stroke: #000000; stroke-width: 0.8"/>
      </g>
     </g>
     <g id="text_3">
      <!-- 20 -->
      <g transform="translate(256.670227 257.758438) scale(0.1 -0.1)">
       <defs>
        <path id="DejaVuSans-32" d="M 1228 531 
L 3431 531 
L 3431 0 
L 469 0 
L 469 531 
Q 828 903 1448 1529 
Q 2069 2156 2228 2338 
Q 2531 2678 2651 2914 
Q 2772 3150 2772 3378 
Q 2772 3750 2511 3984 
Q 2250 4219 1831 4219 
Q 1534 4219 1204 4116 
Q 875 4013 500 3803 
L 500 4441 
Q 881 4594 1212 4672 
Q 1544 4750 1819 4750 
Q 2544 4750 2975 4387 
Q 3406 4025 3406 3419 
Q 3406 3131 3298 2873 
Q 3191 2616 2906 2266 
Q 2828 2175 2409 1742 
Q 1991 1309 1228 531 
z
" transform="scale(0.015625)"/>
       </defs>
       <use xlink:href="#DejaVuSans-32"/>
       <use xlink:href="#DejaVuSans-30" transform="translate(63.623047 0)"/>
      </g>
     </g>
    </g>
    <g id="xtick_4">
     <g id="line2d_7">
      <path d="M 356.007273 243.16 
L 356.007273 29.04 
" clip-path="url(#pae5a7fd2cf)" style="fill: none; stroke-dasharray: 0.8,1.32; stroke-dashoffset: 0; stroke: #b0b0b0; stroke-opacity: 0.7; stroke-width: 0.8"/>
     </g>
     <g id="line2d_8">
      <g>
       <use xlink:href="#mdc55855289" x="356.007273" y="243.16" style="stroke: #000000; stroke-width: 0.8"/>
      </g>
     </g>
     <g id="text_4">
      <!-- 30 -->
      <g transform="translate(349.644773 257.758438) scale(0.1 -0.1)">
       <defs>
        <path id="DejaVuSans-33" d="M 2597 2516 
Q 3050 2419 3304 2112 
Q 3559 1806 3559 1356 
Q 3559 666 3084 287 
Q 2609 -91 1734 -91 
Q 1441 -91 1130 -33 
Q 819 25 488 141 
L 488 750 
Q 750 597 1062 519 
Q 1375 441 1716 441 
Q 2309 441 2620 675 
Q 2931 909 2931 1356 
Q 2931 1769 2642 2001 
Q 2353 2234 1838 2234 
L 1294 2234 
L 1294 2753 
L 1863 2753 
Q 2328 2753 2575 2939 
Q 2822 3125 2822 3475 
Q 2822 3834 2567 4026 
Q 2313 4219 1838 4219 
Q 1578 4219 1281 4162 
Q 984 4106 628 3988 
L 628 4550 
Q 988 4650 1302 4700 
Q 1616 4750 1894 4750 
Q 2613 4750 3031 4423 
Q 3450 4097 3450 3541 
Q 3450 3153 3228 2886 
Q 3006 2619 2597 2516 
z
" transform="scale(0.015625)"/>
       </defs>
       <use xlink:href="#DejaVuSans-33"/>
       <use xlink:href="#DejaVuSans-30" transform="translate(63.623047 0)"/>
      </g>
     </g>
    </g>
    <g id="xtick_5">
     <g id="line2d_9">
      <path d="M 448.981818 243.16 
L 448.981818 29.04 
" clip-path="url(#pae5a7fd2cf)" style="fill: none; stroke-dasharray: 0.8,1.32; stroke-dashoffset: 0; stroke: #b0b0b0; stroke-opacity: 0.7; stroke-width: 0.8"/>
     </g>
     <g id="line2d_10">
      <g>
       <use xlink:href="#mdc55855289" x="448.981818" y="243.16" style="stroke: #000000; stroke-width: 0.8"/>
      </g>
     </g>
     <g id="text_5">
      <!-- 40 -->
      <g transform="translate(442.619318 257.758438) scale(0.1 -0.1)">
       <defs>
        <path id="DejaVuSans-34" d="M 2419 4116 
L 825 1625 
L 2419 1625 
L 2419 4116 
z
M 2253 4666 
L 3047 4666 
L 3047 1625 
L 3713 1625 
L 3713 1100 
L 3047 1100 
L 3047 0 
L 2419 0 
L 2419 1100 
L 313 1100 
L 313 1709 
L 2253 4666 
z
" transform="scale(0.015625)"/>
       </defs>
       <use xlink:href="#DejaVuSans-34"/>
       <use xlink:href="#DejaVuSans-30" transform="translate(63.623047 0)"/>
      </g>
     </g>
    </g>
    <g id="xtick_6">
     <g id="line2d_11">
      <path d="M 541.956364 243.16 
L 541.956364 29.04 
" clip-path="url(#pae5a7fd2cf)" style="fill: none; stroke-dasharray: 0.8,1.32; stroke-dashoffset: 0; stroke: #b0b0b0; stroke-opacity: 0.7; stroke-width: 0.8"/>
     </g>
     <g id="line2d_12">
      <g>
       <use xlink:href="#mdc55855289" x="541.956364" y="243.16" style="stroke: #000000; stroke-width: 0.8"/>
      </g>
     </g>
     <g id="text_6">
      <!-- 50 -->
      <g transform="translate(535.593864 257.758438) scale(0.1 -0.1)">
       <defs>
        <path id="DejaVuSans-35" d="M 691 4666 
L 3169 4666 
L 3169 4134 
L 1269 4134 
L 1269 2991 
Q 1406 3038 1543 3061 
Q 1681 3084 1819 3084 
Q 2600 3084 3056 2656 
Q 3513 2228 3513 1497 
Q 3513 744 3044 326 
Q 2575 -91 1722 -91 
Q 1428 -91 1123 -41 
Q 819 9 494 109 
L 494 744 
Q 775 591 1075 516 
Q 1375 441 1709 441 
Q 2250 441 2565 725 
Q 2881 1009 2881 1497 
Q 2881 1984 2565 2268 
Q 2250 2553 1709 2553 
Q 1456 2553 1204 2497 
Q 953 2441 691 2322 
L 691 4666 
z
" transform="scale(0.015625)"/>
       </defs>
       <use xlink:href="#DejaVuSans-35"/>
       <use xlink:href="#DejaVuSans-30" transform="translate(63.623047 0)"/>
      </g>
     </g>
    </g>
    <g id="text_7">
     <!-- Time (s) -->
     <g transform="translate(285.125313 272.95625) scale(0.12 -0.12)">
      <defs>
       <path id="DejaVuSans-54" d="M -19 4666 
L 3928 4666 
L 3928 4134 
L 2272 4134 
L 2272 0 
L 1638 0 
L 1638 4134 
L -19 4134 
L -19 4666 
z
" transform="scale(0.015625)"/>
       <path id="DejaVuSans-69" d="M 603 3500 
L 1178 3500 
L 1178 0 
L 603 0 
L 603 3500 
z
M 603 4863 
L 1178 4863 
L 1178 4134 
L 603 4134 
L 603 4863 
z
" transform="scale(0.015625)"/>
       <path id="DejaVuSans-6d" d="M 3328 2828 
Q 3544 3216 3844 3400 
Q 4144 3584 4550 3584 
Q 5097 3584 5394 3201 
Q 5691 2819 5691 2113 
L 5691 0 
L 5113 0 
L 5113 2094 
Q 5113 2597 4934 2840 
Q 4756 3084 4391 3084 
Q 3944 3084 3684 2787 
Q 3425 2491 3425 1978 
L 3425 0 
L 2847 0 
L 2847 2094 
Q 2847 2600 2669 2842 
Q 2491 3084 2119 3084 
Q 1678 3084 1418 2786 
Q 1159 2488 1159 1978 
L 1159 0 
L 581 0 
L 581 3500 
L 1159 3500 
L 1159 2956 
Q 1356 3278 1631 3431 
Q 1906 3584 2284 3584 
Q 2666 3584 2933 3390 
Q 3200 3197 3328 2828 
z
" transform="scale(0.015625)"/>
       <path id="DejaVuSans-65" d="M 3597 1894 
L 3597 1613 
L 953 1613 
Q 991 1019 1311 708 
Q 1631 397 2203 397 
Q 2534 397 2845 478 
Q 3156 559 3463 722 
L 3463 178 
Q 3153 47 2828 -22 
Q 2503 -91 2169 -91 
Q 1331 -91 842 396 
Q 353 884 353 1716 
Q 353 2575 817 3079 
Q 1281 3584 2069 3584 
Q 2775 3584 3186 3129 
Q 3597 2675 3597 1894 
z
M 3022 2063 
Q 3016 2534 2758 2815 
Q 2500 3097 2075 3097 
Q 1594 3097 1305 2825 
Q 1016 2553 972 2059 
L 3022 2063 
z
" transform="scale(0.015625)"/>
       <path id="DejaVuSans-20" transform="scale(0.015625)"/>
       <path id="DejaVuSans-28" d="M 1984 4856 
Q 1566 4138 1362 3434 
Q 1159 2731 1159 2009 
Q 1159 1288 1364 580 
Q 1569 -128 1984 -844 
L 1484 -844 
Q 1016 -109 783 600 
Q 550 1309 550 2009 
Q 550 2706 781 3412 
Q 1013 4119 1484 4856 
L 1984 4856 
z
" transform="scale(0.015625)"/>
       <path id="DejaVuSans-73" d="M 2834 3397 
L 2834 2853 
Q 2591 2978 2328 3040 
Q 2066 3103 1784 3103 
Q 1356 3103 1142 2972 
Q 928 2841 928 2578 
Q 928 2378 1081 2264 
Q 1234 2150 1697 2047 
L 1894 2003 
Q 2506 1872 2764 1633 
Q 3022 1394 3022 966 
Q 3022 478 2636 193 
Q 2250 -91 1575 -91 
Q 1294 -91 989 -36 
Q 684 19 347 128 
L 347 722 
Q 666 556 975 473 
Q 1284 391 1588 391 
Q 1994 391 2212 530 
Q 2431 669 2431 922 
Q 2431 1156 2273 1281 
Q 2116 1406 1581 1522 
L 1381 1569 
Q 847 1681 609 1914 
Q 372 2147 372 2553 
Q 372 3047 722 3315 
Q 1072 3584 1716 3584 
Q 2034 3584 2315 3537 
Q 2597 3491 2834 3397 
z
" transform="scale(0.015625)"/>
       <path id="DejaVuSans-29" d="M 513 4856 
L 1013 4856 
Q 1481 4119 1714 3412 
Q 1947 2706 1947 2009 
Q 1947 1309 1714 600 
Q 1481 -109 1013 -844 
L 513 -844 
Q 928 -128 1133 580 
Q 1338 1288 1338 2009 
Q 1338 2731 1133 3434 
Q 928 4138 513 4856 
z
" transform="scale(0.015625)"/>
      </defs>
      <use xlink:href="#DejaVuSans-54"/>
      <use xlink:href="#DejaVuSans-69" transform="translate(57.958984 0)"/>
      <use xlink:href="#DejaVuSans-6d" transform="translate(85.742188 0)"/>
      <use xlink:href="#DejaVuSans-65" transform="translate(183.154297 0)"/>
      <use xlink:href="#DejaVuSans-20" transform="translate(244.677734 0)"/>
      <use xlink:href="#DejaVuSans-28" transform="translate(276.464844 0)"/>
      <use xlink:href="#DejaVuSans-73" transform="translate(315.478516 0)"/>
      <use xlink:href="#DejaVuSans-29" transform="translate(367.578125 0)"/>
     </g>
    </g>
   </g>
   <g id="matplotlib.axis_2">
    <g id="ytick_1">
     <g id="line2d_13">
      <path d="M 53.84 243.16 
L 565.2 243.16 
" clip-path="url(#pae5a7fd2cf)" style="fill: none; stroke-dasharray: 0.8,1.32; stroke-dashoffset: 0; stroke: #b0b0b0; stroke-opacity: 0.7; stroke-width: 0.8"/>
     </g>
     <g id="line2d_14">
      <defs>
       <path id="mddb5d058a7" d="M 0 0 
L -3.5 0 
" style="stroke: #000000; stroke-width: 0.8"/>
      </defs>
      <g>
       <use xlink:href="#mddb5d058a7" x="53.84" y="243.16" style="stroke: #000000; stroke-width: 0.8"/>
      </g>
     </g>
     <g id="text_8">
      <!-- 290 -->
      <g transform="translate(27.7525 246.959219) scale(0.1 -0.1)">
       <defs>
        <path id="DejaVuSans-39" d="M 703 97 
L 703 672 
Q 941 559 1184 500 
Q 1428 441 1663 441 
Q 2288 441 2617 861 
Q 2947 1281 2994 2138 
Q 2813 1869 2534 1725 
Q 2256 1581 1919 1581 
Q 1219 1581 811 2004 
Q 403 2428 403 3163 
Q 403 3881 828 4315 
Q 1253 4750 1959 4750 
Q 2769 4750 3195 4129 
Q 3622 3509 3622 2328 
Q 3622 1225 3098 567 
Q 2575 -91 1691 -91 
Q 1453 -91 1209 -44 
Q 966 3 703 97 
z
M 1959 2075 
Q 2384 2075 2632 2365 
Q 2881 2656 2881 3163 
Q 2881 3666 2632 3958 
Q 2384 4250 1959 4250 
Q 1534 4250 1286 3958 
Q 1038 3666 1038 3163 
Q 1038 2656 1286 2365 
Q 1534 2075 1959 2075 
z
" transform="scale(0.015625)"/>
       </defs>
       <use xlink:href="#DejaVuSans-32"/>
       <use xlink:href="#DejaVuSans-39" transform="translate(63.623047 0)"/>
       <use xlink:href="#DejaVuSans-30" transform="translate(127.246094 0)"/>
      </g>
     </g>
    </g>
    <g id="ytick_2">
     <g id="line2d_15">
      <path d="M 53.84 214.610667 
L 565.2 214.610667 
" clip-path="url(#pae5a7fd2cf)" style="fill: none; stroke-dasharray: 0.8,1.32; stroke-dashoffset: 0; stroke: #b0b0b0; stroke-opacity: 0.7; stroke-width: 0.8"/>
     </g>
     <g id="line2d_16">
      <g>
       <use xlink:href="#mddb5d058a7" x="53.84" y="214.610667" style="stroke: #000000; stroke-width: 0.8"/>
      </g>
     </g>
     <g id="text_9">
      <!-- 292 -->
      <g transform="translate(27.7525 218.409885) scale(0.1 -0.1)">
       <use xlink:href="#DejaVuSans-32"/>
       <use xlink:href="#DejaVuSans-39" transform="translate(63.623047 0)"/>
       <use xlink:href="#DejaVuSans-32" transform="translate(127.246094 0)"/>
      </g>
     </g>
    </g>
    <g id="ytick_3">
     <g id="line2d_17">
      <path d="M 53.84 186.061333 
L 565.2 186.061333 
" clip-path="url(#pae5a7fd2cf)" style="fill: none; stroke-dasharray: 0.8,1.32; stroke-dashoffset: 0; stroke: #b0b0b0; stroke-opacity: 0.7; stroke-width: 0.8"/>
     </g>
     <g id="line2d_18">
      <g>
       <use xlink:href="#mddb5d058a7" x="53.84" y="186.061333" style="stroke: #000000; stroke-width: 0.8"/>
      </g>
     </g>
     <g id="text_10">
      <!-- 294 -->
      <g transform="translate(27.7525 189.860552) scale(0.1 -0.1)">
       <use xlink:href="#DejaVuSans-32"/>
       <use xlink:href="#DejaVuSans-39" transform="translate(63.623047 0)"/>
       <use xlink:href="#DejaVuSans-34" transform="translate(127.246094 0)"/>
      </g>
     </g>
    </g>
    <g id="ytick_4">
     <g id="line2d_19">
      <path d="M 53.84 157.512 
L 565.2 157.512 
" clip-path="url(#pae5a7fd2cf)" style="fill: none; stroke-dasharray: 0.8,1.32; stroke-dashoffset: 0; stroke: #b0b0b0; stroke-opacity: 0.7; stroke-width: 0.8"/>
     </g>
     <g id="line2d_20">
      <g>
       <use xlink:href="#mddb5d058a7" x="53.84" y="157.512" style="stroke: #000000; stroke-width: 0.8"/>
      </g>
     </g>
     <g id="text_11">
      <!-- 296 -->
      <g transform="translate(27.7525 161.311219) scale(0.1 -0.1)">
       <defs>
        <path id="DejaVuSans-36" d="M 2113 2584 
Q 1688 2584 1439 2293 
Q 1191 2003 1191 1497 
Q 1191 994 1439 701 
Q 1688 409 2113 409 
Q 2538 409 2786 701 
Q 3034 994 3034 1497 
Q 3034 2003 2786 2293 
Q 2538 2584 2113 2584 
z
M 3366 4563 
L 3366 3988 
Q 3128 4100 2886 4159 
Q 2644 4219 2406 4219 
Q 1781 4219 1451 3797 
Q 1122 3375 1075 2522 
Q 1259 2794 1537 2939 
Q 1816 3084 2150 3084 
Q 2853 3084 3261 2657 
Q 3669 2231 3669 1497 
Q 3669 778 3244 343 
Q 2819 -91 2113 -91 
Q 1303 -91 875 529 
Q 447 1150 447 2328 
Q 447 3434 972 4092 
Q 1497 4750 2381 4750 
Q 2619 4750 2861 4703 
Q 3103 4656 3366 4563 
z
" transform="scale(0.015625)"/>
       </defs>
       <use xlink:href="#DejaVuSans-32"/>
       <use xlink:href="#DejaVuSans-39" transform="translate(63.623047 0)"/>
       <use xlink:href="#DejaVuSans-36" transform="translate(127.246094 0)"/>
      </g>
     </g>
    </g>
    <g id="ytick_5">
     <g id="line2d_21">
      <path d="M 53.84 128.962667 
L 565.2 128.962667 
" clip-path="url(#pae5a7fd2cf)" style="fill: none; stroke-dasharray: 0.8,1.32; stroke-dashoffset: 0; stroke: #b0b0b0; stroke-opacity: 0.7; stroke-width: 0.8"/>
     </g>
     <g id="line2d_22">
      <g>
       <use xlink:href="#mddb5d058a7" x="53.84" y="128.962667" style="stroke: #000000; stroke-width: 0.8"/>
      </g>
     </g>
     <g id="text_12">
      <!-- 298 -->
      <g transform="translate(27.7525 132.761885) scale(0.1 -0.1)">
       <defs>
        <path id="DejaVuSans-38" d="M 2034 2216 
Q 1584 2216 1326 1975 
Q 1069 1734 1069 1313 
Q 1069 891 1326 650 
Q 1584 409 2034 409 
Q 2484 409 2743 651 
Q 3003 894 3003 1313 
Q 3003 1734 2745 1975 
Q 2488 2216 2034 2216 
z
M 1403 2484 
Q 997 2584 770 2862 
Q 544 3141 544 3541 
Q 544 4100 942 4425 
Q 1341 4750 2034 4750 
Q 2731 4750 3128 4425 
Q 3525 4100 3525 3541 
Q 3525 3141 3298 2862 
Q 3072 2584 2669 2484 
Q 3125 2378 3379 2068 
Q 3634 1759 3634 1313 
Q 3634 634 3220 271 
Q 2806 -91 2034 -91 
Q 1263 -91 848 271 
Q 434 634 434 1313 
Q 434 1759 690 2068 
Q 947 2378 1403 2484 
z
M 1172 3481 
Q 1172 3119 1398 2916 
Q 1625 2713 2034 2713 
Q 2441 2713 2670 2916 
Q 2900 3119 2900 3481 
Q 2900 3844 2670 4047 
Q 2441 4250 2034 4250 
Q 1625 4250 1398 4047 
Q 1172 3844 1172 3481 
z
" transform="scale(0.015625)"/>
       </defs>
       <use xlink:href="#DejaVuSans-32"/>
       <use xlink:href="#DejaVuSans-39" transform="translate(63.623047 0)"/>
       <use xlink:href="#DejaVuSans-38" transform="translate(127.246094 0)"/>
      </g>
     </g>
    </g>
    <g id="ytick_6">
     <g id="line2d_23">
      <path d="M 53.84 100.413333 
L 565.2 100.413333 
" clip-path="url(#pae5a7fd2cf)" style="fill: none; stroke-dasharray: 0.8,1.32; stroke-dashoffset: 0; stroke: #b0b0b0; stroke-opacity: 0.7; stroke-width: 0.8"/>
     </g>
     <g id="line2d_24">
      <g>
       <use xlink:href="#mddb5d058a7" x="53.84" y="100.413333" style="stroke: #000000; stroke-width: 0.8"/>
      </g>
     </g>
     <g id="text_13">
      <!-- 300 -->
      <g transform="translate(27.7525 104.212552) scale(0.1 -0.1)">
       <use xlink:href="#DejaVuSans-33"/>
       <use xlink:href="#DejaVuSans-30" transform="translate(63.623047 0)"/>
       <use xlink:href="#DejaVuSans-30" transform="translate(127.246094 0)"/>
      </g>
     </g>
    </g>
    <g id="ytick_7">
     <g id="line2d_25">
      <path d="M 53.84 71.864 
L 565.2 71.864 
" clip-path="url(#pae5a7fd2cf)" style="fill: none; stroke-dasharray: 0.8,1.32; stroke-dashoffset: 0; stroke: #b0b0b0; stroke-opacity: 0.7; stroke-width: 0.8"/>
     </g>
     <g id="line2d_26">
      <g>
       <use xlink:href="#mddb5d058a7" x="53.84" y="71.864" style="stroke: #000000; stroke-width: 0.8"/>
      </g>
     </g>
     <g id="text_14">
      <!-- 302 -->
      <g transform="translate(27.7525 75.663219) scale(0.1 -0.1)">
       <use xlink:href="#DejaVuSans-33"/>
       <use xlink:href="#DejaVuSans-30" transform="translate(63.623047 0)"/>
       <use xlink:href="#DejaVuSans-32" transform="translate(127.246094 0)"/>
      </g>
     </g>
    </g>
    <g id="ytick_8">
     <g id="line2d_27">
      <path d="M 53.84 43.314667 
L 565.2 43.314667 
" clip-path="url(#pae5a7fd2cf)" style="fill: none; stroke-dasharray: 0.8,1.32; stroke-dashoffset: 0; stroke: #b0b0b0; stroke-opacity: 0.7; stroke-width: 0.8"/>
     </g>
     <g id="line2d_28">
      <g>
       <use xlink:href="#mddb5d058a7" x="53.84" y="43.314667" style="stroke: #000000; stroke-width: 0.8"/>
      </g>
     </g>
     <g id="text_15">
      <!-- 304 -->
      <g transform="translate(27.7525 47.113885) scale(0.1 -0.1)">
       <use xlink:href="#DejaVuSans-33"/>
       <use xlink:href="#DejaVuSans-30" transform="translate(63.623047 0)"/>
       <use xlink:href="#DejaVuSans-34" transform="translate(127.246094 0)"/>
      </g>
     </g>
    </g>
    <g id="text_16">
     <!-- Temperature (K) -->
     <g transform="translate(21.256875 184.626875) rotate(-90) scale(0.12 -0.12)">
      <defs>
       <path id="DejaVuSans-70" d="M 1159 525 
L 1159 -1331 
L 581 -1331 
L 581 3500 
L 1159 3500 
L 1159 2969 
Q 1341 3281 1617 3432 
Q 1894 3584 2278 3584 
Q 2916 3584 3314 3078 
Q 3713 2572 3713 1747 
Q 3713 922 3314 415 
Q 2916 -91 2278 -91 
Q 1894 -91 1617 61 
Q 1341 213 1159 525 
z
M 3116 1747 
Q 3116 2381 2855 2742 
Q 2594 3103 2138 3103 
Q 1681 3103 1420 2742 
Q 1159 2381 1159 1747 
Q 1159 1113 1420 752 
Q 1681 391 2138 391 
Q 2594 391 2855 752 
Q 3116 1113 3116 1747 
z
" transform="scale(0.015625)"/>
       <path id="DejaVuSans-72" d="M 2631 2963 
Q 2534 3019 2420 3045 
Q 2306 3072 2169 3072 
Q 1681 3072 1420 2755 
Q 1159 2438 1159 1844 
L 1159 0 
L 581 0 
L 581 3500 
L 1159 3500 
L 1159 2956 
Q 1341 3275 1631 3429 
Q 1922 3584 2338 3584 
Q 2397 3584 2469 3576 
Q 2541 3569 2628 3553 
L 2631 2963 
z
" transform="scale(0.015625)"/>
       <path id="DejaVuSans-61" d="M 2194 1759 
Q 1497 1759 1228 1600 
Q 959 1441 959 1056 
Q 959 750 1161 570 
Q 1363 391 1709 391 
Q 2188 391 2477 730 
Q 2766 1069 2766 1631 
L 2766 1759 
L 2194 1759 
z
M 3341 1997 
L 3341 0 
L 2766 0 
L 2766 531 
Q 2569 213 2275 61 
Q 1981 -91 1556 -91 
Q 1019 -91 701 211 
Q 384 513 384 1019 
Q 384 1609 779 1909 
Q 1175 2209 1959 2209 
L 2766 2209 
L 2766 2266 
Q 2766 2663 2505 2880 
Q 2244 3097 1772 3097 
Q 1472 3097 1187 3025 
Q 903 2953 641 2809 
L 641 3341 
Q 956 3463 1253 3523 
Q 1550 3584 1831 3584 
Q 2591 3584 2966 3190 
Q 3341 2797 3341 1997 
z
" transform="scale(0.015625)"/>
       <path id="DejaVuSans-74" d="M 1172 4494 
L 1172 3500 
L 2356 3500 
L 2356 3053 
L 1172 3053 
L 1172 1153 
Q 1172 725 1289 603 
Q 1406 481 1766 481 
L 2356 481 
L 2356 0 
L 1766 0 
Q 1100 0 847 248 
Q 594 497 594 1153 
L 594 3053 
L 172 3053 
L 172 3500 
L 594 3500 
L 594 4494 
L 1172 4494 
z
" transform="scale(0.015625)"/>
       <path id="DejaVuSans-75" d="M 544 1381 
L 544 3500 
L 1119 3500 
L 1119 1403 
Q 1119 906 1312 657 
Q 1506 409 1894 409 
Q 2359 409 2629 706 
Q 2900 1003 2900 1516 
L 2900 3500 
L 3475 3500 
L 3475 0 
L 2900 0 
L 2900 538 
Q 2691 219 2414 64 
Q 2138 -91 1772 -91 
Q 1169 -91 856 284 
Q 544 659 544 1381 
z
M 1991 3584 
L 1991 3584 
z
" transform="scale(0.015625)"/>
       <path id="DejaVuSans-4b" d="M 628 4666 
L 1259 4666 
L 1259 2694 
L 3353 4666 
L 4166 4666 
L 1850 2491 
L 4331 0 
L 3500 0 
L 1259 2247 
L 1259 0 
L 628 0 
L 628 4666 
z
" transform="scale(0.015625)"/>
      </defs>
      <use xlink:href="#DejaVuSans-54"/>
      <use xlink:href="#DejaVuSans-65" transform="translate(44.083984 0)"/>
      <use xlink:href="#DejaVuSans-6d" transform="translate(105.607422 0)"/>
      <use xlink:href="#DejaVuSans-70" transform="translate(203.019531 0)"/>
      <use xlink:href="#DejaVuSans-65" transform="translate(266.496094 0)"/>
      <use xlink:href="#DejaVuSans-72" transform="translate(328.019531 0)"/>
      <use xlink:href="#DejaVuSans-61" transform="translate(369.132812 0)"/>
      <use xlink:href="#DejaVuSans-74" transform="translate(430.412109 0)"/>
      <use xlink:href="#DejaVuSans-75" transform="translate(469.621094 0)"/>
      <use xlink:href="#DejaVuSans-72" transform="translate(533 0)"/>
      <use xlink:href="#DejaVuSans-65" transform="translate(571.863281 0)"/>
      <use xlink:href="#DejaVuSans-20" transform="translate(633.386719 0)"/>
      <use xlink:href="#DejaVuSans-28" transform="translate(665.173828 0)"/>
      <use xlink:href="#DejaVuSans-4b" transform="translate(704.1875 0)"/>
      <use xlink:href="#DejaVuSans-29" transform="translate(769.763672 0)"/>
     </g>
    </g>
   </g>
   <g id="line2d_29">
    <path d="M 77.083636 200.336 
L 86.570835 133.720889 
L 96.058033 67.105778 
L 105.545232 44.900741 
L 115.03243 67.105778 
L 124.519629 109.048626 
L 134.006827 141.122568 
L 143.494026 146.605293 
L 152.981224 127.964027 
L 162.468423 100.839768 
L 171.955622 82.046204 
L 181.44282 79.781195 
L 190.930019 91.041935 
L 200.417217 105.979305 
L 209.904416 115.07638 
L 219.391614 114.42662 
L 228.878813 106.588309 
L 238.366011 97.590042 
L 247.85321 92.695745 
L 257.340408 93.614089 
L 266.827607 98.380901 
L 276.314805 103.341975 
L 285.802004 105.615823 
L 295.289202 104.532499 
L 304.776401 101.481546 
L 314.263599 98.634941 
L 323.750798 97.534115 
L 333.237996 98.370481 
L 342.725195 100.199487 
L 352.212393 101.744364 
L 361.699592 102.195276 
L 371.18679 101.554204 
L 380.673989 100.439581 
L 390.161187 99.589961 
L 399.648386 99.418583 
L 409.135584 99.857903 
L 418.622783 100.512482 
L 428.109981 100.960302 
L 437.59718 100.997085 
L 447.084378 100.699426 
L 456.571577 100.314427 
L 466.058776 100.079543 
L 475.545974 100.090925 
L 485.033173 100.282936 
L 494.520371 100.503814 
L 504.00757 100.62184 
L 513.494768 100.594833 
L 522.981967 100.47253 
L 532.469165 100.346566 
L 541.956364 100.288764 
" clip-path="url(#pae5a7fd2cf)" style="fill: none; stroke: #1f77b4; stroke-width: 2; stroke-linecap: square"/>
    <defs>
     <path id="m155593f2f1" d="M 0 1.5 
C 0.397805 1.5 0.77937 1.341951 1.06066 1.06066 
C 1.341951 0.77937 1.5 0.397805 1.5 0 
C 1.5 -0.397805 1.341951 -0.77937 1.06066 -1.06066 
C 0.77937 -1.341951 0.397805 -1.5 0 -1.5 
C -0.397805 -1.5 -0.77937 -1.341951 -1.06066 -1.06066 
C -1.341951 -0.77937 -1.5 -0.397805 -1.5 0 
C -1.5 0.397805 -1.341951 0.77937 -1.06066 1.06066 
C -0.77937 1.341951 -0.397805 1.5 0 1.5 
z
" style="stroke: #1f77b4"/>
    </defs>
    <g clip-path="url(#pae5a7fd2cf)">
     <use xlink:href="#m155593f2f1" x="77.083636" y="200.336" style="fill: #1f77b4; stroke: #1f77b4"/>
     <use xlink:href="#m155593f2f1" x="86.570835" y="133.720889" style="fill: #1f77b4; stroke: #1f77b4"/>
     <use xlink:href="#m155593f2f1" x="96.058033" y="67.105778" style="fill: #1f77b4; stroke: #1f77b4"/>
     <use xlink:href="#m155593f2f1" x="105.545232" y="44.900741" style="fill: #1f77b4; stroke: #1f77b4"/>
     <use xlink:href="#m155593f2f1" x="115.03243" y="67.105778" style="fill: #1f77b4; stroke: #1f77b4"/>
     <use xlink:href="#m155593f2f1" x="124.519629" y="109.048626" style="fill: #1f77b4; stroke: #1f77b4"/>
     <use xlink:href="#m155593f2f1" x="134.006827" y="141.122568" style="fill: #1f77b4; stroke: #1f77b4"/>
     <use xlink:href="#m155593f2f1" x="143.494026" y="146.605293" style="fill: #1f77b4; stroke: #1f77b4"/>
     <use xlink:href="#m155593f2f1" x="152.981224" y="127.964027" style="fill: #1f77b4; stroke: #1f77b4"/>
     <use xlink:href="#m155593f2f1" x="162.468423" y="100.839768" style="fill: #1f77b4; stroke: #1f77b4"/>
     <use xlink:href="#m155593f2f1" x="171.955622" y="82.046204" style="fill: #1f77b4; stroke: #1f77b4"/>
     <use xlink:href="#m155593f2f1" x="181.44282" y="79.781195" style="fill: #1f77b4; stroke: #1f77b4"/>
     <use xlink:href="#m155593f2f1" x="190.930019" y="91.041935" style="fill: #1f77b4; stroke: #1f77b4"/>
     <use xlink:href="#m155593f2f1" x="200.417217" y="105.979305" style="fill: #1f77b4; stroke: #1f77b4"/>
     <use xlink:href="#m155593f2f1" x="209.904416" y="115.07638" style="fill: #1f77b4; stroke: #1f77b4"/>
     <use xlink:href="#m155593f2f1" x="219.391614" y="114.42662" style="fill: #1f77b4; stroke: #1f77b4"/>
     <use xlink:href="#m155593f2f1" x="228.878813" y="106.588309" style="fill: #1f77b4; stroke: #1f77b4"/>
     <use xlink:href="#m155593f2f1" x="238.366011" y="97.590042" style="fill: #1f77b4; stroke: #1f77b4"/>
     <use xlink:href="#m155593f2f1" x="247.85321" y="92.695745" style="fill: #1f77b4; stroke: #1f77b4"/>
     <use xlink:href="#m155593f2f1" x="257.340408" y="93.614089" style="fill: #1f77b4; stroke: #1f77b4"/>
     <use xlink:href="#m155593f2f1" x="266.827607" y="98.380901" style="fill: #1f77b4; stroke: #1f77b4"/>
     <use xlink:href="#m155593f2f1" x="276.314805" y="103.341975" style="fill: #1f77b4; stroke: #1f77b4"/>
     <use xlink:href="#m155593f2f1" x="285.802004" y="105.615823" style="fill: #1f77b4; stroke: #1f77b4"/>
     <use xlink:href="#m155593f2f1" x="295.289202" y="104.532499" style="fill: #1f77b4; stroke: #1f77b4"/>
     <use xlink:href="#m155593f2f1" x="304.776401" y="101.481546" style="fill: #1f77b4; stroke: #1f77b4"/>
     <use xlink:href="#m155593f2f1" x="314.263599" y="98.634941" style="fill: #1f77b4; stroke: #1f77b4"/>
     <use xlink:href="#m155593f2f1" x="323.750798" y="97.534115" style="fill: #1f77b4; stroke: #1f77b4"/>
     <use xlink:href="#m155593f2f1" x="333.237996" y="98.370481" style="fill: #1f77b4; stroke: #1f77b4"/>
     <use xlink:href="#m155593f2f1" x="342.725195" y="100.199487" style="fill: #1f77b4; stroke: #1f77b4"/>
     <use xlink:href="#m155593f2f1" x="352.212393" y="101.744364" style="fill: #1f77b4; stroke: #1f77b4"/>
     <use xlink:href="#m155593f2f1" x="361.699592" y="102.195276" style="fill: #1f77b4; stroke: #1f77b4"/>
     <use xlink:href="#m155593f2f1" x="371.18679" y="101.554204" style="fill: #1f77b4; stroke: #1f77b4"/>
     <use xlink:href="#m155593f2f1" x="380.673989" y="100.439581" style="fill: #1f77b4; stroke: #1f77b4"/>
     <use xlink:href="#m155593f2f1" x="390.161187" y="99.589961" style="fill: #1f77b4; stroke: #1f77b4"/>
     <use xlink:href="#m155593f2f1" x="399.648386" y="99.418583" style="fill: #1f77b4; stroke: #1f77b4"/>
     <use xlink:href="#m155593f2f1" x="409.135584" y="99.857903" style="fill: #1f77b4; stroke: #1f77b4"/>
     <use xlink:href="#m155593f2f1" x="418.622783" y="100.512482" style="fill: #1f77b4; stroke: #1f77b4"/>
     <use xlink:href="#m155593f2f1" x="428.109981" y="100.960302" style="fill: #1f77b4; stroke: #1f77b4"/>
     <use xlink:href="#m155593f2f1" x="437.59718" y="100.997085" style="fill: #1f77b4; stroke: #1f77b4"/>
     <use xlink:href="#m155593f2f1" x="447.084378" y="100.699426" style="fill: #1f77b4; stroke: #1f77b4"/>
     <use xlink:href="#m155593f2f1" x="456.571577" y="100.314427" style="fill: #1f77b4; stroke: #1f77b4"/>
     <use xlink:href="#m155593f2f1" x="466.058776" y="100.079543" style="fill: #1f77b4; stroke: #1f77b4"/>
     <use xlink:href="#m155593f2f1" x="475.545974" y="100.090925" style="fill: #1f77b4; stroke: #1f77b4"/>
     <use xlink:href="#m155593f2f1" x="485.033173" y="100.282936" style="fill: #1f77b4; stroke: #1f77b4"/>
     <use xlink:href="#m155593f2f1" x="494.520371" y="100.503814" style="fill: #1f77b4; stroke: #1f77b4"/>
     <use xlink:href="#m155593f2f1" x="504.00757" y="100.62184" style="fill: #1f77b4; stroke: #1f77b4"/>
     <use xlink:href="#m155593f2f1" x="513.494768" y="100.594833" style="fill: #1f77b4; stroke: #1f77b4"/>
     <use xlink:href="#m155593f2f1" x="522.981967" y="100.47253" style="fill: #1f77b4; stroke: #1f77b4"/>
     <use xlink:href="#m155593f2f1" x="532.469165" y="100.346566" style="fill: #1f77b4; stroke: #1f77b4"/>
     <use xlink:href="#m155593f2f1" x="541.956364" y="100.288764" style="fill: #1f77b4; stroke: #1f77b4"/>
    </g>
   </g>
   <g id="line2d_30">
    <path d="M 77.083636 200.336 
L 86.570835 150.374667 
L 96.058033 100.413333 
L 105.545232 75.432667 
L 115.03243 73.871375 
L 124.519629 85.581062 
L 134.006827 99.681478 
L 143.494026 109.219994 
L 152.981224 112.194682 
L 162.468423 110.147773 
L 171.955622 105.970146 
L 181.44282 102.143605 
L 190.930019 99.928025 
L 200.417217 99.397995 
L 209.904416 99.936849 
L 219.391614 100.787614 
L 228.878813 101.415571 
L 238.366011 101.62134 
L 247.85321 101.470113 
L 257.340408 101.146933 
L 266.827607 100.828591 
L 276.314805 100.61589 
L 285.802004 100.526458 
L 295.289202 100.52407 
L 304.776401 100.556533 
L 314.263599 100.583194 
L 323.750798 100.585688 
L 333.237996 100.565069 
L 342.725195 100.532508 
L 352.212393 100.500129 
L 361.699592 100.475565 
L 371.18679 100.460753 
L 380.673989 100.453567 
L 390.161187 100.450359 
L 399.648386 100.448006 
L 409.135584 100.444842 
L 418.622783 100.440614 
L 428.109981 100.4359 
L 437.59718 100.431463 
L 447.084378 100.427825 
L 456.571577 100.425134 
L 466.058776 100.423242 
L 475.545974 100.421875 
L 485.033173 100.420774 
L 494.520371 100.419781 
L 504.00757 100.418839 
L 513.494768 100.417959 
L 522.981967 100.417177 
L 532.469165 100.416518 
L 541.956364 100.415986 
" clip-path="url(#pae5a7fd2cf)" style="fill: none; stroke: #ff7f0e; stroke-width: 2; stroke-linecap: square"/>
    <defs>
     <path id="m1738d7e8a8" d="M 0 1.5 
C 0.397805 1.5 0.77937 1.341951 1.06066 1.06066 
C 1.341951 0.77937 1.5 0.397805 1.5 0 
C 1.5 -0.397805 1.341951 -0.77937 1.06066 -1.06066 
C 0.77937 -1.341951 0.397805 -1.5 0 -1.5 
C -0.397805 -1.5 -0.77937 -1.341951 -1.06066 -1.06066 
C -1.341951 -0.77937 -1.5 -0.397805 -1.5 0 
C -1.5 0.397805 -1.341951 0.77937 -1.06066 1.06066 
C -0.77937 1.341951 -0.397805 1.5 0 1.5 
z
" style="stroke: #ff7f0e"/>
    </defs>
    <g clip-path="url(#pae5a7fd2cf)">
     <use xlink:href="#m1738d7e8a8" x="77.083636" y="200.336" style="fill: #ff7f0e; stroke: #ff7f0e"/>
     <use xlink:href="#m1738d7e8a8" x="86.570835" y="150.374667" style="fill: #ff7f0e; stroke: #ff7f0e"/>
     <use xlink:href="#m1738d7e8a8" x="96.058033" y="100.413333" style="fill: #ff7f0e; stroke: #ff7f0e"/>
     <use xlink:href="#m1738d7e8a8" x="105.545232" y="75.432667" style="fill: #ff7f0e; stroke: #ff7f0e"/>
     <use xlink:href="#m1738d7e8a8" x="115.03243" y="73.871375" style="fill: #ff7f0e; stroke: #ff7f0e"/>
     <use xlink:href="#m1738d7e8a8" x="124.519629" y="85.581062" style="fill: #ff7f0e; stroke: #ff7f0e"/>
     <use xlink:href="#m1738d7e8a8" x="134.006827" y="99.681478" style="fill: #ff7f0e; stroke: #ff7f0e"/>
     <use xlink:href="#m1738d7e8a8" x="143.494026" y="109.219994" style="fill: #ff7f0e; stroke: #ff7f0e"/>
     <use xlink:href="#m1738d7e8a8" x="152.981224" y="112.194682" style="fill: #ff7f0e; stroke: #ff7f0e"/>
     <use xlink:href="#m1738d7e8a8" x="162.468423" y="110.147773" style="fill: #ff7f0e; stroke: #ff7f0e"/>
     <use xlink:href="#m1738d7e8a8" x="171.955622" y="105.970146" style="fill: #ff7f0e; stroke: #ff7f0e"/>
     <use xlink:href="#m1738d7e8a8" x="181.44282" y="102.143605" style="fill: #ff7f0e; stroke: #ff7f0e"/>
     <use xlink:href="#m1738d7e8a8" x="190.930019" y="99.928025" style="fill: #ff7f0e; stroke: #ff7f0e"/>
     <use xlink:href="#m1738d7e8a8" x="200.417217" y="99.397995" style="fill: #ff7f0e; stroke: #ff7f0e"/>
     <use xlink:href="#m1738d7e8a8" x="209.904416" y="99.936849" style="fill: #ff7f0e; stroke: #ff7f0e"/>
     <use xlink:href="#m1738d7e8a8" x="219.391614" y="100.787614" style="fill: #ff7f0e; stroke: #ff7f0e"/>
     <use xlink:href="#m1738d7e8a8" x="228.878813" y="101.415571" style="fill: #ff7f0e; stroke: #ff7f0e"/>
     <use xlink:href="#m1738d7e8a8" x="238.366011" y="101.62134" style="fill: #ff7f0e; stroke: #ff7f0e"/>
     <use xlink:href="#m1738d7e8a8" x="247.85321" y="101.470113" style="fill: #ff7f0e; stroke: #ff7f0e"/>
     <use xlink:href="#m1738d7e8a8" x="257.340408" y="101.146933" style="fill: #ff7f0e; stroke: #ff7f0e"/>
     <use xlink:href="#m1738d7e8a8" x="266.827607" y="100.828591" style="fill: #ff7f0e; stroke: #ff7f0e"/>
     <use xlink:href="#m1738d7e8a8" x="276.314805" y="100.61589" style="fill: #ff7f0e; stroke: #ff7f0e"/>
     <use xlink:href="#m1738d7e8a8" x="285.802004" y="100.526458" style="fill: #ff7f0e; stroke: #ff7f0e"/>
     <use xlink:href="#m1738d7e8a8" x="295.289202" y="100.52407" style="fill: #ff7f0e; stroke: #ff7f0e"/>
     <use xlink:href="#m1738d7e8a8" x="304.776401" y="100.556533" style="fill: #ff7f0e; stroke: #ff7f0e"/>
     <use xlink:href="#m1738d7e8a8" x="314.263599" y="100.583194" style="fill: #ff7f0e; stroke: #ff7f0e"/>
     <use xlink:href="#m1738d7e8a8" x="323.750798" y="100.585688" style="fill: #ff7f0e; stroke: #ff7f0e"/>
     <use xlink:href="#m1738d7e8a8" x="333.237996" y="100.565069" style="fill: #ff7f0e; stroke: #ff7f0e"/>
     <use xlink:href="#m1738d7e8a8" x="342.725195" y="100.532508" style="fill: #ff7f0e; stroke: #ff7f0e"/>
     <use xlink:href="#m1738d7e8a8" x="352.212393" y="100.500129" style="fill: #ff7f0e; stroke: #ff7f0e"/>
     <use xlink:href="#m1738d7e8a8" x="361.699592" y="100.475565" style="fill: #ff7f0e; stroke: #ff7f0e"/>
     <use xlink:href="#m1738d7e8a8" x="371.18679" y="100.460753" style="fill: #ff7f0e; stroke: #ff7f0e"/>
     <use xlink:href="#m1738d7e8a8" x="380.673989" y="100.453567" style="fill: #ff7f0e; stroke: #ff7f0e"/>
     <use xlink:href="#m1738d7e8a8" x="390.161187" y="100.450359" style="fill: #ff7f0e; stroke: #ff7f0e"/>
     <use xlink:href="#m1738d7e8a8" x="399.648386" y="100.448006" style="fill: #ff7f0e; stroke: #ff7f0e"/>
     <use xlink:href="#m1738d7e8a8" x="409.135584" y="100.444842" style="fill: #ff7f0e; stroke: #ff7f0e"/>
     <use xlink:href="#m1738d7e8a8" x="418.622783" y="100.440614" style="fill: #ff7f0e; stroke: #ff7f0e"/>
     <use xlink:href="#m1738d7e8a8" x="428.109981" y="100.4359" style="fill: #ff7f0e; stroke: #ff7f0e"/>
     <use xlink:href="#m1738d7e8a8" x="437.59718" y="100.431463" style="fill: #ff7f0e; stroke: #ff7f0e"/>
     <use xlink:href="#m1738d7e8a8" x="447.084378" y="100.427825" style="fill: #ff7f0e; stroke: #ff7f0e"/>
     <use xlink:href="#m1738d7e8a8" x="456.571577" y="100.425134" style="fill: #ff7f0e; stroke: #ff7f0e"/>
     <use xlink:href="#m1738d7e8a8" x="466.058776" y="100.423242" style="fill: #ff7f0e; stroke: #ff7f0e"/>
     <use xlink:href="#m1738d7e8a8" x="475.545974" y="100.421875" style="fill: #ff7f0e; stroke: #ff7f0e"/>
     <use xlink:href="#m1738d7e8a8" x="485.033173" y="100.420774" style="fill: #ff7f0e; stroke: #ff7f0e"/>
     <use xlink:href="#m1738d7e8a8" x="494.520371" y="100.419781" style="fill: #ff7f0e; stroke: #ff7f0e"/>
     <use xlink:href="#m1738d7e8a8" x="504.00757" y="100.418839" style="fill: #ff7f0e; stroke: #ff7f0e"/>
     <use xlink:href="#m1738d7e8a8" x="513.494768" y="100.417959" style="fill: #ff7f0e; stroke: #ff7f0e"/>
     <use xlink:href="#m1738d7e8a8" x="522.981967" y="100.417177" style="fill: #ff7f0e; stroke: #ff7f0e"/>
     <use xlink:href="#m1738d7e8a8" x="532.469165" y="100.416518" style="fill: #ff7f0e; stroke: #ff7f0e"/>
     <use xlink:href="#m1738d7e8a8" x="541.956364" y="100.415986" style="fill: #ff7f0e; stroke: #ff7f0e"/>
    </g>
   </g>
   <g id="line2d_31">
    <path d="M 77.083636 200.336 
L 86.570835 160.366933 
L 96.058033 120.397867 
L 105.545232 96.416427 
L 115.03243 86.823851 
L 124.519629 86.504098 
L 134.006827 90.373104 
L 143.494026 94.919985 
L 152.981224 98.398253 
L 162.468423 100.36844 
L 171.955622 101.097489 
L 181.44282 101.079662 
L 190.930019 100.75743 
L 200.417217 100.41532 
L 209.904416 100.181893 
L 219.391614 100.07839 
L 228.878813 100.072845 
L 238.366011 100.12003 
L 247.85321 100.182942 
L 257.340408 100.239655 
L 266.827607 100.281677 
L 276.314805 100.309096 
L 285.802004 100.325812 
L 295.289202 100.336279 
L 304.776401 100.343894 
L 314.263599 100.350615 
L 323.750798 100.357219 
L 333.237996 100.363777 
L 342.725195 100.370072 
L 352.212393 100.375855 
L 361.699592 100.380978 
L 371.18679 100.385402 
L 380.673989 100.389173 
L 390.161187 100.392381 
L 399.648386 100.395122 
L 409.135584 100.397482 
L 418.622783 100.399529 
L 428.109981 100.401313 
L 437.59718 100.402872 
L 447.084378 100.404233 
L 456.571577 100.405421 
L 466.058776 100.406455 
L 475.545974 100.407354 
L 485.033173 100.408136 
L 494.520371 100.408815 
L 504.00757 100.409405 
L 513.494768 100.409917 
L 522.981967 100.410363 
L 532.469165 100.41075 
L 541.956364 100.411087 
" clip-path="url(#pae5a7fd2cf)" style="fill: none; stroke: #2ca02c; stroke-width: 2; stroke-linecap: square"/>
    <defs>
     <path id="ma981a6744d" d="M 0 1.5 
C 0.397805 1.5 0.77937 1.341951 1.06066 1.06066 
C 1.341951 0.77937 1.5 0.397805 1.5 0 
C 1.5 -0.397805 1.341951 -0.77937 1.06066 -1.06066 
C 0.77937 -1.341951 0.397805 -1.5 0 -1.5 
C -0.397805 -1.5 -0.77937 -1.341951 -1.06066 -1.06066 
C -1.341951 -0.77937 -1.5 -0.397805 -1.5 0 
C -1.5 0.397805 -1.341951 0.77937 -1.06066 1.06066 
C -0.77937 1.341951 -0.397805 1.5 0 1.5 
z
" style="stroke: #2ca02c"/>
    </defs>
    <g clip-path="url(#pae5a7fd2cf)">
     <use xlink:href="#ma981a6744d" x="77.083636" y="200.336" style="fill: #2ca02c; stroke: #2ca02c"/>
     <use xlink:href="#ma981a6744d" x="86.570835" y="160.366933" style="fill: #2ca02c; stroke: #2ca02c"/>
     <use xlink:href="#ma981a6744d" x="96.058033" y="120.397867" style="fill: #2ca02c; stroke: #2ca02c"/>
     <use xlink:href="#ma981a6744d" x="105.545232" y="96.416427" style="fill: #2ca02c; stroke: #2ca02c"/>
     <use xlink:href="#ma981a6744d" x="115.03243" y="86.823851" style="fill: #2ca02c; stroke: #2ca02c"/>
     <use xlink:href="#ma981a6744d" x="124.519629" y="86.504098" style="fill: #2ca02c; stroke: #2ca02c"/>
     <use xlink:href="#ma981a6744d" x="134.006827" y="90.373104" style="fill: #2ca02c; stroke: #2ca02c"/>
     <use xlink:href="#ma981a6744d" x="143.494026" y="94.919985" style="fill: #2ca02c; stroke: #2ca02c"/>
     <use xlink:href="#ma981a6744d" x="152.981224" y="98.398253" style="fill: #2ca02c; stroke: #2ca02c"/>
     <use xlink:href="#ma981a6744d" x="162.468423" y="100.36844" style="fill: #2ca02c; stroke: #2ca02c"/>
     <use xlink:href="#ma981a6744d" x="171.955622" y="101.097489" style="fill: #2ca02c; stroke: #2ca02c"/>
     <use xlink:href="#ma981a6744d" x="181.44282" y="101.079662" style="fill: #2ca02c; stroke: #2ca02c"/>
     <use xlink:href="#ma981a6744d" x="190.930019" y="100.75743" style="fill: #2ca02c; stroke: #2ca02c"/>
     <use xlink:href="#ma981a6744d" x="200.417217" y="100.41532" style="fill: #2ca02c; stroke: #2ca02c"/>
     <use xlink:href="#ma981a6744d" x="209.904416" y="100.181893" style="fill: #2ca02c; stroke: #2ca02c"/>
     <use xlink:href="#ma981a6744d" x="219.391614" y="100.07839" style="fill: #2ca02c; stroke: #2ca02c"/>
     <use xlink:href="#ma981a6744d" x="228.878813" y="100.072845" style="fill: #2ca02c; stroke: #2ca02c"/>
     <use xlink:href="#ma981a6744d" x="238.366011" y="100.12003" style="fill: #2ca02c; stroke: #2ca02c"/>
     <use xlink:href="#ma981a6744d" x="247.85321" y="100.182942" style="fill: #2ca02c; stroke: #2ca02c"/>
     <use xlink:href="#ma981a6744d" x="257.340408" y="100.239655" style="fill: #2ca02c; stroke: #2ca02c"/>
     <use xlink:href="#ma981a6744d" x="266.827607" y="100.281677" style="fill: #2ca02c; stroke: #2ca02c"/>
     <use xlink:href="#ma981a6744d" x="276.314805" y="100.309096" style="fill: #2ca02c; stroke: #2ca02c"/>
     <use xlink:href="#ma981a6744d" x="285.802004" y="100.325812" style="fill: #2ca02c; stroke: #2ca02c"/>
     <use xlink:href="#ma981a6744d" x="295.289202" y="100.336279" style="fill: #2ca02c; stroke: #2ca02c"/>
     <use xlink:href="#ma981a6744d" x="304.776401" y="100.343894" style="fill: #2ca02c; stroke: #2ca02c"/>
     <use xlink:href="#ma981a6744d" x="314.263599" y="100.350615" style="fill: #2ca02c; stroke: #2ca02c"/>
     <use xlink:href="#ma981a6744d" x="323.750798" y="100.357219" style="fill: #2ca02c; stroke: #2ca02c"/>
     <use xlink:href="#ma981a6744d" x="333.237996" y="100.363777" style="fill: #2ca02c; stroke: #2ca02c"/>
     <use xlink:href="#ma981a6744d" x="342.725195" y="100.370072" style="fill: #2ca02c; stroke: #2ca02c"/>
     <use xlink:href="#ma981a6744d" x="352.212393" y="100.375855" style="fill: #2ca02c; stroke: #2ca02c"/>
     <use xlink:href="#ma981a6744d" x="361.699592" y="100.380978" style="fill: #2ca02c; stroke: #2ca02c"/>
     <use xlink:href="#ma981a6744d" x="371.18679" y="100.385402" style="fill: #2ca02c; stroke: #2ca02c"/>
     <use xlink:href="#ma981a6744d" x="380.673989" y="100.389173" style="fill: #2ca02c; stroke: #2ca02c"/>
     <use xlink:href="#ma981a6744d" x="390.161187" y="100.392381" style="fill: #2ca02c; stroke: #2ca02c"/>
     <use xlink:href="#ma981a6744d" x="399.648386" y="100.395122" style="fill: #2ca02c; stroke: #2ca02c"/>
     <use xlink:href="#ma981a6744d" x="409.135584" y="100.397482" style="fill: #2ca02c; stroke: #2ca02c"/>
     <use xlink:href="#ma981a6744d" x="418.622783" y="100.399529" style="fill: #2ca02c; stroke: #2ca02c"/>
     <use xlink:href="#ma981a6744d" x="428.109981" y="100.401313" style="fill: #2ca02c; stroke: #2ca02c"/>
     <use xlink:href="#ma981a6744d" x="437.59718" y="100.402872" style="fill: #2ca02c; stroke: #2ca02c"/>
     <use xlink:href="#ma981a6744d" x="447.084378" y="100.404233" style="fill: #2ca02c; stroke: #2ca02c"/>
     <use xlink:href="#ma981a6744d" x="456.571577" y="100.405421" style="fill: #2ca02c; stroke: #2ca02c"/>
     <use xlink:href="#ma981a6744d" x="466.058776" y="100.406455" style="fill: #2ca02c; stroke: #2ca02c"/>
     <use xlink:href="#ma981a6744d" x="475.545974" y="100.407354" style="fill: #2ca02c; stroke: #2ca02c"/>
     <use xlink:href="#ma981a6744d" x="485.033173" y="100.408136" style="fill: #2ca02c; stroke: #2ca02c"/>
     <use xlink:href="#ma981a6744d" x="494.520371" y="100.408815" style="fill: #2ca02c; stroke: #2ca02c"/>
     <use xlink:href="#ma981a6744d" x="504.00757" y="100.409405" style="fill: #2ca02c; stroke: #2ca02c"/>
     <use xlink:href="#ma981a6744d" x="513.494768" y="100.409917" style="fill: #2ca02c; stroke: #2ca02c"/>
     <use xlink:href="#ma981a6744d" x="522.981967" y="100.410363" style="fill: #2ca02c; stroke: #2ca02c"/>
     <use xlink:href="#ma981a6744d" x="532.469165" y="100.41075" style="fill: #2ca02c; stroke: #2ca02c"/>
     <use xlink:href="#ma981a6744d" x="541.956364" y="100.411087" style="fill: #2ca02c; stroke: #2ca02c"/>
    </g>
   </g>
   <g id="line2d_32">
    <path d="M 77.083636 200.336 
L 86.570835 167.028444 
L 96.058033 133.720889 
L 105.545232 111.515852 
L 115.03243 99.025519 
L 124.519629 93.320058 
L 134.006827 91.643115 
L 143.494026 91.985785 
L 152.981224 93.107763 
L 162.468423 94.354375 
L 171.955622 95.44551 
L 181.44282 96.306726 
L 190.930019 96.95738 
L 200.417217 97.446996 
L 209.904416 97.824763 
L 219.391614 98.128523 
L 228.878813 98.383512 
L 238.366011 98.604934 
L 247.85321 98.801284 
L 257.340408 98.977137 
L 266.827607 99.135045 
L 276.314805 99.276672 
L 285.802004 99.403365 
L 295.289202 99.516389 
L 304.776401 99.616997 
L 314.263599 99.706415 
L 323.750798 99.785815 
L 333.237996 99.856287 
L 342.725195 99.918827 
L 352.212393 99.974328 
L 361.699592 100.023587 
L 371.18679 100.067312 
L 380.673989 100.106127 
L 390.161187 100.140586 
L 399.648386 100.17118 
L 409.135584 100.198342 
L 418.622783 100.222457 
L 428.109981 100.243868 
L 437.59718 100.262878 
L 447.084378 100.279755 
L 456.571577 100.294739 
L 466.058776 100.308042 
L 475.545974 100.319853 
L 485.033173 100.330339 
L 494.520371 100.339649 
L 504.00757 100.347914 
L 513.494768 100.355253 
L 522.981967 100.361768 
L 532.469165 100.367552 
L 541.956364 100.372688 
" clip-path="url(#pae5a7fd2cf)" style="fill: none; stroke: #d62728; stroke-width: 2; stroke-linecap: square"/>
    <defs>
     <path id="mcff46916bf" d="M 0 1.5 
C 0.397805 1.5 0.77937 1.341951 1.06066 1.06066 
C 1.341951 0.77937 1.5 0.397805 1.5 0 
C 1.5 -0.397805 1.341951 -0.77937 1.06066 -1.06066 
C 0.77937 -1.341951 0.397805 -1.5 0 -1.5 
C -0.397805 -1.5 -0.77937 -1.341951 -1.06066 -1.06066 
C -1.341951 -0.77937 -1.5 -0.397805 -1.5 0 
C -1.5 0.397805 -1.341951 0.77937 -1.06066 1.06066 
C -0.77937 1.341951 -0.397805 1.5 0 1.5 
z
" style="stroke: #d62728"/>
    </defs>
    <g clip-path="url(#pae5a7fd2cf)">
     <use xlink:href="#mcff46916bf" x="77.083636" y="200.336" style="fill: #d62728; stroke: #d62728"/>
     <use xlink:href="#mcff46916bf" x="86.570835" y="167.028444" style="fill: #d62728; stroke: #d62728"/>
     <use xlink:href="#mcff46916bf" x="96.058033" y="133.720889" style="fill: #d62728; stroke: #d62728"/>
     <use xlink:href="#mcff46916bf" x="105.545232" y="111.515852" style="fill: #d62728; stroke: #d62728"/>
     <use xlink:href="#mcff46916bf" x="115.03243" y="99.025519" style="fill: #d62728; stroke: #d62728"/>
     <use xlink:href="#mcff46916bf" x="124.519629" y="93.320058" style="fill: #d62728; stroke: #d62728"/>
     <use xlink:href="#mcff46916bf" x="134.006827" y="91.643115" style="fill: #d62728; stroke: #d62728"/>
     <use xlink:href="#mcff46916bf" x="143.494026" y="91.985785" style="fill: #d62728; stroke: #d62728"/>
     <use xlink:href="#mcff46916bf" x="152.981224" y="93.107763" style="fill: #d62728; stroke: #d62728"/>
     <use xlink:href="#mcff46916bf" x="162.468423" y="94.354375" style="fill: #d62728; stroke: #d62728"/>
     <use xlink:href="#mcff46916bf" x="171.955622" y="95.44551" style="fill: #d62728; stroke: #d62728"/>
     <use xlink:href="#mcff46916bf" x="181.44282" y="96.306726" style="fill: #d62728; stroke: #d62728"/>
     <use xlink:href="#mcff46916bf" x="190.930019" y="96.95738" style="fill: #d62728; stroke: #d62728"/>
     <use xlink:href="#mcff46916bf" x="200.417217" y="97.446996" style="fill: #d62728; stroke: #d62728"/>
     <use xlink:href="#mcff46916bf" x="209.904416" y="97.824763" style="fill: #d62728; stroke: #d62728"/>
     <use xlink:href="#mcff46916bf" x="219.391614" y="98.128523" style="fill: #d62728; stroke: #d62728"/>
     <use xlink:href="#mcff46916bf" x="228.878813" y="98.383512" style="fill: #d62728; stroke: #d62728"/>
     <use xlink:href="#mcff46916bf" x="238.366011" y="98.604934" style="fill: #d62728; stroke: #d62728"/>
     <use xlink:href="#mcff46916bf" x="247.85321" y="98.801284" style="fill: #d62728; stroke: #d62728"/>
     <use xlink:href="#mcff46916bf" x="257.340408" y="98.977137" style="fill: #d62728; stroke: #d62728"/>
     <use xlink:href="#mcff46916bf" x="266.827607" y="99.135045" style="fill: #d62728; stroke: #d62728"/>
     <use xlink:href="#mcff46916bf" x="276.314805" y="99.276672" style="fill: #d62728; stroke: #d62728"/>
     <use xlink:href="#mcff46916bf" x="285.802004" y="99.403365" style="fill: #d62728; stroke: #d62728"/>
     <use xlink:href="#mcff46916bf" x="295.289202" y="99.516389" style="fill: #d62728; stroke: #d62728"/>
     <use xlink:href="#mcff46916bf" x="304.776401" y="99.616997" style="fill: #d62728; stroke: #d62728"/>
     <use xlink:href="#mcff46916bf" x="314.263599" y="99.706415" style="fill: #d62728; stroke: #d62728"/>
     <use xlink:href="#mcff46916bf" x="323.750798" y="99.785815" style="fill: #d62728; stroke: #d62728"/>
     <use xlink:href="#mcff46916bf" x="333.237996" y="99.856287" style="fill: #d62728; stroke: #d62728"/>
     <use xlink:href="#mcff46916bf" x="342.725195" y="99.918827" style="fill: #d62728; stroke: #d62728"/>
     <use xlink:href="#mcff46916bf" x="352.212393" y="99.974328" style="fill: #d62728; stroke: #d62728"/>
     <use xlink:href="#mcff46916bf" x="361.699592" y="100.023587" style="fill: #d62728; stroke: #d62728"/>
     <use xlink:href="#mcff46916bf" x="371.18679" y="100.067312" style="fill: #d62728; stroke: #d62728"/>
     <use xlink:href="#mcff46916bf" x="380.673989" y="100.106127" style="fill: #d62728; stroke: #d62728"/>
     <use xlink:href="#mcff46916bf" x="390.161187" y="100.140586" style="fill: #d62728; stroke: #d62728"/>
     <use xlink:href="#mcff46916bf" x="399.648386" y="100.17118" style="fill: #d62728; stroke: #d62728"/>
     <use xlink:href="#mcff46916bf" x="409.135584" y="100.198342" style="fill: #d62728; stroke: #d62728"/>
     <use xlink:href="#mcff46916bf" x="418.622783" y="100.222457" style="fill: #d62728; stroke: #d62728"/>
     <use xlink:href="#mcff46916bf" x="428.109981" y="100.243868" style="fill: #d62728; stroke: #d62728"/>
     <use xlink:href="#mcff46916bf" x="437.59718" y="100.262878" style="fill: #d62728; stroke: #d62728"/>
     <use xlink:href="#mcff46916bf" x="447.084378" y="100.279755" style="fill: #d62728; stroke: #d62728"/>
     <use xlink:href="#mcff46916bf" x="456.571577" y="100.294739" style="fill: #d62728; stroke: #d62728"/>
     <use xlink:href="#mcff46916bf" x="466.058776" y="100.308042" style="fill: #d62728; stroke: #d62728"/>
     <use xlink:href="#mcff46916bf" x="475.545974" y="100.319853" style="fill: #d62728; stroke: #d62728"/>
     <use xlink:href="#mcff46916bf" x="485.033173" y="100.330339" style="fill: #d62728; stroke: #d62728"/>
     <use xlink:href="#mcff46916bf" x="494.520371" y="100.339649" style="fill: #d62728; stroke: #d62728"/>
     <use xlink:href="#mcff46916bf" x="504.00757" y="100.347914" style="fill: #d62728; stroke: #d62728"/>
     <use xlink:href="#mcff46916bf" x="513.494768" y="100.355253" style="fill: #d62728; stroke: #d62728"/>
     <use xlink:href="#mcff46916bf" x="522.981967" y="100.361768" style="fill: #d62728; stroke: #d62728"/>
     <use xlink:href="#mcff46916bf" x="532.469165" y="100.367552" style="fill: #d62728; stroke: #d62728"/>
     <use xlink:href="#mcff46916bf" x="541.956364" y="100.372688" style="fill: #d62728; stroke: #d62728"/>
    </g>
   </g>
   <g id="line2d_33">
    <path d="M 77.083636 200.336 
L 86.570835 175.355333 
L 96.058033 150.374667 
L 105.545232 131.639167 
L 115.03243 118.173026 
L 124.519629 108.756486 
L 134.006827 102.323781 
L 143.494026 98.041283 
L 152.981224 95.286855 
L 162.468423 93.606658 
L 171.955622 92.67365 
L 181.44282 92.253919 
L 190.930019 92.181083 
L 200.417217 92.337392 
L 209.904416 92.63997 
L 219.391614 93.030878 
L 228.878813 93.469964 
L 238.366011 93.929729 
L 247.85321 94.391642 
L 257.340408 94.843512 
L 266.827607 95.277602 
L 276.314805 95.689283 
L 285.802004 96.076078 
L 295.289202 96.436983 
L 304.776401 96.77198 
L 314.263599 97.081702 
L 323.750798 97.367187 
L 333.237996 97.629718 
L 342.725195 97.870705 
L 352.212393 98.091603 
L 361.699592 98.293866 
L 371.18679 98.478908 
L 380.673989 98.64808 
L 390.161187 98.802663 
L 399.648386 98.943857 
L 409.135584 99.07278 
L 418.622783 99.190467 
L 428.109981 99.297878 
L 437.59718 99.395893 
L 447.084378 99.485323 
L 456.571577 99.566914 
L 466.058776 99.641345 
L 475.545974 99.709241 
L 485.033173 99.771174 
L 494.520371 99.827664 
L 504.00757 99.879189 
L 513.494768 99.926183 
L 522.981967 99.969045 
L 532.469165 100.008138 
L 541.956364 100.043791 
" clip-path="url(#pae5a7fd2cf)" style="fill: none; stroke: #9467bd; stroke-width: 2; stroke-linecap: square"/>
    <defs>
     <path id="m6aa12b3e3c" d="M 0 1.5 
C 0.397805 1.5 0.77937 1.341951 1.06066 1.06066 
C 1.341951 0.77937 1.5 0.397805 1.5 0 
C 1.5 -0.397805 1.341951 -0.77937 1.06066 -1.06066 
C 0.77937 -1.341951 0.397805 -1.5 0 -1.5 
C -0.397805 -1.5 -0.77937 -1.341951 -1.06066 -1.06066 
C -1.341951 -0.77937 -1.5 -0.397805 -1.5 0 
C -1.5 0.397805 -1.341951 0.77937 -1.06066 1.06066 
C -0.77937 1.341951 -0.397805 1.5 0 1.5 
z
" style="stroke: #9467bd"/>
    </defs>
    <g clip-path="url(#pae5a7fd2cf)">
     <use xlink:href="#m6aa12b3e3c" x="77.083636" y="200.336" style="fill: #9467bd; stroke: #9467bd"/>
     <use xlink:href="#m6aa12b3e3c" x="86.570835" y="175.355333" style="fill: #9467bd; stroke: #9467bd"/>
     <use xlink:href="#m6aa12b3e3c" x="96.058033" y="150.374667" style="fill: #9467bd; stroke: #9467bd"/>
     <use xlink:href="#m6aa12b3e3c" x="105.545232" y="131.639167" style="fill: #9467bd; stroke: #9467bd"/>
     <use xlink:href="#m6aa12b3e3c" x="115.03243" y="118.173026" style="fill: #9467bd; stroke: #9467bd"/>
     <use xlink:href="#m6aa12b3e3c" x="124.519629" y="108.756486" style="fill: #9467bd; stroke: #9467bd"/>
     <use xlink:href="#m6aa12b3e3c" x="134.006827" y="102.323781" style="fill: #9467bd; stroke: #9467bd"/>
     <use xlink:href="#m6aa12b3e3c" x="143.494026" y="98.041283" style="fill: #9467bd; stroke: #9467bd"/>
     <use xlink:href="#m6aa12b3e3c" x="152.981224" y="95.286855" style="fill: #9467bd; stroke: #9467bd"/>
     <use xlink:href="#m6aa12b3e3c" x="162.468423" y="93.606658" style="fill: #9467bd; stroke: #9467bd"/>
     <use xlink:href="#m6aa12b3e3c" x="171.955622" y="92.67365" style="fill: #9467bd; stroke: #9467bd"/>
     <use xlink:href="#m6aa12b3e3c" x="181.44282" y="92.253919" style="fill: #9467bd; stroke: #9467bd"/>
     <use xlink:href="#m6aa12b3e3c" x="190.930019" y="92.181083" style="fill: #9467bd; stroke: #9467bd"/>
     <use xlink:href="#m6aa12b3e3c" x="200.417217" y="92.337392" style="fill: #9467bd; stroke: #9467bd"/>
     <use xlink:href="#m6aa12b3e3c" x="209.904416" y="92.63997" style="fill: #9467bd; stroke: #9467bd"/>
     <use xlink:href="#m6aa12b3e3c" x="219.391614" y="93.030878" style="fill: #9467bd; stroke: #9467bd"/>
     <use xlink:href="#m6aa12b3e3c" x="228.878813" y="93.469964" style="fill: #9467bd; stroke: #9467bd"/>
     <use xlink:href="#m6aa12b3e3c" x="238.366011" y="93.929729" style="fill: #9467bd; stroke: #9467bd"/>
     <use xlink:href="#m6aa12b3e3c" x="247.85321" y="94.391642" style="fill: #9467bd; stroke: #9467bd"/>
     <use xlink:href="#m6aa12b3e3c" x="257.340408" y="94.843512" style="fill: #9467bd; stroke: #9467bd"/>
     <use xlink:href="#m6aa12b3e3c" x="266.827607" y="95.277602" style="fill: #9467bd; stroke: #9467bd"/>
     <use xlink:href="#m6aa12b3e3c" x="276.314805" y="95.689283" style="fill: #9467bd; stroke: #9467bd"/>
     <use xlink:href="#m6aa12b3e3c" x="285.802004" y="96.076078" style="fill: #9467bd; stroke: #9467bd"/>
     <use xlink:href="#m6aa12b3e3c" x="295.289202" y="96.436983" style="fill: #9467bd; stroke: #9467bd"/>
     <use xlink:href="#m6aa12b3e3c" x="304.776401" y="96.77198" style="fill: #9467bd; stroke: #9467bd"/>
     <use xlink:href="#m6aa12b3e3c" x="314.263599" y="97.081702" style="fill: #9467bd; stroke: #9467bd"/>
     <use xlink:href="#m6aa12b3e3c" x="323.750798" y="97.367187" style="fill: #9467bd; stroke: #9467bd"/>
     <use xlink:href="#m6aa12b3e3c" x="333.237996" y="97.629718" style="fill: #9467bd; stroke: #9467bd"/>
     <use xlink:href="#m6aa12b3e3c" x="342.725195" y="97.870705" style="fill: #9467bd; stroke: #9467bd"/>
     <use xlink:href="#m6aa12b3e3c" x="352.212393" y="98.091603" style="fill: #9467bd; stroke: #9467bd"/>
     <use xlink:href="#m6aa12b3e3c" x="361.699592" y="98.293866" style="fill: #9467bd; stroke: #9467bd"/>
     <use xlink:href="#m6aa12b3e3c" x="371.18679" y="98.478908" style="fill: #9467bd; stroke: #9467bd"/>
     <use xlink:href="#m6aa12b3e3c" x="380.673989" y="98.64808" style="fill: #9467bd; stroke: #9467bd"/>
     <use xlink:href="#m6aa12b3e3c" x="390.161187" y="98.802663" style="fill: #9467bd; stroke: #9467bd"/>
     <use xlink:href="#m6aa12b3e3c" x="399.648386" y="98.943857" style="fill: #9467bd; stroke: #9467bd"/>
     <use xlink:href="#m6aa12b3e3c" x="409.135584" y="99.07278" style="fill: #9467bd; stroke: #9467bd"/>
     <use xlink:href="#m6aa12b3e3c" x="418.622783" y="99.190467" style="fill: #9467bd; stroke: #9467bd"/>
     <use xlink:href="#m6aa12b3e3c" x="428.109981" y="99.297878" style="fill: #9467bd; stroke: #9467bd"/>
     <use xlink:href="#m6aa12b3e3c" x="437.59718" y="99.395893" style="fill: #9467bd; stroke: #9467bd"/>
     <use xlink:href="#m6aa12b3e3c" x="447.084378" y="99.485323" style="fill: #9467bd; stroke: #9467bd"/>
     <use xlink:href="#m6aa12b3e3c" x="456.571577" y="99.566914" style="fill: #9467bd; stroke: #9467bd"/>
     <use xlink:href="#m6aa12b3e3c" x="466.058776" y="99.641345" style="fill: #9467bd; stroke: #9467bd"/>
     <use xlink:href="#m6aa12b3e3c" x="475.545974" y="99.709241" style="fill: #9467bd; stroke: #9467bd"/>
     <use xlink:href="#m6aa12b3e3c" x="485.033173" y="99.771174" style="fill: #9467bd; stroke: #9467bd"/>
     <use xlink:href="#m6aa12b3e3c" x="494.520371" y="99.827664" style="fill: #9467bd; stroke: #9467bd"/>
     <use xlink:href="#m6aa12b3e3c" x="504.00757" y="99.879189" style="fill: #9467bd; stroke: #9467bd"/>
     <use xlink:href="#m6aa12b3e3c" x="513.494768" y="99.926183" style="fill: #9467bd; stroke: #9467bd"/>
     <use xlink:href="#m6aa12b3e3c" x="522.981967" y="99.969045" style="fill: #9467bd; stroke: #9467bd"/>
     <use xlink:href="#m6aa12b3e3c" x="532.469165" y="100.008138" style="fill: #9467bd; stroke: #9467bd"/>
     <use xlink:href="#m6aa12b3e3c" x="541.956364" y="100.043791" style="fill: #9467bd; stroke: #9467bd"/>
    </g>
   </g>
   <g id="patch_3">
    <path d="M 53.84 243.16 
L 53.84 29.04 
" style="fill: none; stroke: #000000; stroke-width: 0.8; stroke-linejoin: miter; stroke-linecap: square"/>
   </g>
   <g id="patch_4">
    <path d="M 565.2 243.16 
L 565.2 29.04 
" style="fill: none; stroke: #000000; stroke-width: 0.8; stroke-linejoin: miter; stroke-linecap: square"/>
   </g>
   <g id="patch_5">
    <path d="M 53.84 243.16 
L 565.2 243.16 
" style="fill: none; stroke: #000000; stroke-width: 0.8; stroke-linejoin: miter; stroke-linecap: square"/>
   </g>
   <g id="patch_6">
    <path d="M 53.84 29.04 
L 565.2 29.04 
" style="fill: none; stroke: #000000; stroke-width: 0.8; stroke-linejoin: miter; stroke-linecap: square"/>
   </g>
   <g id="text_17">
    <!-- SIMC Tuning $\tau_c$ Sweep -->
    <g transform="translate(231.05 23.04) scale(0.14 -0.14)">
     <defs>
      <path id="DejaVuSans-53" d="M 3425 4513 
L 3425 3897 
Q 3066 4069 2747 4153 
Q 2428 4238 2131 4238 
Q 1616 4238 1336 4038 
Q 1056 3838 1056 3469 
Q 1056 3159 1242 3001 
Q 1428 2844 1947 2747 
L 2328 2669 
Q 3034 2534 3370 2195 
Q 3706 1856 3706 1288 
Q 3706 609 3251 259 
Q 2797 -91 1919 -91 
Q 1588 -91 1214 -16 
Q 841 59 441 206 
L 441 856 
Q 825 641 1194 531 
Q 1563 422 1919 422 
Q 2459 422 2753 634 
Q 3047 847 3047 1241 
Q 3047 1584 2836 1778 
Q 2625 1972 2144 2069 
L 1759 2144 
Q 1053 2284 737 2584 
Q 422 2884 422 3419 
Q 422 4038 858 4394 
Q 1294 4750 2059 4750 
Q 2388 4750 2728 4690 
Q 3069 4631 3425 4513 
z
" transform="scale(0.015625)"/>
      <path id="DejaVuSans-49" d="M 628 4666 
L 1259 4666 
L 1259 0 
L 628 0 
L 628 4666 
z
" transform="scale(0.015625)"/>
      <path id="DejaVuSans-4d" d="M 628 4666 
L 1569 4666 
L 2759 1491 
L 3956 4666 
L 4897 4666 
L 4897 0 
L 4281 0 
L 4281 4097 
L 3078 897 
L 2444 897 
L 1241 4097 
L 1241 0 
L 628 0 
L 628 4666 
z
" transform="scale(0.015625)"/>
      <path id="DejaVuSans-43" d="M 4122 4306 
L 4122 3641 
Q 3803 3938 3442 4084 
Q 3081 4231 2675 4231 
Q 1875 4231 1450 3742 
Q 1025 3253 1025 2328 
Q 1025 1406 1450 917 
Q 1875 428 2675 428 
Q 3081 428 3442 575 
Q 3803 722 4122 1019 
L 4122 359 
Q 3791 134 3420 21 
Q 3050 -91 2638 -91 
Q 1578 -91 968 557 
Q 359 1206 359 2328 
Q 359 3453 968 4101 
Q 1578 4750 2638 4750 
Q 3056 4750 3426 4639 
Q 3797 4528 4122 4306 
z
" transform="scale(0.015625)"/>
      <path id="DejaVuSans-6e" d="M 3513 2113 
L 3513 0 
L 2938 0 
L 2938 2094 
Q 2938 2591 2744 2837 
Q 2550 3084 2163 3084 
Q 1697 3084 1428 2787 
Q 1159 2491 1159 1978 
L 1159 0 
L 581 0 
L 581 3500 
L 1159 3500 
L 1159 2956 
Q 1366 3272 1645 3428 
Q 1925 3584 2291 3584 
Q 2894 3584 3203 3211 
Q 3513 2838 3513 2113 
z
" transform="scale(0.015625)"/>
      <path id="DejaVuSans-67" d="M 2906 1791 
Q 2906 2416 2648 2759 
Q 2391 3103 1925 3103 
Q 1463 3103 1205 2759 
Q 947 2416 947 1791 
Q 947 1169 1205 825 
Q 1463 481 1925 481 
Q 2391 481 2648 825 
Q 2906 1169 2906 1791 
z
M 3481 434 
Q 3481 -459 3084 -895 
Q 2688 -1331 1869 -1331 
Q 1566 -1331 1297 -1286 
Q 1028 -1241 775 -1147 
L 775 -588 
Q 1028 -725 1275 -790 
Q 1522 -856 1778 -856 
Q 2344 -856 2625 -561 
Q 2906 -266 2906 331 
L 2906 616 
Q 2728 306 2450 153 
Q 2172 0 1784 0 
Q 1141 0 747 490 
Q 353 981 353 1791 
Q 353 2603 747 3093 
Q 1141 3584 1784 3584 
Q 2172 3584 2450 3431 
Q 2728 3278 2906 2969 
L 2906 3500 
L 3481 3500 
L 3481 434 
z
" transform="scale(0.015625)"/>
      <path id="DejaVuSans-Oblique-3c4" d="M 2103 638 
Q 2188 488 2525 488 
L 2800 488 
L 2706 0 
L 2363 0 
Q 1800 0 1600 300 
Q 1403 606 1534 1269 
L 1856 2925 
L 541 2925 
L 653 3500 
L 3881 3500 
L 3769 2925 
L 2444 2925 
L 2113 1234 
Q 2025 781 2103 638 
z
" transform="scale(0.015625)"/>
      <path id="DejaVuSans-Oblique-63" d="M 3431 3366 
L 3316 2797 
Q 3109 2947 2876 3022 
Q 2644 3097 2394 3097 
Q 2119 3097 1870 3000 
Q 1622 2903 1453 2725 
Q 1184 2453 1037 2087 
Q 891 1722 891 1331 
Q 891 859 1127 628 
Q 1363 397 1844 397 
Q 2081 397 2348 469 
Q 2616 541 2906 684 
L 2797 116 
Q 2547 13 2283 -39 
Q 2019 -91 1741 -91 
Q 1044 -91 669 257 
Q 294 606 294 1253 
Q 294 1797 489 2255 
Q 684 2713 1069 3078 
Q 1331 3328 1684 3456 
Q 2038 3584 2456 3584 
Q 2700 3584 2940 3529 
Q 3181 3475 3431 3366 
z
" transform="scale(0.015625)"/>
      <path id="DejaVuSans-77" d="M 269 3500 
L 844 3500 
L 1563 769 
L 2278 3500 
L 2956 3500 
L 3675 769 
L 4391 3500 
L 4966 3500 
L 4050 0 
L 3372 0 
L 2619 2869 
L 1863 0 
L 1184 0 
L 269 3500 
z
" transform="scale(0.015625)"/>
     </defs>
     <use xlink:href="#DejaVuSans-53" transform="translate(0 0.015625)"/>
     <use xlink:href="#DejaVuSans-49" transform="translate(63.476562 0.015625)"/>
     <use xlink:href="#DejaVuSans-4d" transform="translate(92.96875 0.015625)"/>
     <use xlink:href="#DejaVuSans-43" transform="translate(179.248047 0.015625)"/>
     <use xlink:href="#DejaVuSans-20" transform="translate(249.072266 0.015625)"/>
     <use xlink:href="#DejaVuSans-54" transform="translate(280.859375 0.015625)"/>
     <use xlink:href="#DejaVuSans-75" transform="translate(341.943359 0.015625)"/>
     <use xlink:href="#DejaVuSans-6e" transform="translate(405.322266 0.015625)"/>
     <use xlink:href="#DejaVuSans-69" transform="translate(468.701172 0.015625)"/>
     <use xlink:href="#DejaVuSans-6e" transform="translate(496.484375 0.015625)"/>
     <use xlink:href="#DejaVuSans-67" transform="translate(559.863281 0.015625)"/>
     <use xlink:href="#DejaVuSans-20" transform="translate(623.339844 0.015625)"/>
     <use xlink:href="#DejaVuSans-Oblique-3c4" transform="translate(655.126953 0.015625)"/>
     <use xlink:href="#DejaVuSans-Oblique-63" transform="translate(715.332031 -16.390625) scale(0.7)"/>
     <use xlink:href="#DejaVuSans-20" transform="translate(756.552734 0.015625)"/>
     <use xlink:href="#DejaVuSans-53" transform="translate(788.339844 0.015625)"/>
     <use xlink:href="#DejaVuSans-77" transform="translate(851.816406 0.015625)"/>
     <use xlink:href="#DejaVuSans-65" transform="translate(933.603516 0.015625)"/>
     <use xlink:href="#DejaVuSans-65" transform="translate(995.126953 0.015625)"/>
     <use xlink:href="#DejaVuSans-70" transform="translate(1056.650391 0.015625)"/>
    </g>
   </g>
   <g id="legend_1">
    <g id="patch_7">
     <path d="M 491.7 238.16 
L 558.2 238.16 
Q 560.2 238.16 560.2 236.16 
L 560.2 163.769375 
Q 560.2 161.769375 558.2 161.769375 
L 491.7 161.769375 
Q 489.7 161.769375 489.7 163.769375 
L 489.7 236.16 
Q 489.7 238.16 491.7 238.16 
z
" style="fill: #ffffff; opacity: 0.8; stroke: #cccccc; stroke-linejoin: miter"/>
    </g>
    <g id="line2d_34">
     <path d="M 493.7 169.867813 
L 503.7 169.867813 
L 513.7 169.867813 
" style="fill: none; stroke: #1f77b4; stroke-width: 2; stroke-linecap: square"/>
     <g>
      <use xlink:href="#m155593f2f1" x="503.7" y="169.867813" style="fill: #1f77b4; stroke: #1f77b4"/>
     </g>
    </g>
    <g id="text_18">
     <!-- $\tau_c$=0.5 -->
     <g transform="translate(521.7 173.367813) scale(0.1 -0.1)">
      <defs>
       <path id="DejaVuSans-3d" d="M 678 2906 
L 4684 2906 
L 4684 2381 
L 678 2381 
L 678 2906 
z
M 678 1631 
L 4684 1631 
L 4684 1100 
L 678 1100 
L 678 1631 
z
" transform="scale(0.015625)"/>
       <path id="DejaVuSans-2e" d="M 684 794 
L 1344 794 
L 1344 0 
L 684 0 
L 684 794 
z
" transform="scale(0.015625)"/>
      </defs>
      <use xlink:href="#DejaVuSans-Oblique-3c4" transform="translate(0 0.78125)"/>
      <use xlink:href="#DejaVuSans-Oblique-63" transform="translate(60.205078 -15.625) scale(0.7)"/>
      <use xlink:href="#DejaVuSans-3d" transform="translate(101.425781 0.78125)"/>
      <use xlink:href="#DejaVuSans-30" transform="translate(185.214844 0.78125)"/>
      <use xlink:href="#DejaVuSans-2e" transform="translate(248.837891 0.78125)"/>
      <use xlink:href="#DejaVuSans-35" transform="translate(280.625 0.78125)"/>
     </g>
    </g>
    <g id="line2d_35">
     <path d="M 493.7 184.545938 
L 503.7 184.545938 
L 513.7 184.545938 
" style="fill: none; stroke: #ff7f0e; stroke-width: 2; stroke-linecap: square"/>
     <g>
      <use xlink:href="#m1738d7e8a8" x="503.7" y="184.545938" style="fill: #ff7f0e; stroke: #ff7f0e"/>
     </g>
    </g>
    <g id="text_19">
     <!-- $\tau_c$=1 -->
     <g transform="translate(521.7 188.045938) scale(0.1 -0.1)">
      <use xlink:href="#DejaVuSans-Oblique-3c4" transform="translate(0 0.09375)"/>
      <use xlink:href="#DejaVuSans-Oblique-63" transform="translate(60.205078 -16.3125) scale(0.7)"/>
      <use xlink:href="#DejaVuSans-3d" transform="translate(101.425781 0.09375)"/>
      <use xlink:href="#DejaVuSans-31" transform="translate(185.214844 0.09375)"/>
     </g>
    </g>
    <g id="line2d_36">
     <path d="M 493.7 199.224063 
L 503.7 199.224063 
L 513.7 199.224063 
" style="fill: none; stroke: #2ca02c; stroke-width: 2; stroke-linecap: square"/>
     <g>
      <use xlink:href="#ma981a6744d" x="503.7" y="199.224063" style="fill: #2ca02c; stroke: #2ca02c"/>
     </g>
    </g>
    <g id="text_20">
     <!-- $\tau_c$=1.5 -->
     <g transform="translate(521.7 202.724063) scale(0.1 -0.1)">
      <use xlink:href="#DejaVuSans-Oblique-3c4" transform="translate(0 0.09375)"/>
      <use xlink:href="#DejaVuSans-Oblique-63" transform="translate(60.205078 -16.3125) scale(0.7)"/>
      <use xlink:href="#DejaVuSans-3d" transform="translate(101.425781 0.09375)"/>
      <use xlink:href="#DejaVuSans-31" transform="translate(185.214844 0.09375)"/>
      <use xlink:href="#DejaVuSans-2e" transform="translate(248.837891 0.09375)"/>
      <use xlink:href="#DejaVuSans-35" transform="translate(280.625 0.09375)"/>
     </g>
    </g>
    <g id="line2d_37">
     <path d="M 493.7 213.902187 
L 503.7 213.902187 
L 513.7 213.902187 
" style="fill: none; stroke: #d62728; stroke-width: 2; stroke-linecap: square"/>
     <g>
      <use xlink:href="#mcff46916bf" x="503.7" y="213.902187" style="fill: #d62728; stroke: #d62728"/>
     </g>
    </g>
    <g id="text_21">
     <!-- $\tau_c$=2 -->
     <g transform="translate(521.7 217.402187) scale(0.1 -0.1)">
      <use xlink:href="#DejaVuSans-Oblique-3c4" transform="translate(0 0.78125)"/>
      <use xlink:href="#DejaVuSans-Oblique-63" transform="translate(60.205078 -15.625) scale(0.7)"/>
      <use xlink:href="#DejaVuSans-3d" transform="translate(101.425781 0.78125)"/>
      <use xlink:href="#DejaVuSans-32" transform="translate(185.214844 0.78125)"/>
     </g>
    </g>
    <g id="line2d_38">
     <path d="M 493.7 228.580312 
L 503.7 228.580312 
L 513.7 228.580312 
" style="fill: none; stroke: #9467bd; stroke-width: 2; stroke-linecap: square"/>
     <g>
      <use xlink:href="#m6aa12b3e3c" x="503.7" y="228.580312" style="fill: #9467bd; stroke: #9467bd"/>
     </g>
    </g>
    <g id="text_22">
     <!-- $\tau_c$=3 -->
     <g transform="translate(521.7 232.080312) scale(0.1 -0.1)">
      <use xlink:href="#DejaVuSans-Oblique-3c4" transform="translate(0 0.78125)"/>
      <use xlink:href="#DejaVuSans-Oblique-63" transform="translate(60.205078 -15.625) scale(0.7)"/>
      <use xlink:href="#DejaVuSans-3d" transform="translate(101.425781 0.78125)"/>
      <use xlink:href="#DejaVuSans-33" transform="translate(185.214844 0.78125)"/>
     </g>
    </g>
   </g>
  </g>
 </g>
 <defs>
  <clipPath id="pae5a7fd2cf">
   <rect x="53.84" y="29.04" width="511.36" height="214.12"/>
  </clipPath>
 </defs>
</svg>
